<?xml version="1.0" standalone="no"?><!DOCTYPE svg PUBLIC "-//W3C//DTD SVG 1.1//EN" "http://www.w3.org/Graphics/SVG/1.1/DTD/svg11.dtd"><svg t="1755939697528" class="icon" viewBox="0 0 1024 1024" version="1.1" xmlns="http://www.w3.org/2000/svg" p-id="5063" xmlns:xlink="http://www.w3.org/1999/xlink" width="200" height="200"><path d="M576 514.133333l219.733333-219.733333c12.8-12.8 12.8-32 0-44.8l-14.933333-14.933333c-12.8-12.8-32-12.8-44.8 0L514.133333 454.4 296.533333 236.8c-12.8-12.8-32-12.8-44.8 0l-14.933333 14.933333c-12.8 12.8-12.8 32 0 44.8l219.733333 219.733334-219.733333 217.6c-12.8 12.8-12.8 32 0 44.8l14.933333 14.933333c12.8 12.8 32 12.8 44.8 0L514.133333 576l219.733334 219.733333c12.8 12.8 32 12.8 44.8 0l14.933333-14.933333c12.8-12.8 12.8-32 0-44.8L576 514.133333z" fill="#566073" p-id="5064"></path></svg>