<?xml version="1.0" standalone="no"?><!DOCTYPE svg PUBLIC "-//W3C//DTD SVG 1.1//EN" "http://www.w3.org/Graphics/SVG/1.1/DTD/svg11.dtd"><svg t="1756208227607" class="icon" viewBox="0 0 1024 1024" version="1.1" xmlns="http://www.w3.org/2000/svg" p-id="8240" xmlns:xlink="http://www.w3.org/1999/xlink" width="200" height="200"><path d="M407.424 53.312H403.2c-68.352 0-122.56 0-165.376 5.12-43.968 5.12-80.192 16.064-110.464 40.96-10.24 8.32-19.648 17.792-28.096 28.032-24.832 30.272-35.712 66.432-40.96 110.464C53.312 280.768 53.312 334.912 53.312 403.2v4.16c0 68.352 0 122.496 5.12 165.376 5.12 43.968 16.064 80.192 40.96 110.464 8.32 10.24 17.792 19.648 28.032 28.032 28.672 23.552 62.72 34.56 103.68 40.128 33.152 4.48 73.152 5.568 121.344 5.76 0.576 26.624 1.792 49.92 4.48 70.208 5.184 38.4 16.256 70.72 41.92 96.384 25.664 25.728 58.048 36.736 96.448 41.92 36.992 4.992 84.032 4.992 142.336 4.992h47.36c58.368 0 105.408 0 142.4-4.992 38.4-5.12 70.72-16.192 96.384-41.92 25.728-25.6 36.736-57.984 41.92-96.384 4.928-36.992 4.928-84.032 4.928-142.4v-47.36c0-58.304 0-105.344-4.928-142.336-5.12-38.4-16.192-70.784-41.92-96.448-25.664-25.664-57.984-36.736-96.384-41.856a638.912 638.912 0 0 0-70.144-4.48c-0.256-48.192-1.344-88.192-5.824-121.472-5.504-40.96-16.576-74.944-40.128-103.616a202.88 202.88 0 0 0-28.032-28.096c-30.272-24.832-66.496-35.712-110.464-40.96C529.92 53.312 475.776 53.312 407.424 53.312zM693.248 352h-55.616c-58.304 0-105.344 0-142.336 4.992-38.4 5.12-70.784 16.192-96.448 41.856-25.664 25.664-36.736 58.048-41.856 96.448C352 532.288 352 579.328 352 637.632v55.616c-47.36-0.32-83.392-1.344-112.384-5.248-34.496-4.672-55.488-12.928-71.616-26.176-7.04-5.76-13.44-12.16-19.2-19.2-13.888-16.96-22.4-39.424-26.88-77.376-4.48-38.656-4.608-88.96-4.608-159.936 0-70.912 0.064-121.28 4.672-159.936 4.48-37.952 12.928-60.416 26.88-77.376 5.76-7.04 12.16-13.44 19.2-19.2 16.896-13.888 39.36-22.4 77.312-26.88 38.656-4.48 89.024-4.608 160-4.608 70.848 0 121.28 0.064 159.872 4.672 37.952 4.48 60.416 12.928 77.44 26.88 6.976 5.76 13.44 12.16 19.2 19.2 13.184 16 21.44 37.12 26.112 71.552 3.84 28.992 4.928 65.024 5.248 112.384zM444.096 444.16c11.84-11.84 28.416-19.584 59.712-23.744 32.192-4.352 74.88-4.48 136.192-4.48h42.624c61.248 0 104 0.128 136.192 4.48 31.36 4.16 47.936 11.904 59.712 23.68 11.84 11.84 19.52 28.416 23.68 59.712 4.352 32.256 4.48 74.944 4.48 136.192v42.688c0 61.248-0.128 103.936-4.48 136.128-4.16 31.36-11.84 47.936-23.68 59.712-11.776 11.84-28.352 19.52-59.712 23.68-32.192 4.416-74.88 4.48-136.192 4.48H640c-61.248 0-104-0.128-136.192-4.48-31.36-4.16-47.872-11.84-59.712-23.68-11.776-11.776-19.52-28.352-23.68-59.712-4.352-32.192-4.48-74.88-4.48-136.128V640c0-61.248 0.128-103.936 4.48-136.192 4.16-31.36 11.904-47.872 23.68-59.712z" fill="#333333" p-id="8241"></path></svg>