<?xml version="1.0" standalone="no"?><!DOCTYPE svg PUBLIC "-//W3C//DTD SVG 1.1//EN" "http://www.w3.org/Graphics/SVG/1.1/DTD/svg11.dtd"><svg t="1754722344472" class="icon" viewBox="0 0 1024 1024" version="1.1" xmlns="http://www.w3.org/2000/svg" p-id="2365" xmlns:xlink="http://www.w3.org/1999/xlink" width="200" height="200"><path d="M493.568 923.648c-122.88 0-243.712-53.248-325.632-151.552-92.16-6.144-126.976-45.056-141.312-75.776-12.288-30.72-14.336-81.92 45.056-149.504C51.2 360.448 157.696 184.32 333.824 114.688c178.176-71.68 376.832-16.384 493.568 133.12 83.968 10.24 116.736 45.056 126.976 75.776 12.288 30.72 14.336 79.872-43.008 145.408 14.336 182.272-90.112 354.304-264.192 423.936-49.152 20.48-102.4 30.72-153.6 30.72z m0-757.76c-43.008 0-86.016 8.192-129.024 24.576-147.456 59.392-233.472 208.896-208.896 364.544l2.048 20.48-14.336 14.336c-34.816 36.864-47.104 65.536-40.96 75.776 4.096 8.192 26.624 24.576 86.016 26.624h18.432l12.288 16.384c92.16 120.832 256 165.888 399.36 108.544S847.872 614.4 829.44 460.8l-2.048-18.432 12.288-14.336c32.768-34.816 43.008-61.44 38.912-73.728-4.096-10.24-30.72-22.528-75.776-26.624l-20.48-2.048-12.288-16.384c-63.488-92.16-167.936-143.36-276.48-143.36z" fill="#333333" p-id="2366"></path><path d="M192.512 774.144l-8.192-81.92c4.096 0 446.464-47.104 657.408-264.192l59.392 57.344c-233.472 237.568-690.176 286.72-708.608 288.768z" fill="#333333" p-id="2367"></path><path d="M497.664 305.152a34.816 34.816 0 1 0 69.632 0 34.816 34.816 0 1 0-69.632 0Z" fill="#E5BD41" p-id="2368"></path></svg>