<?xml version="1.0" standalone="no"?><!DOCTYPE svg PUBLIC "-//W3C//DTD SVG 1.1//EN" "http://www.w3.org/Graphics/SVG/1.1/DTD/svg11.dtd"><svg t="1754793057822" class="icon" viewBox="0 0 1024 1024" version="1.1" xmlns="http://www.w3.org/2000/svg" p-id="2631" xmlns:xlink="http://www.w3.org/1999/xlink" width="200" height="200"><path d="M525.43 649.3L258.18 477.18v344.23z" fill="#B7774C" p-id="2632"></path><path d="M503.51 649.3l267.26-172.12v344.23z" fill="#B7774C" p-id="2633"></path><path d="M788.23 624.93V309.16L514.76 151.28 241.3 309.16v315.77l273.46 157.89z" fill="#B7774C" p-id="2634"></path><path d="M774.7 602.31a32.008 32.008 0 0 1-11.46 11.63l-232.75 137.8c-5.67 3.36-12.13 4.77-18.49 4.34v42.67c7.27 0.49 14.64-1.12 21.11-4.96l265.74-157.34a36.6 36.6 0 0 0 12.96-13.09l-37.11-21.05z" fill="#B66E4E" p-id="2635"></path><path d="M525.52 157.99l234.75 131.34a32.108 32.108 0 0 1 16.42 27.73l2.28 268.99c0.05 5.8-1.48 11.39-4.28 16.25l37.12 21.06c3.26-5.6 5.07-12.04 5.01-18.75l-2.61-307.12a36.635 36.635 0 0 0-18.75-31.66L527.44 115.88c-4.82-2.7-10.1-4.15-15.44-4.51v42.67c4.67 0.31 9.3 1.58 13.52 3.95z" fill="#EED5C1" p-id="2636"></path><path d="M260.76 296.19l232.75-137.81c5.67-3.36 12.13-4.77 18.49-4.34v-42.67c-7.27-0.49-14.64 1.12-21.11 4.96L225.15 273.67c-4.51 2.67-8.28 6.26-11.21 10.41l37.12 21.06c2.54-3.57 5.81-6.65 9.7-8.95z" fill="#E7AE96" p-id="2637"></path><path d="M498.48 752.13L263.73 620.79a32.108 32.108 0 0 1-16.42-27.73l-2.28-268.99c-0.06-6.91 2.14-13.5 6.03-18.94l-37.12-21.06c-4.36 6.17-6.83 13.62-6.76 21.43l2.61 307.12a36.635 36.635 0 0 0 18.75 31.66l268.03 149.96c4.82 2.7 10.1 4.15 15.44 4.51v-42.67c-4.68-0.31-9.31-1.58-13.53-3.95z" fill="#B2654B" p-id="2638"></path><path d="M279.26 307.88l215.61-127.66c5.26-3.11 11.24-4.42 17.13-4.02v-22.16c-6.36-0.43-12.82 0.98-18.49 4.34L260.76 296.19c-3.9 2.31-7.16 5.38-9.71 8.95l19.28 10.94c2.35-3.26 5.35-6.08 8.93-8.2z" fill="#CC784D" p-id="2639"></path><path d="M499.47 730.26L282 608.59a29.736 29.736 0 0 1-15.21-25.69l-2.11-249.18c-0.05-6.44 2-12.59 5.65-17.64l-19.28-10.94c-3.89 5.44-6.09 12.03-6.03 18.94l2.28 268.99c0.1 11.52 6.36 22.1 16.42 27.73l234.75 131.34c4.23 2.36 8.85 3.64 13.52 3.95v-22.16c-4.32-0.3-8.6-1.48-12.52-3.67z" fill="#EEA180" p-id="2640"></path><path d="M776.69 317.06c-0.1-11.52-6.36-22.1-16.42-27.73L525.52 157.99c-4.23-2.36-8.85-3.64-13.52-3.95v22.16c4.33 0.29 8.61 1.47 12.53 3.66L742 301.53a29.736 29.736 0 0 1 15.21 25.69l2.11 249.18c0.05 5.34-1.35 10.48-3.9 14.96l19.28 10.94c2.8-4.86 4.33-10.45 4.28-16.25l-2.29-268.99z" fill="#C46C4E" p-id="2641"></path><path d="M744.74 602.24L529.13 729.9c-5.26 3.11-11.24 4.42-17.13 4.02v22.16c6.36 0.43 12.82-0.98 18.49-4.34l232.75-137.81c4.85-2.87 8.75-6.91 11.46-11.63l-19.28-10.94a29.62 29.62 0 0 1-10.68 10.88z" fill="#DD8B66" p-id="2642"></path><path d="M514.76 674.02c42.38 0 76.74 34.36 76.74 76.73 0 21.19-8.59 40.37-22.48 54.26l10.62 10.62c16.6-16.6 26.87-39.54 26.87-64.88 0-50.68-41.08-91.76-91.76-91.76-25.34 0-48.28 10.27-64.88 26.87l10.62 10.62c13.9-13.88 33.08-22.46 54.27-22.46z" fill="#EEA180" p-id="2643"></path><path d="M569.02 805.01c-13.89 13.89-33.07 22.48-54.26 22.48-42.38 0-76.73-34.36-76.73-76.74 0-21.19 8.59-40.37 22.48-54.26l-10.62-10.62c-16.6 16.6-26.87 39.54-26.87 64.88 0 50.68 41.08 91.76 91.76 91.76 25.34 0 48.28-10.27 64.88-26.87l-10.64-10.63z" fill="#C46C4E" p-id="2644"></path><path d="M514.76 817.11c-36.65 0-66.36-29.71-66.36-66.36 0-18.32 7.43-34.91 19.44-46.92l-7.34-7.34c-13.89 13.89-22.48 33.07-22.48 54.26 0 42.38 34.36 76.74 76.73 76.74 21.19 0 40.37-8.59 54.26-22.48l-7.34-7.34c-11.99 12.01-28.58 19.44-46.91 19.44z" fill="#EEA180" p-id="2645"></path><path d="M514.76 674.02c-21.19 0-40.37 8.59-54.26 22.48l7.34 7.34c12.01-12.01 28.6-19.44 46.92-19.44 36.65 0 66.36 29.71 66.36 66.36 0 18.32-7.43 34.91-19.44 46.92l7.34 7.34c13.89-13.89 22.48-33.07 22.48-54.26 0-42.39-34.36-76.74-76.74-76.74z" fill="#C46C4E" p-id="2646"></path><path d="M514.76 293.17l48.55 98.38 108.57 15.78-78.56 76.57 18.55 108.13-97.11-51.05-97.1 51.05L436.2 483.9l-78.55-76.57 108.56-15.78z" fill="#B2654B" p-id="2647"></path><path d="M455.21 397.66l2.4-4.86-99.96 14.53 4.03 3.92zM671.88 407.33l-108.57-15.78-48.55-98.38-2.76 5.6 46.11 97.04 106.3 15.44-74.74 71.71 19.23 107.51 2.97 1.56-18.55-108.13z" fill="#7A4334" p-id="2648"></path><path d="M581.12 750.75c0-36.65-29.71-66.36-66.36-66.36-18.46 0-35.14 7.55-47.17 19.71l94.02 93.63c12.05-12.01 19.51-28.62 19.51-46.98z" fill="#EAC6B1" p-id="2649"></path><path d="M467.6 704.1c-11.86 11.99-19.19 28.46-19.19 46.65 0 36.65 29.71 66.36 66.36 66.36 18.29 0 34.85-7.4 46.86-19.38L467.6 704.1z" fill="#F0DACA" p-id="2650"></path><path d="M503.71 771.47c2.01 3.33 0.82 6.41-3.58 9.24l-9.81 6.22c-2.2 1.38-4.4 2.8-6.6 4.24-0.75 0.5-1.21 0.83-1.37 0.99-0.16 0.16-1.43-1.15-3.82-3.91-2.39-2.77-2.67-4.79-0.85-6.08 1.82-1.29 2.73-3.94 2.73-7.97v-12.26c0-0.31-0.16-0.47-0.47-0.47h-2.55c-5.28 0-7.92-2.04-7.92-6.13 0-4.02 2.64-6.04 7.92-6.04h2.55c0.31 0 0.47-0.16 0.47-0.47v-6.32c0-0.31-0.16-0.47-0.47-0.47-3.08 0-4.65-1.76-4.72-5.28 0-0.31-0.53-1-1.6-2.07l-2.64-2.73c-3.65-3.83-3.52-7.54 0.38-11.13 3.08-2.83 5.19-6 6.32-9.52 1.63-5.09 4.43-6.95 8.39-5.56 3.9 1.38 5.5 3.02 4.81 4.9-0.13 0.31-0.03 0.47 0.28 0.47h5.38c5.28 0 7.92 2.08 7.92 6.22 0 4.21-2.64 6.32-7.92 6.32h-10.18c-1.19 0-2.11 0.5-2.73 1.51l-2.83 4.34c-0.19 0.25-0.13 0.38 0.19 0.38h14.71c5.28 0 7.92 2.01 7.92 6.04 0 4.09-2.64 6.13-7.92 6.13h-2.17c-0.32 0-0.47 0.16-0.47 0.47v6.32c0 0.32 0.16 0.47 0.47 0.47h2.64c5.28 0 7.92 2.01 7.92 6.04 0 4.09-2.64 6.13-7.92 6.13h-2.64c-0.32 0-0.47 0.16-0.47 0.47v8.58c0 0.32 0.13 0.38 0.38 0.19l0.47-0.19c4.52-2.72 7.79-2.4 9.8 0.93z m24.52-35.74h4.15c5.28 0 7.92-1.85 7.92-5.56 0-3.65-2.64-5.47-7.92-5.47h-4.15c-5.28 0-7.92 1.82-7.92 5.47 0 3.7 2.64 5.56 7.92 5.56z m18.58-28.95h-32.63c-5.28 0-7.92 2.64-7.92 7.92v70.54c0 5.28 1.85 7.92 5.56 7.92 3.71 0 5.56-2.64 5.56-7.92v-65.73c0-0.31 0.16-0.47 0.47-0.47h25.08c0.31 0 0.47 0.16 0.47 0.47v59.98c0 1.2-0.28 1.79-0.85 1.79h-1.32c-4.72-0.13-7.11 1.86-7.17 5.94 0 4.09 2.64 6.13 7.92 6.13 2.95 0 4.62-0.09 5-0.28 2.32-1.38 3.88-2.33 4.67-2.83s1.49-1.64 2.12-3.4c0.63-1.76 0.94-4.15 0.94-7.17V714.7c0.02-5.28-2.62-7.92-7.9-7.92z m-18.48 45.45c0-0.31 0.16-0.47 0.47-0.47h2.92c0.31 0 0.47 0.16 0.47 0.47v4.15h8.11v-6.98c0-5.28-2.64-7.92-7.92-7.92h-3.87c-5.28 0-7.92 2.64-7.92 7.92v6.98h7.73v-4.15z m0 4.15h-7.73v6.98c0 5.28 2.64 7.92 7.92 7.92h3.87c5.28 0 7.92-2.64 7.92-7.92v-6.98h-8.11v4.15c0 0.31-0.16 0.47-0.47 0.47h-2.92c-0.32 0-0.47-0.16-0.47-0.47v-4.15z" fill="#7A4334" p-id="2651"></path><path d="M505.36 770.92c2.01 3.33 0.82 6.41-3.58 9.24l-9.81 6.22c-2.2 1.38-4.4 2.8-6.6 4.24-0.75 0.5-1.21 0.83-1.37 0.99-0.16 0.16-1.43-1.15-3.82-3.91-2.39-2.77-2.67-4.79-0.85-6.08 1.82-1.29 2.73-3.94 2.73-7.97v-12.26c0-0.31-0.16-0.47-0.47-0.47h-2.55c-5.28 0-7.92-2.04-7.92-6.13 0-4.02 2.64-6.04 7.92-6.04h2.55c0.31 0 0.47-0.16 0.47-0.47v-6.32c0-0.31-0.16-0.47-0.47-0.47-3.08 0-4.65-1.76-4.72-5.28 0-0.31-0.53-1-1.6-2.07l-2.64-2.73c-3.65-3.83-3.52-7.54 0.38-11.13 3.08-2.83 5.19-6 6.32-9.52 1.63-5.09 4.43-6.95 8.39-5.56 3.9 1.38 5.5 3.02 4.81 4.9-0.13 0.31-0.03 0.47 0.28 0.47h5.38c5.28 0 7.92 2.08 7.92 6.22 0 4.21-2.64 6.32-7.92 6.32h-10.18c-1.19 0-2.11 0.5-2.73 1.51l-2.83 4.34c-0.19 0.25-0.13 0.38 0.19 0.38h14.71c5.28 0 7.92 2.01 7.92 6.04 0 4.09-2.64 6.13-7.92 6.13h-2.17c-0.32 0-0.47 0.16-0.47 0.47v6.32c0 0.32 0.16 0.47 0.47 0.47h2.64c5.28 0 7.92 2.01 7.92 6.04 0 4.09-2.64 6.13-7.92 6.13h-2.64c-0.32 0-0.47 0.16-0.47 0.47v8.58c0 0.32 0.13 0.38 0.38 0.19l0.47-0.19c4.52-2.72 7.79-2.4 9.8 0.93z m24.52-35.74h4.15c5.28 0 7.92-1.85 7.92-5.56 0-3.65-2.64-5.47-7.92-5.47h-4.15c-5.28 0-7.92 1.82-7.92 5.47 0 3.7 2.64 5.56 7.92 5.56z m18.58-28.95h-32.63c-5.28 0-7.92 2.64-7.92 7.92v70.54c0 5.28 1.85 7.92 5.56 7.92 3.71 0 5.56-2.64 5.56-7.92v-65.73c0-0.31 0.16-0.47 0.47-0.47h25.08c0.31 0 0.47 0.16 0.47 0.47v59.98c0 1.2-0.28 1.79-0.85 1.79h-1.32c-4.72-0.13-7.11 1.86-7.17 5.94 0 4.09 2.64 6.13 7.92 6.13 2.95 0 4.62-0.09 5-0.28 2.32-1.38 3.88-2.33 4.67-2.83s1.49-1.64 2.12-3.4c0.63-1.76 0.94-4.15 0.94-7.17v-64.98c0.02-5.27-2.62-7.91-7.9-7.91z m-18.48 45.45c0-0.31 0.16-0.47 0.47-0.47h2.92c0.31 0 0.47 0.16 0.47 0.47v4.15h8.11v-6.98c0-5.28-2.64-7.92-7.92-7.92h-3.87c-5.28 0-7.92 2.64-7.92 7.92v6.98h7.73v-4.15z m0 4.15h-7.73v6.98c0 5.28 2.64 7.92 7.92 7.92h3.87c5.28 0 7.92-2.64 7.92-7.92v-6.98h-8.11v4.15c0 0.31-0.16 0.47-0.47 0.47h-2.92c-0.32 0-0.47-0.16-0.47-0.47v-4.15z" fill="#C46C4E" p-id="2652"></path><path d="M564.29 735.06c-2.36 0-4.61-1.38-5.61-3.69a45.03 45.03 0 0 0-2.17-4.34 6.121 6.121 0 0 1 2.28-8.34c2.93-1.67 6.67-0.65 8.34 2.28 1.02 1.79 1.95 3.66 2.77 5.54 1.34 3.1-0.08 6.7-3.18 8.04-0.8 0.35-1.62 0.51-2.43 0.51z" fill="#FFFFFF" opacity=".8" p-id="2653"></path><path d="M553.38 719.1c-1.56 0-3.11-0.59-4.31-1.78a44.918 44.918 0 0 0-13.32-9.14c-3.08-1.38-4.46-4.99-3.08-8.08s4.99-4.47 8.08-3.08a57.012 57.012 0 0 1 16.94 11.62c2.39 2.38 2.41 6.25 0.03 8.64a6.024 6.024 0 0 1-4.34 1.82z" fill="#FFFFFF" opacity=".8" p-id="2654"></path></svg>