<?xml version="1.0" standalone="no"?><!DOCTYPE svg PUBLIC "-//W3C//DTD SVG 1.1//EN" "http://www.w3.org/Graphics/SVG/1.1/DTD/svg11.dtd"><svg t="1754793117433" class="icon" viewBox="0 0 1024 1024" version="1.1" xmlns="http://www.w3.org/2000/svg" p-id="2631" xmlns:xlink="http://www.w3.org/1999/xlink" width="200" height="200"><path d="M369.47 444.79v388.07l-94.39-54.47V499.26zM758.58 499.26v279.13l-94.34 54.47V444.79z" fill="#58589A" p-id="2632"></path><path d="M664.24 444.79v388.07l-147.39 85.1-147.38-85.1V444.79l147.38-85.1z" fill="#7078B7" p-id="2633"></path><path d="M790.76 299.12L516.84 140.97 242.92 299.12v33.62l547.84 260.39z" fill="#8585BF" p-id="2634"></path><path d="M242.92 332.74v282.68l273.92 158.14 273.92-158.14v-22.29z" fill="#706EA2" p-id="2635"></path><path d="M790.76 299.11v117.67c-37.67 27.56-84.19 43.8-134.43 43.8-126 0-228.16-102.16-228.16-228.16 0-14.56 1.34-28.77 3.97-42.55l84.71-48.9 273.91 158.14z" fill="#C4C1DF" opacity=".43" p-id="2636"></path><path d="M777.21 592.75a32.117 32.117 0 0 1-11.48 11.65L532.59 742.44c-5.68 3.36-12.15 4.78-18.52 4.35v42.74c7.28 0.49 14.66-1.12 21.15-4.97l266.18-157.6c5.47-3.24 9.88-7.8 12.98-13.11l-37.17-21.1z" fill="#AAA9CE" p-id="2637"></path><path d="M527.62 147.69l235.14 131.56a32.15 32.15 0 0 1 16.45 27.78l2.29 269.44c0.05 5.81-1.49 11.41-4.29 16.28l37.18 21.1c3.27-5.61 5.08-12.06 5.02-18.78l-2.61-307.63a36.677 36.677 0 0 0-18.78-31.71L529.54 105.51c-4.83-2.7-10.12-4.16-15.47-4.52v42.74c4.68 0.32 9.31 1.59 13.55 3.96z" fill="#CBC8E3" p-id="2638"></path><path d="M262.41 286.12l233.14-138.04c5.68-3.36 12.15-4.78 18.52-4.35v-42.74c-7.28-0.49-14.66 1.12-21.15 4.97l-266.18 157.6c-4.52 2.68-8.29 6.27-11.23 10.42l37.18 21.1c2.55-3.57 5.82-6.65 9.72-8.96z" fill="#C4C1DF" p-id="2639"></path><path d="M500.53 742.83L265.38 611.26a32.15 32.15 0 0 1-16.45-27.78l-2.29-269.44c-0.06-6.92 2.14-13.52 6.04-18.97l-37.18-21.1c-4.37 6.18-6.84 13.64-6.77 21.47l2.61 307.63a36.677 36.677 0 0 0 18.78 31.71L498.6 785.01c4.83 2.7 10.12 4.16 15.47 4.52v-42.74c-4.68-0.32-9.31-1.59-13.54-3.96z" fill="#615B90" p-id="2640"></path><path d="M280.94 297.84l215.97-127.88c5.26-3.12 11.25-4.42 17.16-4.03v-22.2c-6.37-0.43-12.84 0.98-18.52 4.35L262.41 286.12c-3.9 2.31-7.17 5.39-9.72 8.96L272 306.04c2.35-3.27 5.36-6.08 8.94-8.2z" fill="#8B87A9" p-id="2641"></path><path d="M501.52 720.92L283.69 599.04a29.796 29.796 0 0 1-15.24-25.73l-2.12-249.6c-0.05-6.45 2-12.61 5.66-17.67l-19.31-10.96c-3.9 5.45-6.1 12.05-6.04 18.97l2.29 269.44c0.1 11.54 6.38 22.14 16.45 27.78l235.14 131.56c4.23 2.37 8.86 3.64 13.55 3.96v-22.2c-4.34-0.29-8.63-1.48-12.55-3.67z" fill="#D0D0E8" p-id="2642"></path><path d="M779.21 307.03a32.163 32.163 0 0 0-16.45-27.78L527.62 147.69c-4.23-2.37-8.87-3.64-13.55-3.96v22.2c4.34 0.29 8.63 1.47 12.55 3.66l217.83 121.88a29.775 29.775 0 0 1 15.24 25.73l2.12 249.6a29.67 29.67 0 0 1-3.91 14.98l19.31 10.96c2.8-4.87 4.34-10.47 4.29-16.28l-2.29-269.43z" fill="#615B90" p-id="2643"></path><path d="M747.2 592.68L531.23 720.56c-5.27 3.12-11.25 4.42-17.16 4.03v22.2c6.37 0.43 12.84-0.98 18.52-4.35L765.73 604.4c4.85-2.87 8.76-6.92 11.48-11.65l-19.31-10.96a29.703 29.703 0 0 1-10.7 10.89z" fill="#9796B8" p-id="2644"></path><path d="M516.84 664.58c42.45 0 76.86 34.41 76.86 76.86 0 21.23-8.6 40.44-22.51 54.35l10.64 10.64c16.63-16.63 26.92-39.61 26.92-64.99 0-50.76-41.15-91.91-91.91-91.91-25.38 0-48.36 10.29-64.99 26.92l10.64 10.64c13.91-13.91 33.12-22.51 54.35-22.51z" fill="#D1D0E8" p-id="2645"></path><path d="M571.19 795.79c-13.91 13.91-33.13 22.51-54.35 22.51-42.45 0-76.86-34.41-76.86-76.86 0-21.23 8.6-40.44 22.51-54.35l-10.64-10.64c-16.63 16.63-26.92 39.61-26.92 64.99 0 50.76 41.15 91.91 91.91 91.91 25.38 0 48.36-10.29 64.99-26.92l-10.64-10.64z" fill="#8481AA" p-id="2646"></path><path d="M516.84 807.91c-36.71 0-66.47-29.76-66.47-66.47 0-18.35 7.44-34.97 19.47-47l-7.35-7.35c-13.91 13.91-22.51 33.13-22.51 54.35 0 42.45 34.41 76.86 76.86 76.86 21.23 0 40.44-8.6 54.35-22.51l-7.35-7.35c-12.03 12.03-28.65 19.47-47 19.47z" fill="#D1D0E8" p-id="2647"></path><path d="M516.84 664.58c-21.23 0-40.44 8.6-54.35 22.51l7.35 7.35c12.03-12.03 28.65-19.47 47-19.47 36.71 0 66.47 29.76 66.47 66.47 0 18.35-7.44 34.97-19.47 47l7.35 7.35c13.91-13.91 22.51-33.13 22.51-54.35 0-42.45-34.41-76.86-76.86-76.86z" fill="#615B90" p-id="2648"></path><path d="M583.31 741.44c0-36.71-29.76-66.47-66.47-66.47-18.49 0-35.2 7.56-47.25 19.74l94.18 93.79c12.07-12.03 19.54-28.67 19.54-47.06z" fill="#8183BE" p-id="2649"></path><path d="M469.59 694.71c-11.88 12.01-19.22 28.51-19.22 46.73 0 36.71 29.76 66.47 66.47 66.47 18.32 0 34.91-7.42 46.93-19.41l-94.18-93.79z" fill="#9D9ECD" p-id="2650"></path><path d="M489.41 786.56c-4.76 2.42-8.35 1.88-10.77-1.61-1.36-2.04-1.1-6.79 0.08-7.29 2.2-1.4 2.03-2.81 2.03-6.5v-13.49c0-0.34-0.17-0.5-0.5-0.5h-2.32c-5.64 0-8.45-2.18-8.45-6.54 0-4.29 2.82-6.44 8.45-6.44h2.32c0.34 0 0.5-0.17 0.5-0.5v-6.75c0-0.34-0.17-0.5-0.5-0.5-2.89 0-4.33-2.38-4.33-7.15 0-0.34-0.13-0.37-0.4-0.1-0.74 0.74-2.82-0.7-6.24-4.33-3.49-3.62-3.12-7.35 1.11-11.17 3.36-2.95 5.7-6.37 7.05-10.27 1.88-5.37 4.9-7.28 9.06-5.74s5.74 3.56 4.73 6.04c-0.14 0.34-0.03 0.5 0.3 0.5h4.53c5.64 0 8.46 2.32 8.46 6.95s-2.82 6.94-8.46 6.94h-10.27c-1.28 0-2.28 0.54-3.02 1.61l-2.21 3.32c-0.2 0.27-0.13 0.4 0.2 0.4h15c5.64 0 8.45 2.15 8.45 6.44 0 4.36-2.82 6.54-8.45 6.54h-0.6c-0.34 0-0.5 0.17-0.5 0.5v6.75c0 0.34 0.17 0.5 0.5 0.5h2.62c5.64 0 8.46 2.15 8.46 6.44 0 4.36-2.82 6.54-8.46 6.54h-2.62c-0.34 0-0.5 0.17-0.5 0.5v11.47c0 0.34 0.17 0.44 0.5 0.3l0.3-0.2c5.17-2.21 8.59-1.44 10.27 2.31 1.74 3.76 0.13 6.88-4.83 9.36l-11.49 5.67z m22.95 4.02c-0.6 0.4-2.05-1.21-4.33-4.83-2.35-3.62-2.58-6.02-0.7-7.2 1.88-1.17 2.82-3.87 2.82-8.1v-62.8c0-5.64 2.82-8.46 8.46-8.46h28.58c5.64 0 8.46 2.82 8.46 8.46v30.7c0 5.64-2.82 8.46-8.46 8.46h-7.35c-0.34 0-0.47 0.17-0.4 0.5 0.94 3.15 1.88 5.8 2.82 7.95 0.13 0.34 0.34 0.4 0.6 0.2 3.22-2.89 5.35-4.95 6.39-6.19 1.04-1.24 3.13-0.25 6.29 2.97 3.09 3.22 2.35 6.61-2.21 10.17l-4.53 3.52c-0.34 0.27-0.37 0.57-0.1 0.9 3.29 4.77 6.12 7.77 8.51 9.01 1.18 1.01 2.73 4.64 0.26 8.71-2.55 4.49-6.75 5.03-11.58 2.01-2.01-1.21-4.18-4.01-6.49-8.41-2.32-4.39-4.33-8.35-6.04-11.88-1.71-3.52-3.54-9.68-5.49-18.47-0.14-0.67-0.54-1.01-1.21-1.01h-1.71c-0.34 0-0.5 0.17-0.5 0.5v24.76c0 0.34 0.17 0.47 0.5 0.4l2.32-0.5c5.5-1.07 8.76 0.5 9.76 4.73 0.94 4.23-1.27 7.08-6.64 8.55l-8.55 2.21c-2.62 0.67-5.23 1.44-7.85 2.32-0.49 0.15-1.03 0.42-1.63 0.82z m12.08-74.08c0 0.34 0.17 0.5 0.5 0.5h16.91c0.34 0 0.5-0.17 0.5-0.5v-4.33c0-0.34-0.17-0.5-0.5-0.5h-16.91c-0.34 0-0.5 0.17-0.5 0.5v4.33z m0 17.31c0 0.34 0.17 0.5 0.5 0.5h16.91c0.34 0 0.5-0.17 0.5-0.5v-4.63c0-0.34-0.17-0.5-0.5-0.5h-16.91c-0.34 0-0.5 0.17-0.5 0.5v4.63z" fill="#615B90" p-id="2651"></path><path d="M491.86 785.33c-4.76 2.41-8.35 1.88-10.77-1.61-1.36-2.04-1.1-6.79 0.08-7.29 2.2-1.4 2.03-2.81 2.03-6.5v-13.49c0-0.34-0.17-0.5-0.5-0.5h-2.32c-5.64 0-8.45-2.18-8.45-6.54 0-4.29 2.82-6.44 8.45-6.44h2.32c0.34 0 0.5-0.17 0.5-0.5v-6.75c0-0.34-0.17-0.5-0.5-0.5-2.89 0-4.33-2.38-4.33-7.15 0-0.34-0.13-0.37-0.4-0.1-0.74 0.74-2.82-0.7-6.24-4.33-3.49-3.62-3.12-7.35 1.11-11.17 3.36-2.95 5.7-6.37 7.05-10.27 1.88-5.37 4.9-7.28 9.06-5.74s5.74 3.56 4.73 6.04c-0.13 0.34-0.03 0.5 0.3 0.5h4.53c5.64 0 8.46 2.32 8.46 6.95s-2.82 6.94-8.46 6.94h-10.27c-1.28 0-2.28 0.54-3.02 1.61l-2.21 3.32c-0.2 0.27-0.14 0.4 0.2 0.4h15c5.64 0 8.45 2.15 8.45 6.44 0 4.36-2.82 6.54-8.45 6.54h-0.6c-0.34 0-0.5 0.17-0.5 0.5v6.75c0 0.34 0.17 0.5 0.5 0.5h2.62c5.64 0 8.46 2.15 8.46 6.44 0 4.36-2.82 6.54-8.46 6.54h-2.62c-0.34 0-0.5 0.17-0.5 0.5v11.47c0 0.34 0.17 0.44 0.5 0.3l0.3-0.2c5.17-2.21 8.59-1.44 10.27 2.31 1.74 3.76 0.13 6.88-4.83 9.36l-11.49 5.67z m22.95 4.03c-0.6 0.4-2.05-1.21-4.33-4.83-2.35-3.62-2.58-6.02-0.7-7.2 1.88-1.17 2.82-3.87 2.82-8.1v-62.8c0-5.64 2.82-8.46 8.46-8.46h28.58c5.64 0 8.46 2.82 8.46 8.46v30.7c0 5.64-2.82 8.46-8.46 8.46h-7.35c-0.34 0-0.47 0.17-0.4 0.5 0.94 3.15 1.88 5.8 2.82 7.95 0.13 0.34 0.34 0.4 0.6 0.2 3.22-2.89 5.35-4.95 6.39-6.19 1.04-1.24 3.13-0.25 6.29 2.97 3.09 3.22 2.35 6.61-2.21 10.17l-4.53 3.52c-0.34 0.27-0.37 0.57-0.1 0.9 3.29 4.77 6.12 7.77 8.51 9.01 1.18 1.01 2.73 4.64 0.26 8.71-2.55 4.49-6.75 5.03-11.58 2.01-2.01-1.21-4.18-4.01-6.49-8.41-2.32-4.39-4.33-8.35-6.04-11.88-1.71-3.52-3.54-9.68-5.49-18.47-0.14-0.67-0.54-1.01-1.21-1.01h-1.71c-0.34 0-0.5 0.17-0.5 0.5v24.76c0 0.34 0.17 0.47 0.5 0.4l2.32-0.5c5.5-1.07 8.76 0.5 9.76 4.73 0.94 4.23-1.27 7.08-6.64 8.55l-8.55 2.21c-2.62 0.67-5.23 1.44-7.85 2.32-0.49 0.14-1.03 0.41-1.63 0.82z m12.08-74.08c0 0.34 0.17 0.5 0.5 0.5h16.91c0.34 0 0.5-0.17 0.5-0.5v-4.33c0-0.34-0.17-0.5-0.5-0.5h-16.91c-0.34 0-0.5 0.17-0.5 0.5v4.33z m0 17.31c0 0.34 0.17 0.5 0.5 0.5h16.91c0.34 0 0.5-0.17 0.5-0.5v-4.63c0-0.34-0.17-0.5-0.5-0.5h-16.91c-0.34 0-0.5 0.17-0.5 0.5v4.63z" fill="#7078B7" p-id="2652"></path><path d="M566.45 725.72c-2.37 0-4.62-1.38-5.62-3.69-0.64-1.48-1.37-2.94-2.17-4.35-1.67-2.94-0.65-6.68 2.29-8.35 2.93-1.67 6.68-0.65 8.35 2.29 1.03 1.8 1.96 3.67 2.77 5.55 1.34 3.1-0.08 6.71-3.19 8.05-0.79 0.34-1.62 0.5-2.43 0.5z" fill="#FFFFFF" opacity=".6" p-id="2653"></path><path d="M555.52 709.74a6.07 6.07 0 0 1-4.31-1.78 45.072 45.072 0 0 0-13.34-9.16 6.12 6.12 0 0 1-3.09-8.09c1.38-3.09 5-4.48 8.09-3.09a57.224 57.224 0 0 1 16.96 11.64c2.4 2.38 2.42 6.26 0.03 8.66a6.024 6.024 0 0 1-4.34 1.82z" fill="#FFFFFF" opacity=".6" p-id="2654"></path><path d="M502.05 432.72l48.91-48.22-48.36-98.91-0.55 147.13zM659.86 400.73l-108.9-16.23-48.91 48.22zM502.6 285.59l-49.09 98.55 48.54 48.58zM502.05 432.72l-0.37 101.56 97.26 51.6-0.01-0.06-96.88-153.1zM404.04 585.16l97.64-50.88 0.37-101.56zM598.94 585.82l-95.22-150.48-1.66-2.61h0.11l63.36 35.91 15.45 8.37-0.26 0.27z" fill="#47446A" p-id="2655"></path><path d="M502.05 432.72l-48.54-48.58-109.02 15.43 157.56 33.15zM502.05 432.72l-79 43.99-19.01 108.45 98.01-152.44z" fill="#47446A" p-id="2656"></path><path d="M502.05 432.72l-157.56-33.15 78.56 77.14 79-43.99zM659.85 400.76l-78.87 76.25-15.45-8.37-63.36-35.91z" fill="#47446A" p-id="2657"></path><path d="M506.95 430.28l48.91-48.23-48.37-98.91-0.54 147.14z" fill="#9D9ECD" p-id="2658"></path><path d="M664.75 398.28l-108.89-16.23-48.91 48.23z" fill="#8D8EC4" p-id="2659"></path><path d="M507.49 283.14l-49.09 98.55 48.55 48.59z" fill="#615B90" p-id="2660"></path><path d="M506.95 430.28l-0.37 101.55 97.26 51.6-0.01-0.06-96.88-153.09z" fill="#706EA2" p-id="2661"></path><path d="M408.94 582.71l97.64-50.88 0.37-101.55z" fill="#615B90" p-id="2662"></path><path d="M603.84 583.37l-95.23-150.48-1.65-2.61h0.11l63.36 35.92 15.45 8.36-0.27 0.27zM506.95 430.28l-48.55-48.59-109.01 15.43 157.56 33.16zM506.95 430.28l-79 43.98-19.01 108.45 98.01-152.43z" fill="#8585BF" p-id="2663"></path><path d="M506.95 430.28l-157.56-33.16 78.56 77.14 79-43.98z" fill="#615B90" p-id="2664"></path><path d="M664.75 398.31l-78.87 76.25-15.45-8.36-63.36-35.92z" fill="#706EA2" p-id="2665"></path><path d="M141.22 314.67v132.51c0 44.82 28.03 83.06 67.51 98.23V314.67h-67.51z" fill="#6D6DA5" p-id="2666"></path><path d="M141.22 314.67v132.51c0 12.83 2.36 25.09 6.57 36.46l44.6-168.96h-51.17z" fill="#C9C6E0" p-id="2667"></path><path d="M884.47 314.67v132.51c0 44.82-28.03 83.06-67.51 98.23V314.67h67.51z" fill="#6D6DA5" p-id="2668"></path><path d="M884.47 314.67v132.51c0 12.83-2.36 25.09-6.57 36.46l-44.6-168.96h51.17z" fill="#C9C6E0" p-id="2669"></path></svg>