<?xml version="1.0" standalone="no"?><!DOCTYPE svg PUBLIC "-//W3C//DTD SVG 1.1//EN" "http://www.w3.org/Graphics/SVG/1.1/DTD/svg11.dtd"><svg t="1754793126028" class="icon" viewBox="0 0 1024 1024" version="1.1" xmlns="http://www.w3.org/2000/svg" p-id="2822" xmlns:xlink="http://www.w3.org/1999/xlink" width="200" height="200"><path d="M737.43 525.17v257.58l-54 50.26v-358.1zM286.9 525.17v257.58l54 50.26v-358.1z" fill="#EFD26F" p-id="2823"></path><path d="M650.37 474.91v358.1l-136 78.52-136-78.52v-358.1l136-78.53z" fill="#D1B465" p-id="2824"></path><path d="M767.13 340.48L514.36 194.55 261.59 340.48v31.03l505.54 240.28z" fill="#F2DD81" p-id="2825"></path><path d="M261.59 371.51v260.85l252.77 145.93 252.77-145.93v-20.57z" fill="#F0BB5A" p-id="2826"></path><path d="M767.12 340.48v108.58c-34.76 25.43-77.69 40.42-124.04 40.42-116.27 0-210.54-94.27-210.54-210.54 0-13.43 1.24-26.55 3.67-39.26l78.17-45.12 252.74 145.92z" fill="#F7D386" p-id="2827"></path><path d="M754.62 611.44c-2.51 4.36-6.11 8.1-10.59 10.75L528.9 749.57c-5.24 3.11-11.21 4.41-17.09 4.01v39.44c6.72 0.45 13.53-1.04 19.52-4.58L776.96 643c5.05-2.99 9.12-7.19 11.98-12.1l-34.32-19.46z" fill="#F5C754" p-id="2828"></path><path d="M524.3 200.75l216.99 121.4a29.665 29.665 0 0 1 15.18 25.63l2.11 248.63c0.05 5.36-1.37 10.53-3.96 15.02l34.31 19.47c3.02-5.18 4.68-11.13 4.63-17.33l-2.41-283.88a33.87 33.87 0 0 0-17.33-29.27l-247.74-138.6c-4.46-2.49-9.34-3.84-14.27-4.17v39.44c4.31 0.3 8.59 1.47 12.49 3.66z" fill="#F2DD81" p-id="2829"></path><path d="M279.58 328.49l215.13-127.38c5.24-3.11 11.21-4.41 17.09-4.01v-39.44c-6.72-0.45-13.53 1.04-19.52 4.58L246.66 307.67c-4.17 2.47-7.65 5.79-10.36 9.62l34.31 19.47c2.35-3.29 5.37-6.14 8.97-8.27z" fill="#F5C754" p-id="2830"></path><path d="M499.3 749.93l-216.99-121.4a29.665 29.665 0 0 1-15.18-25.63l-2.11-248.63c-0.05-6.39 1.98-12.48 5.57-17.5l-34.31-19.47c-4.03 5.7-6.31 12.59-6.25 19.81l2.41 283.88a33.87 33.87 0 0 0 17.33 29.27l247.75 138.61c4.46 2.49 9.34 3.84 14.27 4.17V753.6c-4.31-0.31-8.58-1.48-12.49-3.67z" fill="#D89D31" p-id="2831"></path><path d="M296.68 339.3l199.29-118c4.86-2.88 10.39-4.08 15.83-3.72V197.1c-5.88-0.39-11.85 0.91-17.09 4.01L279.58 328.49c-3.6 2.13-6.62 4.98-8.97 8.27l17.82 10.11c2.17-3.01 4.94-5.61 8.25-7.57z" fill="#F0CD66" p-id="2832"></path><path d="M500.22 729.72L299.21 617.25a27.47 27.47 0 0 1-14.06-23.74l-1.95-230.33c-0.05-5.95 1.85-11.63 5.22-16.31l-17.82-10.11c-3.6 5.03-5.63 11.12-5.57 17.5l2.11 248.63a29.645 29.645 0 0 0 15.18 25.63l216.99 121.4c3.91 2.18 8.18 3.36 12.5 3.65V733.1c-4.01-0.27-7.97-1.36-11.59-3.38z" fill="#EDA83C" p-id="2833"></path><path d="M756.47 347.78a29.645 29.645 0 0 0-15.18-25.63L524.3 200.75c-3.91-2.18-8.18-3.36-12.5-3.65v20.48c4 0.27 7.96 1.36 11.58 3.38L724.4 333.43a27.47 27.47 0 0 1 14.06 23.74l1.95 230.33c0.04 4.93-1.25 9.68-3.61 13.83l17.82 10.11c2.58-4.5 4-9.66 3.96-15.02l-2.11-248.64z" fill="#D89D31" p-id="2834"></path><path d="M726.93 611.38l-199.29 118c-4.86 2.88-10.39 4.08-15.83 3.72v20.48c5.88 0.39 11.85-0.91 17.09-4.01l215.13-127.38c4.48-2.65 8.08-6.39 10.59-10.75l-17.82-10.11a27.473 27.473 0 0 1-9.87 10.05z" fill="#EFD26F" p-id="2835"></path><path d="M514.36 677.72c39.17 0 70.93 31.76 70.93 70.93 0 19.59-7.94 37.32-20.77 50.15l9.82 9.82c15.35-15.35 24.84-36.55 24.84-59.97 0-46.84-37.97-84.81-84.81-84.81-23.42 0-44.62 9.49-59.97 24.84l9.82 9.82c12.82-12.84 30.55-20.78 50.14-20.78z" fill="#EFD26F" p-id="2836"></path><path d="M564.51 798.81c-12.84 12.84-30.57 20.77-50.15 20.77-39.17 0-70.93-31.76-70.93-70.93 0-19.59 7.94-37.32 20.77-50.15l-9.82-9.82c-15.35 15.35-24.84 36.55-24.84 59.97 0 46.84 37.97 84.81 84.81 84.81 23.42 0 44.62-9.49 59.97-24.84l-9.81-9.81z" fill="#F5C754" p-id="2837"></path><path d="M514.36 809.99c-33.87 0-61.33-27.46-61.33-61.33 0-16.94 6.86-32.27 17.96-43.37l-6.78-6.78c-12.84 12.84-20.77 30.57-20.77 50.15 0 39.17 31.76 70.93 70.93 70.93 19.59 0 37.32-7.94 50.15-20.77l-6.78-6.78c-11.11 11.08-26.45 17.95-43.38 17.95z" fill="#EFD26F" p-id="2838"></path><path d="M514.36 677.72c-19.59 0-37.32 7.94-50.15 20.77l6.78 6.78c11.1-11.1 26.43-17.96 43.37-17.96 33.87 0 61.33 27.46 61.33 61.33 0 16.94-6.87 32.27-17.96 43.37l6.78 6.78c12.84-12.84 20.77-30.57 20.77-50.15 0.01-39.16-31.75-70.92-70.92-70.92z" fill="#D89D31" p-id="2839"></path><path d="M575.69 748.65c0-33.87-27.46-61.33-61.33-61.33-17.06 0-32.48 6.97-43.6 18.21l86.91 86.55c11.13-11.11 18.02-26.46 18.02-43.43z" fill="#F5C754" p-id="2840"></path><path d="M470.76 705.53c-10.96 11.08-17.74 26.3-17.74 43.12 0 33.87 27.46 61.33 61.33 61.33 16.91 0 32.22-6.84 43.31-17.91l-86.9-86.54z" fill="#F2DD81" p-id="2841"></path><path d="M479.29 788.98c-5.29 0-7.93-2.08-7.93-6.23s2.64-6.23 7.93-6.23h25.2c0.31 0 0.47-0.16 0.47-0.47v-14.82c0-0.31-0.16-0.47-0.47-0.47H484.1c-5.29 0-7.93-2.04-7.93-6.14 0-4.09 2.64-6.14 7.93-6.14h20.39c0.31 0 0.47-0.16 0.47-0.47v-7.17c0-0.31-0.16-0.47-0.47-0.47h-10.1c-5.29 0-7.93-1.29-7.93-3.87 0-0.31-0.16-0.41-0.47-0.28l-4.72 1.79c-5.04 1.95-8.27 0.57-9.72-4.15-1.45-4.78 0.41-7.87 5.57-9.25 14.16-3.78 22.64-7.95 28.31-16.76 2.06-2.79 3.39-5.65 7.38-5.61 4.73 0.04 6.01 5.24 8.68 7.74 3.94 3.7 9.64 6.8 16.47 10.01 6.83 3.21 11.52 5.15 14.06 5.8 2.55 0.66 3.16 3.26 1.84 7.79-1.38 4.53-4.59 5.92-9.63 4.15-0.76-0.25-2.71-1.13-5.85-2.64-0.32-0.13-0.47-0.03-0.47 0.28 0 3.34-2.64 5-7.93 5h-9.72c-0.31 0-0.47 0.16-0.47 0.47v7.17c0 0.31 0.16 0.47 0.47 0.47h20.29c5.29 0 7.93 2.05 7.93 6.14s-2.64 6.14-7.93 6.14h-20.29c-0.31 0-0.47 0.16-0.47 0.47v14.82c0 0.32 0.16 0.47 0.47 0.47h25.67c5.29 0 7.93 2.08 7.93 6.23s-2.64 6.23-7.93 6.23h-66.64z m8.4-28.51c3.78-1.64 6.7-0.03 8.78 4.81l0.57 1.32c2.08 4.85 1.19 8.09-2.64 9.72-3.9 1.57-6.86-0.09-8.87-5l-0.57-1.13c-2.02-4.9-1.11-8.14 2.73-9.72z m14.16-32.94c-0.25 0.19-0.22 0.28 0.09 0.28h22.84c0.31 0 0.35-0.09 0.09-0.28a94.247 94.247 0 0 1-11.42-8.4c-0.38-0.31-0.72-0.31-1.04 0-2.95 2.83-6.47 5.63-10.56 8.4z m35.96 45.4c-2.83 4.53-5.95 5.66-9.34 3.4-3.46-2.2-4.06-5.6-1.79-10.19l0.66-1.23c2.39-4.85 5.57-6.1 9.53-3.78 4.03 2.33 4.66 5.76 1.89 10.29l-0.95 1.51z" fill="#976A29" p-id="2842"></path><path d="M482.42 786.63c-5.29 0-7.93-2.08-7.93-6.23s2.64-6.23 7.93-6.23h25.2c0.31 0 0.47-0.16 0.47-0.47v-14.82c0-0.31-0.16-0.47-0.47-0.47h-20.39c-5.29 0-7.93-2.04-7.93-6.14 0-4.09 2.64-6.14 7.93-6.14h20.39c0.31 0 0.47-0.16 0.47-0.47v-7.17c0-0.31-0.16-0.47-0.47-0.47h-10.1c-5.29 0-7.93-1.29-7.93-3.87 0-0.31-0.16-0.41-0.47-0.28l-4.72 1.79c-5.04 1.95-8.27 0.57-9.72-4.15-1.45-4.78 0.41-7.87 5.57-9.25 14.16-3.78 22.64-7.95 28.31-16.76 2.06-2.79 3.39-5.65 7.38-5.61 4.73 0.04 6.01 5.24 8.68 7.74 3.94 3.7 9.64 6.8 16.47 10.01 6.83 3.21 11.52 5.15 14.06 5.8 2.55 0.66 3.16 3.26 1.84 7.79-1.38 4.53-4.59 5.92-9.63 4.15-0.76-0.25-2.71-1.13-5.85-2.64-0.32-0.13-0.47-0.03-0.47 0.28 0 3.34-2.64 5-7.93 5h-9.72c-0.31 0-0.47 0.16-0.47 0.47v7.17c0 0.31 0.16 0.47 0.47 0.47h20.29c5.29 0 7.93 2.05 7.93 6.14s-2.64 6.14-7.93 6.14h-20.29c-0.31 0-0.47 0.16-0.47 0.47v14.82c0 0.32 0.16 0.47 0.47 0.47h25.67c5.29 0 7.93 2.08 7.93 6.23s-2.64 6.23-7.93 6.23h-66.64z m8.4-28.51c3.78-1.64 6.7-0.03 8.78 4.81l0.57 1.32c2.08 4.85 1.19 8.09-2.64 9.72-3.9 1.57-6.86-0.09-8.87-5l-0.57-1.13c-2.02-4.9-1.1-8.14 2.73-9.72z m14.16-32.94c-0.25 0.19-0.22 0.28 0.09 0.28h22.84c0.31 0 0.35-0.09 0.09-0.28a94.247 94.247 0 0 1-11.42-8.4c-0.38-0.31-0.72-0.31-1.04 0-2.94 2.83-6.47 5.63-10.56 8.4z m35.96 45.4c-2.83 4.53-5.95 5.66-9.34 3.4-3.46-2.2-4.06-5.6-1.79-10.19l0.66-1.23c2.39-4.85 5.57-6.1 9.53-3.78 4.03 2.33 4.66 5.76 1.89 10.29l-0.95 1.51z" fill="#EDA83C" p-id="2843"></path><path d="M560.14 734.15c-2.18 0-4.26-1.27-5.19-3.41-0.59-1.36-1.27-2.71-2.01-4.02-1.55-2.71-0.6-6.16 2.11-7.71 2.71-1.55 6.16-0.6 7.71 2.11 0.95 1.66 1.81 3.38 2.56 5.12a5.654 5.654 0 0 1-2.94 7.43c-0.73 0.33-1.49 0.48-2.24 0.48z" fill="#FFFFFF" opacity=".6" p-id="2844"></path><path d="M550.06 719.4c-1.44 0-2.88-0.55-3.98-1.64-3.58-3.55-7.72-6.4-12.31-8.45-2.85-1.27-4.12-4.62-2.85-7.46 1.27-2.85 4.61-4.13 7.46-2.85 5.83 2.61 11.1 6.22 15.65 10.74a5.652 5.652 0 0 1-3.97 9.66z" fill="#FFFFFF" opacity=".6" p-id="2845"></path><path d="M435.66 621.4c82.11 38.37 180.12 2.79 218.49-79.31l-297.8-139.18c-38.37 82.11-2.79 180.12 79.31 218.49z" fill="#F7D386" p-id="2846"></path><path d="M574.84 323.6c-82.1-38.37-180.12-2.79-218.49 79.31l297.8 139.18c38.37-82.11 2.79-180.12-79.31-218.49z" fill="#F0BB5A" p-id="2847"></path><path d="M661.92 545.49c-40.31 86.53-143.13 123.99-229.65 83.68-86.53-40.31-123.99-143.13-83.68-229.65l-7.68-3.58c-42.22 90.62-2.84 198.69 87.78 240.91s198.7 2.84 240.91-87.78l-7.68-3.58z" fill="#D1A43F" p-id="2848"></path><path d="M578.24 315.83c86.53 40.31 123.99 143.13 83.68 229.65l7.68 3.58c42.22-90.62 2.84-198.7-87.78-240.91s-198.69-2.84-240.91 87.78l7.68 3.58c40.3-86.52 143.12-123.99 229.65-83.68z" fill="#EABD59" p-id="2849"></path><path d="M654.23 541.91c-38.27 82.15-136.24 117.85-218.39 79.58-82.15-38.27-117.85-136.24-79.58-218.39l-7.68-3.58c-40.31 86.53-2.84 189.34 83.68 229.65 86.53 40.31 189.34 2.84 229.65-83.68l-7.68-3.58z" fill="#EFD372" p-id="2850"></path><path d="M578.24 315.83c-86.53-40.31-189.34-2.84-229.65 83.68l7.68 3.58c38.27-82.15 136.24-117.85 218.39-79.58 82.15 38.27 117.85 136.24 79.58 218.39l7.68 3.58c40.31-86.52 2.84-189.34-83.68-229.65z" fill="#D1A43F" p-id="2851"></path><path d="M500.71 463.77l45.13-44.5L501.21 328l-0.5 135.77zM646.33 434.25l-100.49-14.98-45.13 44.5z" fill="#BD8630" p-id="2852"></path><path d="M501.21 328l-45.29 90.94 44.79 44.83zM500.71 463.77l-0.34 93.72 89.75 47.61-0.01-0.06-89.4-141.27z" fill="#BD8630" p-id="2853"></path><path d="M410.27 604.44l90.1-46.95 0.34-93.72zM590.12 605.05l-87.87-138.86-1.53-2.41h0.1l58.47 33.14 14.26 7.72-0.25 0.25zM500.71 463.77l-44.79-44.83-100.6 14.24 145.39 30.59zM500.71 463.77l-72.9 40.59-17.54 100.08 90.44-140.67z" fill="#BD8630" p-id="2854"></path><path d="M500.71 463.77l-145.39-30.59 72.49 71.18 72.9-40.59zM646.32 434.27l-72.77 70.37-14.26-7.72-58.47-33.14z" fill="#BD8630" p-id="2855"></path><path d="M505.23 461.51l45.13-44.5-44.63-91.27-0.5 135.77z" fill="#F2DD81" p-id="2856"></path><path d="M650.85 431.99l-100.49-14.98-45.13 44.5z" fill="#F0BB5A" p-id="2857"></path><path d="M505.73 325.74l-45.29 90.94 44.79 44.83z" fill="#EDA83C" p-id="2858"></path><path d="M505.23 461.51l-0.34 93.72 89.75 47.61-0.01-0.06-89.4-141.27z" fill="#D89D31" p-id="2859"></path><path d="M414.79 602.18l90.1-46.95 0.34-93.72z" fill="#EDA83C" p-id="2860"></path><path d="M594.64 602.79l-87.87-138.86-1.53-2.41h0.1l58.47 33.14 14.26 7.72-0.25 0.25zM505.23 461.51l-44.79-44.83-100.6 14.24 145.39 30.59zM505.23 461.51l-72.9 40.59-17.54 100.08 90.44-140.67z" fill="#F0BB5A" p-id="2861"></path><path d="M505.23 461.51l-145.39-30.59 72.49 71.18 72.9-40.59z" fill="#EDA83C" p-id="2862"></path><path d="M650.84 432.01l-72.77 70.37-14.26-7.72-58.47-33.14z" fill="#D89D31" p-id="2863"></path><path d="M231.94 339.18H108.65s15.2 111.13 123.29 105.76c0.82-69.9 0-105.76 0-105.76z" fill="#F5C754" p-id="2864"></path><path d="M232.04 436.33h-91.78s34.04 78.41 91.78 105.76c0.61-69.9 0-105.76 0-105.76z" fill="#F7D386" p-id="2865"></path><path d="M791.64 339.18h123.29s-15.2 111.13-123.29 105.76c-0.81-69.9 0-105.76 0-105.76z" fill="#F5C754" p-id="2866"></path><path d="M791.55 436.33h91.78s-34.04 78.41-91.78 105.76c-0.61-69.9 0-105.76 0-105.76z" fill="#F7D386" p-id="2867"></path></svg>