<?xml version="1.0" standalone="no"?><!DOCTYPE svg PUBLIC "-//W3C//DTD SVG 1.1//EN" "http://www.w3.org/Graphics/SVG/1.1/DTD/svg11.dtd"><svg t="1754793129729" class="icon" viewBox="0 0 1024 1024" version="1.1" xmlns="http://www.w3.org/2000/svg" p-id="3020" xmlns:xlink="http://www.w3.org/1999/xlink" width="200" height="200"><path d="M197.42 370.75c43.24 26.87 100.08 13.6 126.96-29.64l-156.6-97.32c-26.87 43.25-13.6 100.09 29.64 126.96z" fill="#634C9C" p-id="3021"></path><path d="M166.89 241.76l-0.28 0.44 1.63 4.42 153.43 95.35c-12.79 19.76-32.38 33.55-55.37 38.91-16.61 3.88-33.58 3-49.35-2.32l1.49 4.05c8.79 2.68 17.9 4.09 27.1 4.09 7.16 0 14.38-0.82 21.52-2.49 24.42-5.7 45.16-20.57 58.4-41.88l0.9-1.45-159.47-99.12z" fill="#E1D5E8" p-id="3022"></path><path d="M197.98 369.61c-41.88-26.04-55.12-80.96-29.98-123.15l0.24 0.15-1.63-4.42-0.63 1c-27.33 43.97-13.79 101.98 30.19 129.31a94.242 94.242 0 0 0 22.28 10.09l-1.49-4.05a89.884 89.884 0 0 1-18.98-8.93z" fill="#B895C3" p-id="3023"></path><path d="M224.22 459.72c43.24 26.87 100.08 13.6 126.96-29.64l-156.6-97.32c-26.88 43.25-13.61 100.09 29.64 126.96z" fill="#9663A5" p-id="3024"></path><path d="M193.69 330.72l-0.28 0.44 1.63 4.42 153.43 95.35c-12.79 19.76-32.38 33.55-55.37 38.91-16.61 3.88-33.58 3-49.35-2.32l1.49 4.05c8.79 2.68 17.9 4.09 27.1 4.09 7.16 0 14.38-0.82 21.52-2.49 24.42-5.7 45.16-20.57 58.4-41.88l0.9-1.45-159.47-99.12z" fill="#E1D5E8" p-id="3025"></path><path d="M224.78 458.58c-41.88-26.04-55.12-80.96-29.98-123.15l0.24 0.15-1.63-4.42-0.63 1c-27.33 43.97-13.79 101.98 30.19 129.31a94.242 94.242 0 0 0 22.28 10.09l-1.49-4.05a90.38 90.38 0 0 1-18.98-8.93z" fill="#B895C3" p-id="3026"></path><path d="M257.06 550.59c43.24 26.87 100.08 13.6 126.96-29.64l-156.6-97.32c-26.87 43.24-13.6 100.08 29.64 126.96z" fill="#C6ABD0" p-id="3027"></path><path d="M226.87 421.28l-0.28 0.44 1.63 4.42 153.43 95.35c-12.79 19.76-32.38 33.55-55.37 38.91-16.61 3.88-33.58 3-49.35-2.32l1.49 4.05c8.79 2.68 17.9 4.09 27.1 4.09 7.16 0 14.38-0.82 21.52-2.49 24.42-5.7 45.16-20.57 58.4-41.88l0.9-1.45-159.47-99.12z" fill="#E1D5E8" p-id="3028"></path><path d="M257.96 549.14c-41.88-26.04-55.12-80.96-29.98-123.15l0.24 0.15-1.63-4.42-0.63 1c-27.33 43.97-13.79 101.98 30.19 129.31a94.242 94.242 0 0 0 22.28 10.09l-1.49-4.05a90.882 90.882 0 0 1-18.98-8.93z" fill="#B895C3" p-id="3029"></path><path d="M827.45 370.75c-43.24 26.87-100.08 13.6-126.96-29.64l156.6-97.32c26.87 43.25 13.6 100.09-29.64 126.96z" fill="#634C9C" p-id="3030"></path><path d="M857.97 241.76l0.28 0.44-1.63 4.42-153.43 95.35c12.79 19.76 32.38 33.55 55.37 38.91 16.61 3.88 33.58 3 49.35-2.32l-1.49 4.05c-8.79 2.68-17.9 4.09-27.1 4.09-7.16 0-14.38-0.82-21.52-2.49-24.42-5.7-45.16-20.57-58.4-41.88l-0.9-1.45 159.47-99.12z" fill="#E1D5E8" p-id="3031"></path><path d="M826.89 369.61c41.88-26.04 55.12-80.96 29.98-123.15l-0.24 0.15 1.63-4.42 0.63 1c27.33 43.97 13.79 101.98-30.19 129.31a94.242 94.242 0 0 1-22.28 10.09l1.49-4.05c6.57-2.2 12.94-5.17 18.98-8.93z" fill="#B895C3" p-id="3032"></path><path d="M800.65 459.72c-43.24 26.87-100.08 13.6-126.96-29.64l156.6-97.32c26.87 43.25 13.6 100.09-29.64 126.96z" fill="#9663A5" p-id="3033"></path><path d="M831.18 330.72l0.28 0.44-1.63 4.42-153.43 95.35c12.79 19.76 32.38 33.55 55.37 38.91 16.61 3.88 33.58 3 49.35-2.32l-1.49 4.05c-8.79 2.68-17.9 4.09-27.1 4.09-7.16 0-14.38-0.82-21.52-2.49-24.42-5.7-45.16-20.57-58.4-41.88l-0.9-1.45 159.47-99.12z" fill="#E1D5E8" p-id="3034"></path><path d="M800.09 458.58c41.88-26.04 55.12-80.96 29.98-123.15l-0.24 0.15 1.63-4.42 0.63 1c27.33 43.97 13.79 101.98-30.19 129.31a94.242 94.242 0 0 1-22.28 10.09l1.49-4.05a90.38 90.38 0 0 0 18.98-8.93z" fill="#B895C3" p-id="3035"></path><path d="M767.81 550.59c-43.24 26.87-100.08 13.6-126.96-29.64l156.6-97.32c26.87 43.24 13.6 100.08-29.64 126.96z" fill="#C6ABD0" p-id="3036"></path><path d="M798 421.28l0.28 0.44-1.63 4.42-153.43 95.35c12.79 19.76 32.38 33.55 55.37 38.91 16.61 3.88 33.58 3 49.35-2.32l-1.49 4.05c-8.79 2.68-17.9 4.09-27.1 4.09-7.16 0-14.38-0.82-21.52-2.49-24.42-5.7-45.16-20.57-58.4-41.88l-0.9-1.45L798 421.28z" fill="#E1D5E8" p-id="3037"></path><path d="M766.91 549.14c41.88-26.04 55.12-80.96 29.98-123.15l-0.24 0.15 1.63-4.42 0.63 1c27.33 43.97 13.79 101.98-30.19 129.31a94.242 94.242 0 0 1-22.28 10.09l1.49-4.05a90.882 90.882 0 0 0 18.98-8.93z" fill="#B895C3" p-id="3038"></path><path d="M395.78 521.44v220.55l-46.23 43.04V478.4z" fill="#503B93" p-id="3039"></path><path d="M348.09 582.22v220.55l-46.24 43.04V539.18z" fill="#9663A5" p-id="3040"></path><path d="M628.34 521.44v220.55l46.24 43.04V478.4z" fill="#503B93" p-id="3041"></path><path d="M676.04 582.22v220.55l46.23 43.04V539.18z" fill="#9663A5" p-id="3042"></path><path d="M614.93 489.42v306.63l-103.45 67.23-103.45-67.23V489.42l103.45-67.24z" fill="#77539E" p-id="3043"></path><path d="M731.77 374.32L515.34 249.36 298.9 374.32v26.57l432.87 205.74z" fill="#E1D5E8" p-id="3044"></path><path d="M298.9 400.89v223.34l216.44 124.96 216.43-124.96v-17.6z" fill="#B099C7" p-id="3045"></path><path d="M731.77 374.31v92.97c-29.76 21.78-66.52 34.61-106.21 34.61-99.56 0-180.28-80.72-180.28-180.28 0-11.5 1.06-22.73 3.14-33.62l66.93-38.64 216.42 124.96z" fill="#EDE4F0" p-id="3046"></path><path d="M721.06 606.33a25.305 25.305 0 0 1-9.07 9.2L527.79 724.6c-4.49 2.66-9.6 3.77-14.64 3.44v33.77c5.75 0.39 11.58-0.89 16.71-3.92l210.32-124.53c4.33-2.56 7.81-6.16 10.26-10.36l-29.38-16.67z" fill="#8771B0" p-id="3047"></path><path d="M523.85 254.67l185.8 103.95a25.37 25.37 0 0 1 12.99 21.95l1.81 212.89c0.04 4.59-1.17 9.02-3.39 12.86L750.44 623c2.58-4.43 4.01-9.53 3.97-14.84l-2.06-243.07a28.992 28.992 0 0 0-14.84-25.06L525.37 221.34c-3.82-2.14-8-3.29-12.22-3.57v33.77c3.7 0.25 7.36 1.26 10.7 3.13z" fill="#D3BAD9" p-id="3048"></path><path d="M314.31 364.05l184.21-109.07c4.49-2.66 9.6-3.77 14.64-3.44v-33.77c-5.75-0.39-11.58 0.89-16.71 3.92L286.12 346.22c-3.57 2.12-6.55 4.95-8.87 8.24l29.38 16.67c2.01-2.82 4.59-5.26 7.68-7.08z" fill="#C6ABD0" p-id="3049"></path><path d="M502.45 724.91l-185.8-103.95a25.37 25.37 0 0 1-12.99-21.95l-1.81-212.89c-0.05-5.47 1.69-10.68 4.77-14.99l-29.38-16.67c-3.45 4.88-5.4 10.78-5.35 16.96l2.06 243.07a28.992 28.992 0 0 0 14.84 25.06l212.13 118.69c3.82 2.14 8 3.29 12.22 3.57v-33.77c-3.69-0.25-7.35-1.26-10.69-3.13z" fill="#634C9C" p-id="3050"></path><path d="M328.95 373.3L499.6 272.26c4.16-2.46 8.89-3.5 13.56-3.18v-17.54c-5.04-0.34-10.15 0.78-14.64 3.44L314.31 364.05a25.415 25.415 0 0 0-7.68 7.08l15.26 8.66c1.85-2.58 4.23-4.81 7.06-6.49z" fill="#B895C3" p-id="3051"></path><path d="M503.24 707.6l-172.12-96.3a23.516 23.516 0 0 1-12.04-20.33l-1.67-197.22c-0.04-5.1 1.58-9.96 4.47-13.96l-15.26-8.66c-3.08 4.3-4.82 9.52-4.77 14.99l1.81 212.89c0.08 9.12 5.04 17.49 12.99 21.95l185.8 103.95c3.34 1.87 7 2.88 10.7 3.13V710.5c-3.43-0.24-6.82-1.17-9.91-2.9z" fill="#D3BAD9" p-id="3052"></path><path d="M722.64 380.57a25.424 25.424 0 0 0-12.99-21.95l-185.8-103.95c-3.34-1.87-7-2.88-10.7-3.13v17.54c3.43 0.23 6.82 1.16 9.91 2.9l172.12 96.3a23.516 23.516 0 0 1 12.04 20.33l1.67 197.22c0.04 4.22-1.07 8.29-3.09 11.84l15.26 8.66c2.21-3.85 3.43-8.27 3.39-12.86l-1.81-212.9z" fill="#634C9C" p-id="3053"></path><path d="M697.36 606.27L526.71 707.31c-4.16 2.46-8.89 3.5-13.56 3.18v17.54c5.04 0.34 10.15-0.78 14.64-3.44L712 615.52a25.46 25.46 0 0 0 9.07-9.2l-15.26-8.66c-1.99 3.5-4.87 6.49-8.45 8.61z" fill="#C6ABD0" p-id="3054"></path><path d="M515.34 663.08c33.54 0 60.73 27.19 60.73 60.73 0 16.77-6.8 31.95-17.79 42.94l8.41 8.41c13.14-13.14 21.27-31.3 21.27-51.35 0-40.11-32.51-72.62-72.62-72.62-20.05 0-38.21 8.13-51.35 21.27l8.41 8.41c10.98-10.99 26.17-17.79 42.94-17.79z" fill="#D3BAD9" p-id="3055"></path><path d="M558.28 766.76c-10.99 10.99-26.17 17.79-42.94 17.79-33.54 0-60.73-27.19-60.73-60.73 0-16.77 6.8-31.95 17.79-42.94l-8.41-8.41c-13.14 13.14-21.27 31.3-21.27 51.35 0 40.11 32.51 72.62 72.62 72.62 20.05 0 38.21-8.13 51.35-21.27l-8.41-8.41z" fill="#B895C3" p-id="3056"></path><path d="M515.34 776.33c-29 0-52.52-23.51-52.52-52.52 0-14.5 5.88-27.63 15.38-37.14l-5.81-5.81c-10.99 10.99-17.79 26.17-17.79 42.94 0 33.54 27.19 60.73 60.73 60.73 16.77 0 31.95-6.8 42.94-17.79l-5.81-5.81c-9.49 9.52-22.62 15.4-37.12 15.4z" fill="#D3BAD9" p-id="3057"></path><path d="M515.34 663.08c-16.77 0-31.95 6.8-42.94 17.79l5.81 5.81c9.5-9.5 22.63-15.38 37.14-15.38 29 0 52.52 23.51 52.52 52.52 0 14.5-5.88 27.63-15.38 37.14l5.81 5.81c10.99-10.99 17.79-26.17 17.79-42.94-0.02-33.56-27.21-60.75-60.75-60.75z" fill="#634C9C" p-id="3058"></path><path d="M567.85 723.81c0-29-23.51-52.52-52.52-52.52-14.61 0-27.81 5.97-37.33 15.6l74.41 74.1c9.54-9.5 15.44-22.65 15.44-37.18z" fill="#B099C7" p-id="3059"></path><path d="M478.01 686.89c-9.38 9.49-15.19 22.52-15.19 36.92 0 29 23.51 52.52 52.52 52.52 14.48 0 27.58-5.86 37.08-15.34l-74.41-74.1z" fill="#D3BAD9" p-id="3060"></path><path d="M488.46 764.81c-0.25 0.25-1.4-0.79-3.46-3.12-2.11-2.33-2.82-3.76-2.12-4.29 0.69-0.53 1.51-1.54 2.46-3.04 1.22-1.94 1.83-3.97 1.83-6.08v-8.08c0-0.28-0.14-0.42-0.42-0.42h-3.83c-4.66 0-7-1.8-7-5.41 0-3.55 2.33-5.33 7-5.33h3.83c0.28 0 0.42-0.14 0.42-0.42v-5.16c0-0.28-0.14-0.42-0.42-0.42-4.05 0-6.08-1.69-6.08-5.08 0-0.28-0.04-0.36-0.12-0.25-0.08 0.11-1.65-1.08-4.71-3.58-3.11-2.44-3.19-5.5-0.25-9.16 2.55-3.11 4.33-6.75 5.33-10.91 1.05-4.55 3.36-6.36 6.91-5.41 3.61 0.94 4.8 3.33 3.58 7.16-0.06 0.28 0.05 0.42 0.33 0.42h9.41c4.66 0 7 1.86 7 5.58 0 3.78-2.33 5.66-7 5.66h-13.08c-0.94 0-1.64 0.42-2.08 1.25l-1.75 3.25c-0.11 0.22-0.03 0.33 0.25 0.33h13.58c4.66 0 7 1.78 7 5.33 0 3.61-2.25 5.41-6.75 5.41-0.28 0-0.42 0.14-0.42 0.42v5.16c0 0.28 0.14 0.42 0.42 0.42h2.5c4.66 0 7 1.78 7 5.33 0 3.61-2.33 5.41-7 5.41h-2.5c-0.28 0-0.42 0.14-0.42 0.42v5.91c0 0.28 0.11 0.36 0.33 0.25l0.25-0.17c4.05-2.22 6.94-1.86 8.66 1.08 1.72 3 0.58 5.69-3.41 8.08l-8.25 4.91c-1.94 1.17-3.89 2.36-5.83 3.58-0.54 0.4-0.94 0.72-1.19 0.97z m21.7-9.61v-48.65c0-4.66 2.33-7 7-7h3.16c0.5 0 0.78-0.25 0.83-0.75 0.67-3.94 1.04-6.86 1.12-8.74 0.08-1.89 2.15-2.58 6.2-2.08 4.05 0.5 5.63 3.08 4.75 7.74l-0.67 3.42c-0.06 0.28 0.05 0.42 0.33 0.42h10.41c4.66 0 7 2.33 7 7v48.65c0.08 5.63 0.08 5.63-12.74 5.49h-15.32c-12.07-0.01-12.07-0.59-12.07-5.5z m11.66-31.07c0 0.28 0.14 0.42 0.42 0.42h15.32c0.28 0 0.42-0.14 0.42-0.42v-12.99c0-0.28-0.14-0.42-0.42-0.42h-15.32c-0.28 0-0.42 0.14-0.42 0.42v12.99z m0 24.98c0 0.28 0.14 0.42 0.42 0.42h15.32c0.28 0 0.42-0.14 0.42-0.42v-13.58c0-0.28-0.14-0.42-0.42-0.42h-15.32c-0.28 0-0.42 0.14-0.42 0.42v13.58z m15.74 11.58h-15.32c-12.08 0-12.08 0-12.08-5.49" fill="#634C9C" p-id="3061"></path><path d="M489.95 763.88c-0.25 0.25-1.4-0.79-3.46-3.12-2.11-2.33-2.82-3.76-2.12-4.29 0.69-0.53 1.51-1.54 2.46-3.04 1.22-1.94 1.83-3.97 1.83-6.08v-8.08c0-0.28-0.14-0.42-0.42-0.42h-3.83c-4.66 0-7-1.8-7-5.41 0-3.55 2.33-5.33 7-5.33h3.83c0.28 0 0.42-0.14 0.42-0.42v-5.16c0-0.28-0.14-0.42-0.42-0.42-4.05 0-6.08-1.69-6.08-5.08 0-0.28-0.04-0.36-0.12-0.25-0.08 0.11-1.65-1.08-4.71-3.58-3.11-2.44-3.19-5.5-0.25-9.16 2.55-3.11 4.33-6.75 5.33-10.91 1.05-4.55 3.36-6.36 6.91-5.41 3.61 0.94 4.8 3.33 3.58 7.16-0.06 0.28 0.05 0.42 0.33 0.42h9.41c4.66 0 7 1.86 7 5.58 0 3.78-2.33 5.66-7 5.66h-13.08c-0.94 0-1.64 0.42-2.08 1.25l-1.75 3.25c-0.11 0.22-0.03 0.33 0.25 0.33h13.58c4.66 0 7 1.78 7 5.33 0 3.61-2.25 5.41-6.75 5.41-0.28 0-0.42 0.14-0.42 0.42v5.16c0 0.28 0.14 0.42 0.42 0.42h2.5c4.66 0 7 1.78 7 5.33 0 3.61-2.33 5.41-7 5.41h-2.5c-0.28 0-0.42 0.14-0.42 0.42v5.91c0 0.28 0.11 0.36 0.33 0.25l0.25-0.17c4.05-2.22 6.94-1.86 8.66 1.08 1.72 3 0.58 5.69-3.41 8.08l-8.25 4.91c-1.94 1.17-3.89 2.36-5.83 3.58-0.54 0.4-0.94 0.72-1.19 0.97z m21.7-9.61v-48.65c0-4.66 2.33-7 7-7h3.16c0.5 0 0.78-0.25 0.83-0.75 0.67-3.94 1.04-6.86 1.12-8.74 0.08-1.89 2.15-2.58 6.2-2.08 4.05 0.5 5.63 3.08 4.75 7.74l-0.67 3.42c-0.06 0.28 0.05 0.42 0.33 0.42h10.41c4.66 0 7 2.33 7 7v48.65c0.08 5.63 0.08 5.63-12.74 5.49h-15.32c-12.07-0.01-12.07-0.6-12.07-5.5z m11.66-31.08c0 0.28 0.14 0.42 0.42 0.42h15.32c0.28 0 0.42-0.14 0.42-0.42V710.2c0-0.28-0.14-0.42-0.42-0.42h-15.32c-0.28 0-0.42 0.14-0.42 0.42v12.99z m0 24.99c0 0.28 0.14 0.42 0.42 0.42h15.32c0.28 0 0.42-0.14 0.42-0.42V734.6c0-0.28-0.14-0.42-0.42-0.42h-15.32c-0.28 0-0.42 0.14-0.42 0.42v13.58z m15.74 11.58h-15.32c-12.08 0-12.08 0-12.08-5.49" fill="#9663A5" p-id="3062"></path><path d="M554.54 711.39c-1.87 0-3.65-1.09-4.44-2.92-0.51-1.17-1.08-2.32-1.72-3.44a4.846 4.846 0 0 1 1.81-6.6 4.844 4.844 0 0 1 6.6 1.81c0.81 1.42 1.55 2.9 2.19 4.39a4.84 4.84 0 0 1-2.52 6.36c-0.63 0.28-1.28 0.4-1.92 0.4z" fill="#FFFFFF" opacity=".6" p-id="3063"></path><path d="M545.9 698.77c-1.23 0-2.46-0.47-3.41-1.4a35.635 35.635 0 0 0-10.54-7.24c-2.44-1.09-3.53-3.95-2.44-6.39 1.09-2.44 3.95-3.54 6.39-2.44 4.99 2.23 9.5 5.33 13.4 9.2a4.844 4.844 0 0 1 0.03 6.84c-0.94 0.95-2.18 1.43-3.43 1.43z" fill="#FFFFFF" opacity=".6" p-id="3064"></path><path d="M505.25 486.6l-104.84 44.54-41.01-44.54h145.85z" fill="#9663A5" p-id="3065"></path><path d="M505.25 486.6L401.01 380.68l59.52 0.67 44.72 105.25z" fill="#C6ABD0" p-id="3066"></path><path d="M609.18 592.21l-59.46-1.09-0.05 0.04-44.42-104.56z" fill="#C6ABD0" p-id="3067"></path><path d="M505.25 486.6l44.42 104.56-44.42 41.92V486.6zM505.25 486.6l105.56 41.63-1.63 63.98L505.25 486.6z" fill="#9663A5" p-id="3068"></path><path d="M505.25 486.6L400.62 589.56l-0.21-58.42zM505.25 486.6h145.83l-40.27 41.63-105.56-41.63z" fill="#C6ABD0" p-id="3069"></path><path d="M463.33 592.87l-62.71-3.31L505.25 486.6z" fill="#9663A5" p-id="3070"></path><path d="M505.25 633.08l-0.3 0.27-41.62-40.48 41.92-106.27z" fill="#C6ABD0" p-id="3071"></path><path d="M505.25 486.6l41.7-105.75 63.46 2.25-105.16 103.5zM460.53 381.35l44.42-41.51 0.3 0.29V486.6zM505.25 486.6l-106.1-41.85 1.86-64.07L505.25 486.6z" fill="#9663A5" p-id="3072"></path><path d="M505.25 486.6V340.13l41.7 40.72-41.7 105.75z" fill="#C6ABD0" p-id="3073"></path><path d="M505.25 486.6l105.16-103.5-1.25 59.34-103.91 44.16zM359.4 486.6l-0.37-0.4 40.12-41.45 106.1 41.85z" fill="#C6ABD0" p-id="3074"></path><path d="M609.16 442.44l42.3 43.76-0.38 0.4H505.25z" fill="#9663A5" p-id="3075"></path><path d="M468.01 571.94c46.64 21.8 102.32 1.59 124.12-45.05l-169.17-79.06c-21.81 46.64-1.59 102.31 45.05 124.11z" fill="#E1D5E8" p-id="3076"></path><path d="M547.07 402.77c-46.64-21.8-102.32-1.59-124.12 45.05l169.17 79.06c21.8-46.63 1.59-102.31-45.05-124.11z" fill="#B099C7" p-id="3077"></path><path d="M596.53 528.82c-22.9 49.15-81.31 70.43-130.46 47.54-49.15-22.9-70.43-81.31-47.54-130.46l-4.36-2.03c-23.98 51.48-1.61 112.87 49.87 136.85 51.48 23.98 112.87 1.61 136.85-49.87l-4.36-2.03z" fill="#8771B0" p-id="3078"></path><path d="M549 398.36c49.15 22.9 70.43 81.31 47.54 130.46l4.36 2.03c23.98-51.48 1.61-112.87-49.87-136.85s-112.87-1.61-136.85 49.87l4.36 2.03c22.9-49.16 81.31-70.44 130.46-47.54z" fill="#D3BAD9" p-id="3079"></path><path d="M592.17 526.79c-21.74 46.67-77.39 66.95-124.06 45.2-46.67-21.74-66.95-77.39-45.2-124.06l-4.36-2.03c-22.9 49.15-1.62 107.56 47.54 130.46 49.15 22.9 107.56 1.62 130.46-47.54l-4.38-2.03c0-0.01 0-0.01 0 0z" fill="#E1D5E8" p-id="3080"></path><path d="M549 398.36c-49.15-22.9-107.56-1.62-130.46 47.54l4.36 2.03c21.74-46.67 77.39-66.95 124.06-45.21 46.67 21.74 66.95 77.39 45.21 124.06l4.36 2.03c22.9-49.14 1.62-107.55-47.53-130.45z" fill="#634C9C" p-id="3081"></path><path d="M504.96 482.4l25.64-25.28-25.35-51.85-0.29 77.13z" fill="#503B93" p-id="3082"></path><path d="M587.68 465.63l-57.08-8.51-25.64 25.28z" fill="#503B93" p-id="3083"></path><path d="M505.25 405.27l-25.74 51.66 25.45 25.47zM504.96 482.4l-0.19 53.24 50.98 27.04v-0.03l-50.79-80.25z" fill="#503B93" p-id="3084"></path><path d="M453.58 562.3l51.19-26.66 0.19-53.24zM555.75 562.65l-49.92-78.88-0.86-1.37h0.05l33.21 18.83 8.11 4.38-0.14 0.14zM504.96 482.4l-25.45-25.47-57.14 8.09 82.59 17.38zM504.96 482.4l-41.41 23.06-9.97 56.84 51.38-79.9z" fill="#503B93" p-id="3085"></path><path d="M504.96 482.4l-82.59-17.38 41.18 40.44 41.41-23.06zM587.68 465.64l-41.34 39.97-8.11-4.38-33.21-18.83z" fill="#503B93" p-id="3086"></path><path d="M507.53 481.12l25.63-25.28-25.35-51.85-0.28 77.13z" fill="#EDE4F0" p-id="3087"></path><path d="M590.25 464.34l-57.09-8.5-25.63 25.28z" fill="#9663A5" p-id="3088"></path><path d="M507.81 403.99l-25.73 51.66 25.45 25.47z" fill="#854D9A" p-id="3089"></path><path d="M507.53 481.12l-0.2 53.23 50.99 27.05-0.01-0.03-50.78-80.25z" fill="#B895C3" p-id="3090"></path><path d="M456.15 561.02l51.18-26.67 0.2-53.23zM558.32 561.37l-49.92-78.88-0.87-1.37h0.06l33.21 18.82 8.1 4.39-0.14 0.14z" fill="#9663A5" p-id="3091"></path><path d="M507.53 481.12l-25.45-25.47-57.14 8.09 82.59 17.38zM507.53 481.12l-41.41 23.05-9.97 56.85 51.38-79.9z" fill="#C6ABD0" p-id="3092"></path><path d="M507.53 481.12l-82.59-17.38 41.18 40.43 41.41-23.05z" fill="#9663A5" p-id="3093"></path><path d="M590.24 464.36l-41.34 39.97-8.1-4.39-33.21-18.82z" fill="#B895C3" p-id="3094"></path></svg>