<?xml version="1.0" standalone="no"?><!DOCTYPE svg PUBLIC "-//W3C//DTD SVG 1.1//EN" "http://www.w3.org/Graphics/SVG/1.1/DTD/svg11.dtd"><svg t="1754793134465" class="icon" viewBox="0 0 1024 1024" version="1.1" xmlns="http://www.w3.org/2000/svg" p-id="3247" xmlns:xlink="http://www.w3.org/1999/xlink" width="200" height="200"><path d="M194.12 371.18c43.8 27.22 101.37 13.78 128.59-30.02L164.1 242.59c-27.22 43.8-13.78 101.37 30.02 128.59z" fill="#DBDCDC" p-id="3248"></path><path d="M163.2 240.52l-0.28 0.45 1.65 4.47 155.4 96.57c-12.95 20.01-32.8 33.98-56.08 39.41-16.82 3.93-34.01 3.04-49.98-2.35l1.51 4.1c8.9 2.72 18.13 4.14 27.45 4.14 7.25 0 14.56-0.84 21.8-2.53 24.74-5.77 45.75-20.84 59.15-42.41l0.91-1.47L163.2 240.52z" fill="#EEEEEF" p-id="3249"></path><path d="M194.68 370.03c-42.42-26.37-55.83-82-30.36-124.73l0.25 0.15-1.65-4.47-0.63 1.02c-27.68 44.54-13.96 103.29 30.58 130.97a95.41 95.41 0 0 0 22.56 10.22l-1.51-4.1a92.417 92.417 0 0 1-19.24-9.06z" fill="#C8C9CA" p-id="3250"></path><path d="M221.26 461.29c43.8 27.22 101.37 13.78 128.59-30.02L191.24 332.7c-27.22 43.8-13.78 101.37 30.02 128.59z" fill="#8CA9D7" p-id="3251"></path><path d="M190.34 330.64l-0.28 0.45 1.65 4.47 155.4 96.57c-12.95 20.01-32.8 33.98-56.08 39.41-16.82 3.93-34.01 3.04-49.98-2.35l1.51 4.1c8.9 2.72 18.13 4.14 27.45 4.14 7.25 0 14.56-0.84 21.8-2.53 24.74-5.77 45.75-20.84 59.15-42.41l0.91-1.47-161.53-100.38z" fill="#AAC9EA" p-id="3252"></path><path d="M221.83 460.14c-42.42-26.37-55.83-82-30.36-124.73l0.25 0.15-1.65-4.47-0.63 1.02c-27.68 44.54-13.96 103.29 30.58 130.97a95.41 95.41 0 0 0 22.56 10.22l-1.51-4.1a92.179 92.179 0 0 1-19.24-9.06z" fill="#648DC8" p-id="3253"></path><path d="M254.52 553.33c43.8 27.22 101.37 13.78 128.59-30.02L224.5 424.74c-27.22 43.8-13.78 101.37 30.02 128.59z" fill="#DBDCDC" p-id="3254"></path><path d="M223.95 422.36l-0.28 0.45 1.65 4.47 155.4 96.57c-12.95 20.01-32.8 33.98-56.08 39.41-16.82 3.93-34.01 3.04-49.98-2.35l1.51 4.1c8.9 2.72 18.13 4.14 27.45 4.14 7.25 0 14.56-0.84 21.8-2.53 24.74-5.77 45.75-20.84 59.15-42.41l0.91-1.47-161.53-100.38z" fill="#EEEEEF" p-id="3255"></path><path d="M255.43 551.86c-42.42-26.37-55.83-82-30.36-124.73l0.25 0.15-1.65-4.47-0.63 1.02c-27.68 44.54-13.96 103.29 30.58 130.97a95.41 95.41 0 0 0 22.56 10.22l-1.51-4.1a92.417 92.417 0 0 1-19.24-9.06z" fill="#C8C9CA" p-id="3256"></path><path d="M258.1 374.95c21.4 46.92 76.78 67.6 123.7 46.2l-77.5-169.9c-46.92 21.4-67.6 76.78-46.2 123.7z" fill="#8CA9D7" p-id="3257"></path><path d="M305.16 248.96l-0.48 0.22-1.1 4.64 75.93 166.46c-21.87 9.49-46.13 10.13-68.52 1.77-16.18-6.04-30-16.3-40.32-29.63l-1.01 4.25c5.91 7.19 12.8 13.49 20.57 18.65a95.7 95.7 0 0 0 19.55 9.97c23.8 8.89 49.63 7.98 72.74-2.57l1.57-0.72-78.93-173.04z" fill="#AAC9EA" p-id="3258"></path><path d="M259.67 374.23c-20.73-45.45-1.09-99.2 43.78-120.68l0.12 0.27 1.1-4.64-1.09 0.5c-47.71 21.76-68.82 78.28-47.06 125.99a95.512 95.512 0 0 0 13.13 21l1.01-4.25c-4.29-5.55-8-11.63-10.99-18.19z" fill="#648DC8" p-id="3259"></path><path d="M831.17 371.18c-43.8 27.22-101.37 13.78-128.59-30.02l158.61-98.57c27.22 43.8 13.78 101.37-30.02 128.59z" fill="#DBDCDC" p-id="3260"></path><path d="M862.09 240.52l0.28 0.45-1.65 4.47-155.4 96.57c12.95 20.01 32.8 33.98 56.08 39.41 16.82 3.93 34.01 3.04 49.98-2.35l-1.51 4.1c-8.9 2.72-18.13 4.14-27.45 4.14-7.25 0-14.56-0.84-21.8-2.53-24.74-5.77-45.75-20.84-59.15-42.41l-0.91-1.47 161.53-100.38z" fill="#EEEEEF" p-id="3261"></path><path d="M830.61 370.03c42.42-26.37 55.83-82 30.36-124.73l-0.25 0.15 1.65-4.47 0.63 1.02c27.68 44.54 13.96 103.29-30.58 130.97a95.41 95.41 0 0 1-22.56 10.22l1.51-4.1a92.417 92.417 0 0 0 19.24-9.06z" fill="#C8C9CA" p-id="3262"></path><path d="M804.03 461.29c-43.8 27.22-101.37 13.78-128.59-30.02l158.61-98.57c27.22 43.8 13.78 101.37-30.02 128.59z" fill="#8CA9D7" p-id="3263"></path><path d="M834.95 330.64l0.28 0.45-1.65 4.47-155.4 96.57c12.95 20.01 32.8 33.98 56.08 39.41 16.82 3.93 34.01 3.04 49.98-2.35l-1.51 4.1c-8.9 2.72-18.13 4.14-27.45 4.14-7.25 0-14.56-0.84-21.8-2.53-24.74-5.77-45.75-20.84-59.15-42.41l-0.91-1.47 161.53-100.38z" fill="#AAC9EA" p-id="3264"></path><path d="M803.46 460.14c42.42-26.37 55.83-82 30.36-124.73l-0.25 0.15 1.65-4.47 0.63 1.02c27.68 44.54 13.96 103.29-30.58 130.97a95.41 95.41 0 0 1-22.56 10.22l1.51-4.1a92.417 92.417 0 0 0 19.24-9.06z" fill="#648DC8" p-id="3265"></path><path d="M770.77 553.33c-43.8 27.22-101.37 13.78-128.59-30.02l158.61-98.57c27.22 43.8 13.78 101.37-30.02 128.59z" fill="#DBDCDC" p-id="3266"></path><path d="M801.34 422.36l0.28 0.45-1.65 4.47-155.4 96.57c12.95 20.01 32.8 33.98 56.08 39.41 16.82 3.93 34.01 3.04 49.98-2.35l-1.51 4.1c-8.9 2.72-18.13 4.14-27.45 4.14-7.25 0-14.56-0.84-21.8-2.53-24.74-5.77-45.75-20.84-59.15-42.41l-0.91-1.47 161.53-100.38z" fill="#EEEEEF" p-id="3267"></path><path d="M769.86 551.86c42.42-26.37 55.83-82 30.36-124.73l-0.25 0.15 1.65-4.47 0.63 1.02c27.68 44.54 13.96 103.29-30.58 130.97a95.41 95.41 0 0 1-22.56 10.22l1.51-4.1a92.417 92.417 0 0 0 19.24-9.06z" fill="#C8C9CA" p-id="3268"></path><path d="M767.19 374.95c-21.4 46.92-76.78 67.6-123.7 46.2l77.5-169.9c46.91 21.4 67.6 76.78 46.2 123.7z" fill="#8CA9D7" p-id="3269"></path><path d="M720.13 248.96l0.48 0.22 1.1 4.64-75.93 166.46c21.87 9.49 46.13 10.13 68.52 1.77 16.18-6.04 30-16.3 40.32-29.63l1.01 4.25c-5.91 7.19-12.8 13.49-20.57 18.65a95.7 95.7 0 0 1-19.55 9.97c-23.8 8.89-49.63 7.98-72.74-2.57l-1.57-0.72 78.93-173.04z" fill="#AAC9EA" p-id="3270"></path><path d="M765.62 374.23c20.73-45.45 1.09-99.2-43.78-120.68l-0.12 0.27-1.1-4.64 1.09 0.5c47.71 21.76 68.82 78.28 47.06 125.99a95.512 95.512 0 0 1-13.13 21l-1.01-4.25c4.29-5.55 8-11.63 10.99-18.19z" fill="#648DC8" p-id="3271"></path><path d="M395.03 523.8v223.39l-46.83 43.59V480.21z" fill="#518BC9" p-id="3272"></path><path d="M345.75 796.41V474.58l51.73 48.15v225.52l-51.73 48.16z m4.9-310.57v299.31l41.93-39.03V524.87l-41.93-39.03z" fill="#579DD5" p-id="3273"></path><path d="M346.72 585.37v223.38l-46.83 43.59V541.77z" fill="#DBDCDC" p-id="3274"></path><path d="M298.16 856.31V537.8l50.29 46.81V809.5l-50.29 46.81z m3.46-310.57v302.63L344.99 808V586.12l-43.37-40.38z" fill="#C8C9CA" p-id="3275"></path><path d="M630.58 523.8v223.39l46.83 43.59V480.21z" fill="#518BC9" p-id="3276"></path><path d="M679.86 796.41l-51.73-48.15V522.73l51.73-48.15v321.83z m-46.83-50.29l41.93 39.03V485.84l-41.93 39.03v221.25z" fill="#579DD5" p-id="3277"></path><path d="M678.89 585.37v223.38l46.83 43.59V541.77z" fill="#DBDCDC" p-id="3278"></path><path d="M727.45 856.31l-50.29-46.81V584.61l50.29-46.81v318.51zM680.62 808l43.37 40.37V545.74l-43.37 40.37V808z" fill="#C8C9CA" p-id="3279"></path><path d="M617 491.37v310.57l-104.79 68.1-104.78-68.1V491.37l104.78-68.1z" fill="#8CA9D7" p-id="3280"></path><path d="M512.21 872.96l-107.23-69.69V490.04l107.23-69.69 107.23 69.69v313.23l-107.23 69.69z m-102.33-72.35l102.33 66.51 102.33-66.51V492.7l-102.33-66.51-102.33 66.51v307.91z" fill="#648DC8" p-id="3281"></path><path d="M735.34 374.79L516.12 248.22 296.9 374.79v26.91l438.44 208.39z" fill="#DBDCDC" p-id="3282"></path><path d="M296.9 401.7v226.22l219.22 126.56 219.22-126.56v-17.83z" fill="#E0E0DF" p-id="3283"></path><path d="M735.34 374.78v94.17C705.19 491.01 667.96 504 627.76 504c-100.84 0-182.59-81.76-182.59-182.59 0-11.65 1.07-23.02 3.18-34.05l67.79-39.13 219.2 126.55z" fill="#EEEEEF" p-id="3284"></path><path d="M724.49 609.78c-2.17 3.78-5.3 7.02-9.19 9.32L528.73 729.57c-4.55 2.69-9.72 3.82-14.82 3.48v34.21c5.82 0.39 11.73-0.9 16.93-3.97l213.02-126.13c4.38-2.59 7.91-6.24 10.39-10.49l-29.76-16.89z" fill="#8CA9D7" p-id="3285"></path><path d="M524.75 253.6l188.18 105.29a25.72 25.72 0 0 1 13.16 22.23l1.83 215.63c0.04 4.65-1.19 9.13-3.43 13.03l29.75 16.88c2.62-4.49 4.06-9.65 4.02-15.03l-2.09-246.2a29.383 29.383 0 0 0-15.03-25.38L526.28 219.84c-3.87-2.16-8.1-3.33-12.38-3.62v34.21c3.75 0.26 7.46 1.28 10.85 3.17z" fill="#AAC9EA" p-id="3286"></path><path d="M312.51 364.39l186.58-110.47c4.55-2.69 9.72-3.82 14.82-3.48v-34.21c-5.82-0.39-11.73 0.9-16.93 3.97L283.96 346.33c-3.62 2.14-6.64 5.02-8.98 8.34l29.75 16.89c2.04-2.86 4.65-5.32 7.78-7.17z" fill="#8CA9D7" p-id="3287"></path><path d="M503.07 729.89L314.88 624.6a25.72 25.72 0 0 1-13.16-22.23l-1.83-215.63c-0.05-5.54 1.71-10.82 4.83-15.18l-29.75-16.89c-3.5 4.95-5.47 10.92-5.42 17.18l2.09 246.2a29.383 29.383 0 0 0 15.03 25.38l214.86 120.21c3.87 2.16 8.1 3.33 12.38 3.61v-34.21c-3.75-0.24-7.46-1.26-10.84-3.15z" fill="#648DC8" p-id="3288"></path><path d="M327.33 373.76l172.84-102.34c4.21-2.49 9.01-3.54 13.73-3.22v-17.77c-5.1-0.34-10.28 0.79-14.82 3.48L312.51 364.39a25.704 25.704 0 0 0-7.78 7.17l15.45 8.77c1.88-2.61 4.29-4.87 7.15-6.57z" fill="#AAC9EA" p-id="3289"></path><path d="M503.86 712.36l-174.33-97.54a23.819 23.819 0 0 1-12.19-20.59l-1.7-199.75c-0.04-5.16 1.6-10.09 4.53-14.14l-15.45-8.77c-3.12 4.36-4.88 9.64-4.83 15.18l1.83 215.63a25.72 25.72 0 0 0 13.16 22.23L503.06 729.9c3.39 1.89 7.09 2.92 10.84 3.17V715.3c-3.46-0.24-6.9-1.19-10.04-2.94z" fill="#A5C5E3" p-id="3290"></path><path d="M726.09 381.12a25.72 25.72 0 0 0-13.16-22.23L524.75 253.6c-3.39-1.89-7.09-2.92-10.84-3.17v17.77c3.47 0.23 6.9 1.18 10.04 2.93l174.33 97.54a23.819 23.819 0 0 1 12.19 20.59l1.7 199.75c0.04 4.28-1.08 8.4-3.13 11.99l15.45 8.77c2.24-3.9 3.47-8.38 3.43-13.03l-1.83-215.62z" fill="#8CA9D7" p-id="3291"></path><path d="M700.48 609.73L527.64 712.06c-4.21 2.49-9.01 3.54-13.73 3.22v17.77c5.1 0.34 10.28-0.79 14.82-3.48L715.31 619.1c3.88-2.3 7.01-5.54 9.19-9.32l-15.45-8.77a23.95 23.95 0 0 1-8.57 8.72z" fill="#AAC9EA" p-id="3292"></path><path d="M518.08 667.27c33.97 0 61.51 27.54 61.51 61.51 0 16.99-6.89 32.36-18.02 43.5l8.51 8.51c13.31-13.31 21.54-31.7 21.54-52.01 0-40.62-32.93-73.55-73.55-73.55-20.31 0-38.7 8.23-52.01 21.54l8.51 8.51c11.15-11.13 26.52-18.01 43.51-18.01z" fill="#EEEEEF" p-id="3293"></path><path d="M561.58 772.28c-11.13 11.13-26.51 18.02-43.5 18.02-33.97 0-61.51-27.54-61.51-61.51 0-16.99 6.89-32.36 18.02-43.5l-8.51-8.51c-13.31 13.31-21.54 31.7-21.54 52.01 0 40.62 32.93 73.55 73.55 73.55 20.31 0 38.7-8.23 52.01-21.54l-8.52-8.52z" fill="#E0E0DF" p-id="3294"></path><path d="M518.08 781.97c-29.38 0-53.19-23.82-53.19-53.19 0-14.69 5.95-27.99 15.58-37.61l-5.88-5.88c-11.13 11.13-18.02 26.51-18.02 43.5 0 33.97 27.54 61.51 61.51 61.51 16.99 0 32.36-6.88 43.5-18.02l-5.88-5.88c-9.63 9.62-22.93 15.57-37.62 15.57z" fill="#AAC9EA" p-id="3295"></path><path d="M518.08 667.27c-16.99 0-32.36 6.89-43.5 18.02l5.88 5.88c9.63-9.63 22.92-15.58 37.61-15.58 29.38 0 53.19 23.82 53.19 53.19 0 14.69-5.95 27.99-15.58 37.61l5.88 5.88c11.13-11.13 18.02-26.51 18.02-43.5 0.01-33.96-27.53-61.5-61.5-61.5z" fill="#8CA9D7" p-id="3296"></path><path d="M571.27 728.78c0-29.38-23.82-53.19-53.19-53.19-14.79 0-28.17 6.05-37.81 15.8l75.37 75.06c9.66-9.64 15.63-22.96 15.63-37.67z" fill="#8DB2DE" p-id="3297"></path><path d="M480.27 691.38c-9.5 9.61-15.38 22.81-15.38 37.4 0 29.38 23.82 53.19 53.19 53.19 14.66 0 27.94-5.94 37.56-15.53l-75.37-75.06z" fill="#8CA9D7" p-id="3298"></path><path d="M557.78 716.2a4.91 4.91 0 0 1-4.5-2.96c-0.51-1.18-1.1-2.35-1.74-3.48a4.897 4.897 0 1 1 8.51-4.85c0.82 1.44 1.57 2.93 2.22 4.44a4.894 4.894 0 0 1-2.55 6.44c-0.63 0.28-1.29 0.41-1.94 0.41z" fill="#FFFFFF" opacity=".6" p-id="3299"></path><path d="M549.04 703.41c-1.25 0-2.49-0.47-3.45-1.42-3.11-3.08-6.7-5.55-10.68-7.33-2.47-1.11-3.58-4-2.47-6.47 1.11-2.47 4-3.58 6.47-2.47a45.66 45.66 0 0 1 13.58 9.32 4.907 4.907 0 0 1 0.03 6.93c-0.96 0.95-2.22 1.44-3.48 1.44z" fill="#FFFFFF" opacity=".6" p-id="3300"></path><path d="M362.51 635.78c14.36 0 26 11.64 26 26 0 7.18-2.91 13.68-7.62 18.39l3.6 3.6c5.63-5.63 9.11-13.4 9.11-21.98 0-17.17-13.92-31.09-31.09-31.09-8.59 0-16.36 3.48-21.98 9.11l3.6 3.6c4.7-4.72 11.2-7.63 18.38-7.63z" fill="#EEEEEF" p-id="3301"></path><path d="M380.9 680.16c-4.71 4.71-11.21 7.62-18.39 7.62-14.36 0-26-11.64-26-26 0-7.18 2.91-13.68 7.62-18.39l-3.6-3.6c-5.63 5.63-9.11 13.4-9.11 21.98 0 17.17 13.92 31.09 31.09 31.09 8.59 0 16.36-3.48 21.98-9.11l-3.59-3.59z" fill="#E0E0DF" p-id="3302"></path><path d="M362.51 684.26c-12.42 0-22.48-10.07-22.48-22.48 0-6.21 2.52-11.83 6.59-15.9l-2.49-2.49c-4.71 4.71-7.62 11.21-7.62 18.39 0 14.36 11.64 26 26 26 7.18 0 13.68-2.91 18.39-7.62l-2.49-2.49a22.374 22.374 0 0 1-15.9 6.59z" fill="#AAC9EA" p-id="3303"></path><path d="M362.51 635.78c-7.18 0-13.68 2.91-18.39 7.62l2.49 2.49c4.07-4.07 9.69-6.59 15.9-6.59 12.42 0 22.48 10.07 22.48 22.48 0 6.21-2.52 11.83-6.59 15.9l2.49 2.49c4.71-4.71 7.62-11.21 7.62-18.39 0-14.36-11.64-26-26-26z" fill="#8CA9D7" p-id="3304"></path><path d="M385 661.78c0-12.42-10.07-22.48-22.48-22.48-6.25 0-11.91 2.56-15.98 6.68l31.86 31.73c4.07-4.08 6.6-9.71 6.6-15.93z" fill="#8DB2DE" p-id="3305"></path><path d="M346.53 645.97c-4.02 4.06-6.5 9.64-6.5 15.81 0 12.42 10.07 22.48 22.48 22.48 6.2 0 11.81-2.51 15.88-6.57l-31.86-31.72z" fill="#8CA9D7" p-id="3306"></path><path d="M379.29 656.46c-0.8 0-1.56-0.47-1.9-1.25-0.22-0.5-0.46-0.99-0.74-1.47-0.57-0.99-0.22-2.26 0.77-2.82 0.99-0.57 2.26-0.22 2.82 0.77 0.35 0.61 0.66 1.24 0.94 1.88a2.07 2.07 0 0 1-1.08 2.72c-0.25 0.12-0.53 0.17-0.81 0.17z" fill="#FFFFFF" opacity=".6" p-id="3307"></path><path d="M375.6 651.05c-0.53 0-1.05-0.2-1.46-0.6-1.31-1.3-2.83-2.35-4.51-3.1-1.04-0.47-1.51-1.69-1.04-2.74s1.69-1.51 2.74-1.04c2.14 0.96 4.07 2.28 5.74 3.94 0.81 0.81 0.82 2.12 0.01 2.93-0.42 0.41-0.95 0.61-1.48 0.61z" fill="#FFFFFF" opacity=".6" p-id="3308"></path><path d="M699.85 661.78c0 14.36-11.64 26-26 26-7.18 0-13.68-2.91-18.39-7.62l-3.6 3.6c5.63 5.63 13.4 9.11 21.98 9.11 17.17 0 31.09-13.92 31.09-31.09 0-8.59-3.48-16.36-9.11-21.98l-3.6 3.6c4.72 4.7 7.63 11.2 7.63 18.38z" fill="#EEEEEF" p-id="3309"></path><path d="M655.47 680.16c-4.71-4.71-7.62-11.21-7.62-18.39 0-14.36 11.64-26 26-26 7.18 0 13.68 2.91 18.39 7.62l3.6-3.6c-5.63-5.63-13.4-9.11-21.98-9.11-17.17 0-31.09 13.92-31.09 31.09 0 8.59 3.48 16.36 9.11 21.98l3.59-3.59z" fill="#E0E0DF" p-id="3310"></path><path d="M651.37 661.78c0-12.42 10.07-22.48 22.48-22.48 6.21 0 11.83 2.52 15.9 6.59l2.49-2.49c-4.71-4.71-11.21-7.62-18.39-7.62-14.36 0-26 11.64-26 26 0 7.18 2.91 13.68 7.62 18.39l2.49-2.49a22.374 22.374 0 0 1-6.59-15.9z" fill="#AAC9EA" p-id="3311"></path><path d="M699.85 661.78c0-7.18-2.91-13.68-7.62-18.39l-2.49 2.49c4.07 4.07 6.59 9.69 6.59 15.9 0 12.42-10.07 22.48-22.48 22.48-6.21 0-11.83-2.52-15.9-6.59l-2.49 2.49c4.71 4.71 11.21 7.62 18.39 7.62 14.36 0 26-11.64 26-26z" fill="#8CA9D7" p-id="3312"></path><path d="M673.85 684.26c12.42 0 22.48-10.07 22.48-22.48 0-6.25-2.56-11.91-6.68-15.98l-31.73 31.86c4.08 4.08 9.71 6.6 15.93 6.6z" fill="#8DB2DE" p-id="3313"></path><path d="M689.66 645.8c-4.06-4.02-9.64-6.5-15.81-6.5-12.42 0-22.48 10.07-22.48 22.48 0 6.2 2.51 11.81 6.57 15.88l31.72-31.86z" fill="#8CA9D7" p-id="3314"></path><path d="M679.17 678.56c0-0.8 0.47-1.56 1.25-1.9 0.5-0.22 0.99-0.46 1.47-0.74 0.99-0.57 2.26-0.22 2.82 0.77 0.57 0.99 0.22 2.26-0.77 2.82-0.61 0.35-1.24 0.66-1.88 0.94a2.07 2.07 0 0 1-2.72-1.08c-0.12-0.26-0.17-0.54-0.17-0.81z" fill="#FFFFFF" opacity=".6" p-id="3315"></path><path d="M684.58 674.86c0-0.53 0.2-1.05 0.6-1.46 1.3-1.31 2.35-2.83 3.1-4.51 0.47-1.04 1.69-1.51 2.74-1.04s1.51 1.69 1.04 2.74c-0.96 2.14-2.28 4.07-3.94 5.74a2.07 2.07 0 0 1-3.54-1.47z" fill="#FFFFFF" opacity=".6" p-id="3316"></path><path d="M505.9 488.51l-115.34 2.65-21.91-57.28 137.25 54.63z" fill="#AAC9EA" p-id="3317"></path><path d="M505.9 488.51l-58.42-138.72 55.76 22.93 2.66 115.79zM564.15 626.83l-55.55-23.3-0.06 0.02-2.64-115.04z" fill="#648DC8" p-id="3318"></path><path d="M505.9 488.51l2.64 115.04-57.51 22.81 54.87-137.85z" fill="#AAC9EA" p-id="3319"></path><path d="M505.9 488.51l83.75 78.72-25.5 59.6-58.25-138.32z" fill="#AAC9EA" p-id="3320"></path><path d="M505.9 488.51l-137.02 57.71 21.68-55.06zM505.9 488.51l137.24 54.62-53.49 24.1-83.75-78.72z" fill="#648DC8" p-id="3321"></path><path d="M426.65 572.82l-57.77-26.6 137.02-57.71z" fill="#AAC9EA" p-id="3322"></path><path d="M451.03 626.36l-0.38 0.15-24-53.69 79.25-84.31z" fill="#648DC8" p-id="3323"></path><path d="M505.9 488.51l78.85-83.89 58.88 25.89-137.73 58zM503.24 372.72l57.35-22.43 0.17 0.38-54.86 137.84zM505.9 488.51l-84.17-79.12 25.75-59.6 58.42 138.72z" fill="#AAC9EA" p-id="3324"></path><path d="M505.9 488.51l54.86-137.84 23.99 53.95-78.85 83.89zM505.9 488.51l137.73-58-23.4 55.38-114.33 2.62z" fill="#648DC8" p-id="3325"></path><path d="M368.65 433.88l-0.2-0.51 53.28-23.98 84.17 79.12z" fill="#648DC8" p-id="3326"></path><path d="M620.23 485.89l23.41 57.02-0.5 0.22-137.24-54.62z" fill="#AAC9EA" p-id="3327"></path><path d="M505.9 488.51l-96.77 41.12-37.86-41.12H505.9z" fill="#518BC9" p-id="3328"></path><path d="M505.9 488.51l-96.22-97.77 54.94 0.62 41.28 97.15zM601.84 586l-54.89-1-0.04 0.03-41.01-96.52z" fill="#A5CCEC" p-id="3329"></path><path d="M505.9 488.51l41.01 96.52-41.01 38.69V488.51z" fill="#518BC9" p-id="3330"></path><path d="M505.9 488.51l97.44 38.43-1.5 59.06-95.94-97.49z" fill="#518BC9" p-id="3331"></path><path d="M505.9 488.51l-96.58 95.04-0.19-53.92zM505.9 488.51h134.62l-37.18 38.43-97.44-38.43z" fill="#A5CCEC" p-id="3332"></path><path d="M467.21 586.61l-57.89-3.06 96.58-95.04z" fill="#518BC9" p-id="3333"></path><path d="M505.9 623.72l-0.27 0.26-38.42-37.37 38.69-98.1z" fill="#A5CCEC" p-id="3334"></path><path d="M505.9 488.51l38.49-97.61 58.59 2.08-97.08 95.53zM464.62 391.36l41.01-38.32 0.27 0.27v135.2zM505.9 488.51l-97.94-38.62 1.72-59.15 96.22 97.77z" fill="#518BC9" p-id="3335"></path><path d="M505.9 488.51v-135.2l38.49 37.59-38.49 97.61zM505.9 488.51l97.08-95.53-1.16 54.78-95.92 40.75z" fill="#A5CCEC" p-id="3336"></path><path d="M371.27 488.51l-0.34-0.36 37.03-38.26 97.94 38.62z" fill="#A5CCEC" p-id="3337"></path><path d="M601.82 447.76l39.05 40.39-0.35 0.36H505.9z" fill="#518BC9" p-id="3338"></path><path d="M468.18 574.95c47.24 22.08 103.63 1.61 125.71-45.63l-171.34-80.08c-22.08 47.24-1.61 103.64 45.63 125.71z" fill="#BEBFBF" p-id="3339"></path><path d="M548.26 403.61c-47.24-22.08-103.63-1.61-125.71 45.63l171.34 80.08c22.08-47.24 1.61-103.63-45.63-125.71z" fill="#EEEEEF" p-id="3340"></path><path d="M598.36 531.28c-23.19 49.78-82.35 71.34-132.13 48.15-49.78-23.19-71.34-82.35-48.15-132.13l-4.42-2.06c-24.29 52.14-1.63 114.32 50.51 138.61 52.14 24.29 114.32 1.63 138.61-50.51l-4.42-2.06z" fill="#BEBFBF" p-id="3341"></path><path d="M550.21 399.14c49.78 23.19 71.34 82.35 48.15 132.13l4.42 2.06c24.29-52.14 1.63-114.32-50.51-138.61-52.14-24.29-114.32-1.63-138.61 50.51l4.42 2.06c23.19-49.79 82.35-71.34 132.13-48.15zM593.94 529.22c-22.02 47.27-78.39 67.81-125.66 45.79-47.27-22.02-67.81-78.39-45.79-125.66l-4.42-2.06c-23.19 49.78-1.64 108.94 48.15 132.13 49.78 23.19 108.94 1.64 132.13-48.15l-4.41-2.05z" fill="#EEEEEF" p-id="3342"></path><path d="M550.21 399.14c-49.78-23.19-108.94-1.64-132.13 48.15l4.42 2.06c22.02-47.27 78.39-67.81 125.66-45.79 47.27 22.02 67.81 78.39 45.79 125.66l4.42 2.06c23.18-49.79 1.63-108.95-48.16-132.14z" fill="#BEBFBF" p-id="3343"></path><path d="M505.61 484.26l25.97-25.6-25.68-52.52-0.29 78.12z" fill="#503B93" p-id="3344"></path><path d="M589.4 467.27l-57.82-8.61-25.97 25.6z" fill="#503B93" p-id="3345"></path><path d="M505.9 406.14l-26.06 52.32 25.77 25.8zM505.61 484.26l-0.2 53.92 51.64 27.39v-0.03l-51.44-81.28zM453.57 565.19l51.84-27.01 0.2-53.92z" fill="#503B93" p-id="3346"></path><path d="M557.05 565.55l-50.56-79.9-0.87-1.39h0.05l33.64 19.07 8.21 4.44-0.14 0.15zM505.61 484.26l-25.77-25.8-57.88 8.2 83.65 17.6zM505.61 484.26l-41.94 23.35-10.1 57.58 52.04-80.93z" fill="#503B93" p-id="3347"></path><path d="M505.61 484.26l-83.65-17.6 41.71 40.95 41.94-23.35zM589.39 467.29l-41.87 40.48-8.21-4.44-33.64-19.07z" fill="#503B93" p-id="3348"></path><path d="M508.21 482.96l25.97-25.6-25.68-52.52-0.29 78.12z" fill="#A5CCEC" p-id="3349"></path><path d="M592 465.97l-57.82-8.61-25.97 25.6z" fill="#518BC9" p-id="3350"></path><path d="M508.5 404.84l-26.06 52.32 25.77 25.8z" fill="#648DC8" p-id="3351"></path><path d="M508.21 482.96l-0.2 53.92 51.65 27.39-0.01-0.03-51.44-81.28z" fill="#8CA9D7" p-id="3352"></path><path d="M456.17 563.89l51.84-27.01 0.2-53.92zM559.65 564.25l-50.55-79.9-0.88-1.39h0.05l33.64 19.07 8.21 4.44-0.14 0.15z" fill="#518BC9" p-id="3353"></path><path d="M508.21 482.96l-25.77-25.8-57.88 8.2 83.65 17.6zM508.21 482.96l-41.94 23.35-10.1 57.58 52.04-80.93z" fill="#8CA9D7" p-id="3354"></path><path d="M508.21 482.96l-83.65-17.6 41.71 40.95 41.94-23.35z" fill="#518BC9" p-id="3355"></path><path d="M591.99 465.99l-41.87 40.48-8.21-4.44-33.64-19.07z" fill="#8CA9D7" p-id="3356"></path><path d="M541.34 701.48h-21.81c-0.28 0-0.35-0.14-0.24-0.41l1.14-2.45c2.14-4.6 0.69-7.23-4.36-7.81l-1.49-0.17c-4.56-0.55-6.95 0.03-7.19 1.76-0.24 1.73-0.97 4.42-2.11 8.12-0.21 0.66-0.66 0.97-1.31 0.97H490.9c-4.63 0-6.91 2.32-6.91 6.91V752.75c0 4.6 2.32 6.91 6.91 6.91h50.44c4.63 0 6.91-2.32 6.91-6.91V708.4c0-4.6-2.31-6.92-6.91-6.92z m-5.84 48.64c0 0.28-0.14 0.41-0.41 0.41h-38.61c-0.28 0-0.38-0.14-0.38-0.41V738.5c0-0.28 0.1-0.41 0.38-0.41h38.61c0.28 0 0.41 0.14 0.41 0.41v11.62z m0-24.51c0 0.28-0.14 0.41-0.41 0.41h-38.61c-0.28 0-0.38-0.14-0.38-0.41V714c0-0.28 0.1-0.41 0.38-0.41h38.61c0.28 0 0.41 0.14 0.41 0.41v11.61z" fill="#BEBFBF" p-id="3357"></path><path d="M543.3 700.5h-21.81c-0.28 0-0.35-0.14-0.24-0.41l1.14-2.45c2.14-4.6 0.69-7.23-4.36-7.81l-1.49-0.17c-4.56-0.55-6.95 0.03-7.19 1.76-0.24 1.73-0.97 4.42-2.11 8.12-0.21 0.66-0.66 0.97-1.31 0.97h-13.07c-4.63 0-6.91 2.32-6.91 6.91V751.77c0 4.6 2.32 6.91 6.91 6.91h50.44c4.63 0 6.91-2.32 6.91-6.91V707.42c0-4.6-2.31-6.92-6.91-6.92z m-5.84 48.64c0 0.28-0.14 0.41-0.41 0.41h-38.61c-0.28 0-0.38-0.14-0.38-0.41v-11.62c0-0.28 0.1-0.41 0.38-0.41h38.61c0.28 0 0.41 0.14 0.41 0.41v11.62z m0-24.51c0 0.28-0.14 0.41-0.41 0.41h-38.61c-0.28 0-0.38-0.14-0.38-0.41v-11.62c0-0.28 0.1-0.41 0.38-0.41h38.61c0.28 0 0.41 0.14 0.41 0.41v11.62z" fill="#E0E0DF" p-id="3358"></path></svg>