<?xml version="1.0" standalone="no"?><!DOCTYPE svg PUBLIC "-//W3C//DTD SVG 1.1//EN" "http://www.w3.org/Graphics/SVG/1.1/DTD/svg11.dtd"><svg t="1754793141589" class="icon" viewBox="0 0 1024 1024" version="1.1" xmlns="http://www.w3.org/2000/svg" p-id="3511" xmlns:xlink="http://www.w3.org/1999/xlink" width="200" height="200"><path d="M431.76 233.05L205.22 600.06l312.37 143.4 300.82-143.4-221.67-362.17z" fill="#EE996D" p-id="3512"></path><path d="M431.76 233.05l164.98 4.84 221.67 362.17-0.86 0.41 2.65 2.23 0.15-0.06 2.71-1.3-223.7-366.41-170.16-4.94-0.84 1.74 2.87 2.42z" fill="#F4B294" p-id="3513"></path><path d="M817.55 600.47L517.59 743.46l-312.37-143.4 226.01-365.91-2.87-2.42-227.82 369.64 315.17 144.69 1.92 0.88L820.2 602.7z" fill="#C46C4E" p-id="3514"></path><path d="M596.74 237.89l-164.98-4.84-0.53 1.1 2.86 2.42 0.23-0.47 159.81 4.74 218.44 355.43 4.98 4.2 0.86-0.41z" fill="#C84E1A" p-id="3515"></path><path d="M813.77 598.78l-296.22 141.2L209.9 598.74l224.19-362.17-2.86-2.42-226.01 365.91 312.37 143.4 299.96-142.99-4.98-4.2z" fill="#DD8B66" p-id="3516"></path><path d="M198.23 371.96c43.25 26.88 100.11 13.61 126.99-29.65l-156.64-97.34c-26.88 43.25-13.6 100.11 29.65 126.99z" fill="#F5C754" p-id="3517"></path><path d="M167.7 242.93l-0.28 0.44 1.63 4.42 153.47 95.37c-12.79 19.76-32.39 33.56-55.38 38.92-16.61 3.88-33.59 3-49.36-2.32l1.49 4.05c8.79 2.69 17.9 4.09 27.11 4.09 7.16 0 14.38-0.83 21.53-2.49 24.43-5.7 45.18-20.58 58.42-41.89l0.9-1.45-159.53-99.14z" fill="#F2DD81" p-id="3518"></path><path d="M198.79 370.82c-41.9-26.04-55.14-80.98-29.99-123.18l0.25 0.15-1.63-4.42-0.63 1.01c-27.33 43.98-13.79 102.01 30.2 129.34a94.424 94.424 0 0 0 22.28 10.09l-1.49-4.05a90.262 90.262 0 0 1-18.99-8.94z" fill="#D89D31" p-id="3519"></path><path d="M225.04 460.95c43.25 26.88 100.11 13.61 126.99-29.65l-156.64-97.34c-26.88 43.26-13.61 100.11 29.65 126.99z" fill="#D38FBC" p-id="3520"></path><path d="M194.5 331.92l-0.28 0.44 1.63 4.42 153.47 95.37c-12.79 19.76-32.39 33.56-55.38 38.92-16.61 3.88-33.59 3-49.36-2.32l1.49 4.05c8.79 2.69 17.9 4.09 27.11 4.09 7.16 0 14.38-0.83 21.53-2.49 24.43-5.7 45.18-20.58 58.42-41.89l0.9-1.45-159.53-99.14z" fill="#CB7CAF" p-id="3521"></path><path d="M225.6 459.81c-41.9-26.04-55.14-80.98-29.99-123.18l0.25 0.15-1.63-4.42-0.63 1.01c-27.33 43.98-13.79 102.01 30.2 129.34a94.424 94.424 0 0 0 22.28 10.09l-1.49-4.05a90.262 90.262 0 0 1-18.99-8.94z" fill="#BB5198" p-id="3522"></path><path d="M293.49 565.41c50.92 0.54 92.64-40.31 93.18-91.23l-184.41-1.95c-0.54 50.92 40.3 92.64 91.23 93.18z" fill="#9483BC" p-id="3523"></path><path d="M200.57 470.51l-0.01 0.52 3.69 2.93 180.68 1.91c-0.68 23.53-10.28 45.49-27.15 62.01-12.19 11.93-27.15 19.99-43.4 23.63l3.38 2.68c8.91-2.27 17.43-5.79 25.3-10.57a94.994 94.994 0 0 0 17.11-13.3c17.93-17.55 27.94-41.03 28.21-66.12l0.02-1.71-187.83-1.98z" fill="#BFB6D9" p-id="3524"></path><path d="M293.5 563.71c-49.33-0.53-89.15-40.62-89.54-89.75h0.29l-3.69-2.93-0.01 1.18c-0.55 51.78 41.13 94.36 92.92 94.91 8.31 0.09 16.44-0.94 24.28-2.93l-3.38-2.68a91.651 91.651 0 0 1-20.87 2.2z" fill="#8674B3" p-id="3525"></path><path d="M262.02 359.64c30.76 40.58 88.6 48.55 129.19 17.78L279.8 230.46c-40.59 30.76-48.55 88.6-17.78 129.18z" fill="#D38FBC" p-id="3526"></path><path d="M280.13 228.07l-0.42 0.32-0.06 4.71L388.8 377.08c-19.02 13.87-42.26 19.73-65.64 16.52-16.9-2.33-32.44-9.22-45.26-19.84l-0.05 4.31c7.25 5.65 15.25 10.23 23.85 13.52a94.809 94.809 0 0 0 21 5.38c24.85 3.42 49.55-3.04 69.54-18.2l1.36-1.03-113.47-149.67z" fill="#CB7CAF" p-id="3527"></path><path d="M263.38 358.61c-29.8-39.32-22.49-95.35 16.1-125.75l0.17 0.23 0.06-4.71-0.94 0.71c-41.27 31.28-49.39 90.31-18.11 131.58a94.456 94.456 0 0 0 17.19 17.4l0.05-4.31a90.742 90.742 0 0 1-14.52-15.15z" fill="#BB5198" p-id="3528"></path><path d="M319.5 347.26c13.49 49.11 64.23 77.99 113.34 64.5L384 233.92c-49.11 13.49-77.99 64.23-64.5 113.34z" fill="#9483BC" p-id="3529"></path><path d="M385.19 231.82l-0.5 0.14-1.8 4.35 47.85 174.24c-22.81 5.82-46.57 2.62-67.08-9.05-14.83-8.44-26.69-20.61-34.65-35.23l-1.65 3.98c4.63 7.94 10.36 15.16 17.12 21.42a94.207 94.207 0 0 0 17.5 12.79c21.8 12.41 47.13 15.58 71.32 8.94l1.64-0.45-49.75-181.13z" fill="#BFB6D9" p-id="3530"></path><path d="M321.14 346.8c-13.06-47.57 14.54-96.88 61.66-110.77l0.08 0.28 1.8-4.35-1.14 0.31c-49.94 13.71-79.41 65.5-65.7 115.44a94.09 94.09 0 0 0 9.5 22.54l1.65-3.98a92.042 92.042 0 0 1-7.85-19.47z" fill="#8674B3" p-id="3531"></path><path d="M828.29 371.96c-43.25 26.88-100.11 13.61-126.99-29.65l156.64-97.34c26.87 43.25 13.6 100.11-29.65 126.99z" fill="#F5C754" p-id="3532"></path><path d="M858.82 242.93l0.28 0.44-1.63 4.42L704 343.16c12.79 19.76 32.39 33.56 55.38 38.92 16.61 3.88 33.59 3 49.36-2.32l-1.49 4.05c-8.79 2.69-17.9 4.09-27.11 4.09-7.16 0-14.38-0.83-21.53-2.49-24.43-5.7-45.18-20.58-58.42-41.89l-0.9-1.45 159.53-99.14z" fill="#F2DD81" p-id="3533"></path><path d="M827.73 370.82c41.9-26.04 55.14-80.98 29.99-123.18l-0.25 0.15 1.63-4.42 0.63 1.01c27.33 43.98 13.79 102.01-30.2 129.34a94.424 94.424 0 0 1-22.28 10.09l1.49-4.05a90.732 90.732 0 0 0 18.99-8.94z" fill="#D89D31" p-id="3534"></path><path d="M801.48 460.95c-43.25 26.88-100.11 13.61-126.99-29.65l156.64-97.34c26.88 43.26 13.61 100.11-29.65 126.99z" fill="#D38FBC" p-id="3535"></path><path d="M832.02 331.92l0.28 0.44-1.63 4.42-153.47 95.37c12.79 19.76 32.39 33.56 55.38 38.92 16.61 3.88 33.59 3 49.36-2.32l-1.49 4.05c-8.79 2.69-17.9 4.09-27.11 4.09-7.16 0-14.38-0.83-21.53-2.49-24.43-5.7-45.18-20.58-58.42-41.89l-0.9-1.45 159.53-99.14z" fill="#CB7CAF" p-id="3536"></path><path d="M800.92 459.81c41.9-26.04 55.14-80.98 29.99-123.18l-0.25 0.15 1.63-4.42 0.63 1.01c27.33 43.98 13.79 102.01-30.2 129.34a94.424 94.424 0 0 1-22.28 10.09l1.49-4.05a90.262 90.262 0 0 0 18.99-8.94z" fill="#BB5198" p-id="3537"></path><path d="M732.33 565.47c-50.93 0.03-92.24-41.23-92.27-92.15l184.42-0.11c0.03 50.92-41.23 92.23-92.15 92.26z" fill="#9483BC" p-id="3538"></path><path d="M826.19 471.5v0.52l-3.72 2.89-180.69 0.11c0.45 23.54 9.83 45.59 26.53 62.27 12.07 12.06 26.95 20.26 43.16 24.06l-3.4 2.65c-8.89-2.35-17.37-5.97-25.19-10.82a94.765 94.765 0 0 1-16.98-13.47c-17.75-17.73-27.53-41.31-27.55-66.39v-1.71l187.84-0.11z" fill="#BFB6D9" p-id="3539"></path><path d="M732.33 563.77c49.33-0.04 89.55-39.73 90.43-88.85h-0.29l3.72-2.89v1.18c0.03 51.79-42.07 93.94-93.86 93.98-8.31 0-16.43-1.1-24.25-3.17l3.4-2.65c6.75 1.57 13.74 2.4 20.85 2.4z" fill="#8674B3" p-id="3540"></path><path d="M764.5 359.64c-30.76 40.58-88.6 48.55-129.19 17.78l111.41-146.97c40.58 30.77 48.54 88.61 17.78 129.19z" fill="#D38FBC" p-id="3541"></path><path d="M746.39 228.07l0.42 0.32 0.06 4.71-109.16 143.98c19.02 13.87 42.26 19.73 65.64 16.52 16.9-2.33 32.44-9.22 45.26-19.84l0.05 4.31c-7.25 5.65-15.25 10.23-23.85 13.52a94.809 94.809 0 0 1-21 5.38c-24.85 3.42-49.55-3.04-69.54-18.2l-1.36-1.03 113.48-149.67z" fill="#CB7CAF" p-id="3542"></path><path d="M763.14 358.61c29.8-39.32 22.49-95.35-16.1-125.75l-0.17 0.23-0.06-4.71 0.94 0.71c41.27 31.28 49.39 90.31 18.11 131.58a94.456 94.456 0 0 1-17.19 17.4l-0.05-4.31a91.145 91.145 0 0 0 14.52-15.15z" fill="#BB5198" p-id="3543"></path><path d="M707.02 347.26c-13.49 49.11-64.23 77.99-113.34 64.5l48.84-177.84c49.11 13.49 77.99 64.23 64.5 113.34z" fill="#9483BC" p-id="3544"></path><path d="M641.33 231.82l0.5 0.14 1.8 4.35-47.85 174.24c22.81 5.82 46.57 2.62 67.08-9.05 14.83-8.44 26.69-20.61 34.65-35.23l1.65 3.98c-4.63 7.94-10.36 15.16-17.12 21.42a94.207 94.207 0 0 1-17.5 12.79c-21.8 12.41-47.13 15.58-71.32 8.94l-1.64-0.45 49.75-181.13z" fill="#BFB6D9" p-id="3545"></path><path d="M705.38 346.8c13.06-47.57-14.54-96.88-61.66-110.77l-0.08 0.28-1.8-4.35 1.14 0.31c49.94 13.71 79.41 65.5 65.7 115.44a94.09 94.09 0 0 1-9.5 22.54l-1.65-3.98c3.31-6.1 5.96-12.61 7.85-19.47z" fill="#8674B3" p-id="3546"></path><path d="M694.06 555.38v220.61l-73.37 43.05V512.33zM330.87 555.38v220.61l73.18 43.05V512.33z" fill="#8A7DB8" p-id="3547"></path><path d="M396.8 513.9v220.61l-56.08 43.05V470.85z" fill="#D38FBC" p-id="3548"></path><path d="M329.58 555.35v220.6L283.33 819V512.3z" fill="#CB7CAF" p-id="3549"></path><path d="M281.63 822.92V508.38l49.66 46.23V776.7l-49.66 46.22z m3.41-306.7v298.86l42.83-39.87V556.09l-42.83-39.87z" fill="#BB5198" p-id="3550"></path><path d="M627.45 513.9v220.61l57.74 43.05V470.85z" fill="#D38FBC" p-id="3551"></path><path d="M696.33 555.35v220.6L742.57 819V512.3z" fill="#CB7CAF" p-id="3552"></path><path d="M744.28 822.92l-49.66-46.23V554.6l49.66-46.23v314.55z m-46.25-47.71l42.83 39.87V516.22l-42.83 39.87v219.12z" fill="#BB5198" p-id="3553"></path><path d="M615.85 511.94v306.71l-103.48 67.26-103.48-67.26V511.94l103.48-67.25z" fill="#B6ADD4" p-id="3554"></path><path d="M512.37 888.79l-105.9-68.83V510.63l105.9-68.83 105.9 68.83v309.33l-105.9 68.83z m-101.06-71.45l101.06 65.68 101.06-65.68V513.26l-101.06-65.68-101.06 65.68v304.08z" fill="#8A7DB8" p-id="3555"></path><path d="M732.72 375.53L516.23 250.54 299.74 375.53v26.57l432.98 205.8z" fill="#DBDCDC" p-id="3556"></path><path d="M299.74 402.1v223.41L516.23 750.5l216.49-124.99V607.9z" fill="#D0D0D0" p-id="3557"></path><path d="M732.72 375.52v93c-29.77 21.78-66.54 34.62-106.24 34.62-99.58 0-180.32-80.74-180.32-180.32 0-11.5 1.06-22.74 3.14-33.63l66.95-38.65 216.47 124.98z" fill="#EEEEEF" p-id="3558"></path><path d="M722.01 607.59a25.487 25.487 0 0 1-9.07 9.21L528.68 725.9c-4.49 2.66-9.6 3.77-14.64 3.44v33.78c5.75 0.39 11.59-0.89 16.72-3.92l210.37-124.56c4.33-2.56 7.81-6.16 10.26-10.36l-29.38-16.69z" fill="#F5C754" p-id="3559"></path><path d="M524.75 255.85l185.84 103.98a25.4 25.4 0 0 1 13 21.95l1.81 212.95c0.04 4.59-1.17 9.02-3.39 12.87l29.38 16.67c2.58-4.43 4.01-9.53 3.97-14.84L753.3 366.3a28.992 28.992 0 0 0-14.84-25.06L526.27 222.51c-3.82-2.14-8-3.29-12.22-3.57v33.78c3.69 0.25 7.35 1.26 10.7 3.13z" fill="#F2DD81" p-id="3560"></path><path d="M315.15 365.25l184.25-109.1c4.49-2.66 9.6-3.77 14.64-3.44v-33.78c-5.75-0.39-11.59 0.89-16.72 3.92L286.95 347.42c-3.57 2.12-6.55 4.95-8.87 8.24l29.38 16.67c2.02-2.81 4.6-5.25 7.69-7.08z" fill="#F5C754" p-id="3561"></path><path d="M503.34 726.21L317.49 622.23a25.4 25.4 0 0 1-13-21.95l-1.81-212.95c-0.05-5.47 1.69-10.69 4.77-14.99l-29.38-16.67c-3.45 4.89-5.41 10.78-5.35 16.97l2.06 243.13a28.992 28.992 0 0 0 14.84 25.06l212.19 118.72c3.82 2.14 8 3.29 12.22 3.57v-33.78c-3.69-0.26-7.35-1.26-10.69-3.13z" fill="#D89D31" p-id="3562"></path><path d="M329.79 374.51l170.69-101.06c4.16-2.46 8.89-3.5 13.56-3.18v-17.54c-5.04-0.34-10.15 0.78-14.64 3.44l-184.25 109.1a25.452 25.452 0 0 0-7.69 7.08l15.26 8.66c1.86-2.59 4.24-4.82 7.07-6.5z" fill="#F2DD81" p-id="3563"></path><path d="M504.12 708.89l-172.16-96.32a23.545 23.545 0 0 1-12.04-20.34l-1.67-197.27c-0.04-5.1 1.58-9.96 4.47-13.97l-15.26-8.66c-3.08 4.3-4.82 9.52-4.77 14.99l1.81 212.95a25.4 25.4 0 0 0 13 21.95L503.34 726.2c3.34 1.87 7.01 2.88 10.71 3.13v-17.54c-3.43-0.23-6.83-1.16-9.93-2.9z" fill="#F5C754" p-id="3564"></path><path d="M723.59 381.78a25.4 25.4 0 0 0-13-21.95L524.75 255.85c-3.34-1.87-7.01-2.88-10.71-3.13v17.54c3.43 0.23 6.82 1.16 9.92 2.9l172.16 96.32a23.545 23.545 0 0 1 12.04 20.34l1.67 197.27c0.04 4.22-1.07 8.29-3.09 11.84l15.26 8.66c2.21-3.85 3.43-8.27 3.39-12.87l-1.8-212.94z" fill="#D89D31" p-id="3565"></path><path d="M698.29 607.54L527.6 708.6c-4.16 2.46-8.89 3.5-13.56 3.18v17.54c5.04 0.34 10.15-0.78 14.64-3.44l184.26-109.1c3.84-2.27 6.92-5.47 9.07-9.21l-15.26-8.66a23.332 23.332 0 0 1-8.46 8.63z" fill="#F2DD81" p-id="3566"></path><path d="M518.17 664.36c33.55 0 60.75 27.2 60.75 60.75 0 16.77-6.8 31.96-17.79 42.96l8.41 8.41c13.14-13.15 21.28-31.3 21.28-51.36 0-40.12-32.52-72.64-72.64-72.64-20.06 0-38.22 8.13-51.36 21.28l8.41 8.41c10.97-11.01 26.16-17.81 42.94-17.81z" fill="#F2DD81" p-id="3567"></path><path d="M561.12 768.07c-10.99 10.99-26.18 17.79-42.96 17.79-33.55 0-60.75-27.2-60.75-60.75 0-16.77 6.8-31.96 17.79-42.96l-8.41-8.41c-13.15 13.15-21.28 31.3-21.28 51.36 0 40.12 32.52 72.64 72.64 72.64 20.06 0 38.22-8.13 51.36-21.28l-8.39-8.39z" fill="#D89D31" p-id="3568"></path><path d="M518.17 777.64c-29.01 0-52.53-23.52-52.53-52.53 0-14.51 5.88-27.64 15.39-37.15l-5.81-5.81c-10.99 10.99-17.79 26.18-17.79 42.96 0 33.55 27.2 60.75 60.75 60.75 16.78 0 31.96-6.8 42.96-17.79l-5.81-5.81c-9.53 9.5-22.66 15.38-37.16 15.38z" fill="#F5C754" p-id="3569"></path><path d="M518.17 664.36c-16.77 0-31.96 6.8-42.96 17.79l5.81 5.81c9.51-9.51 22.64-15.39 37.15-15.39 29.01 0 52.53 23.52 52.53 52.53 0 14.51-5.88 27.64-15.39 37.15l5.81 5.81c10.99-10.99 17.79-26.18 17.79-42.96 0-33.54-27.19-60.74-60.74-60.74z" fill="#D89D31" p-id="3570"></path><path d="M570.7 725.11c0-29.01-23.52-52.53-52.53-52.53-14.61 0-27.82 5.97-37.34 15.6l74.43 74.12c9.53-9.51 15.44-22.66 15.44-37.19z" fill="#EEEEEF" p-id="3571"></path><path d="M480.83 688.18c-9.39 9.49-15.19 22.53-15.19 36.93 0 29.01 23.52 52.53 52.53 52.53 14.48 0 27.59-5.86 37.09-15.34l-74.43-74.12z" fill="#E0E0DF" p-id="3572"></path><path d="M492.28 758.54c-0.24 0.24-1.32-0.77-3.23-3.02-1.92-2.21-2.56-3.56-1.94-4.06 0.62-0.5 1.14-1.08 1.55-1.73s0.86-1.39 1.37-2.23c0.5-0.84 0.76-2.19 0.76-4.06v-7.98c0-0.24-0.12-0.36-0.36-0.36h-2.37c-4.02 0-6.04-1.56-6.04-4.67 0-3.07 2.01-4.6 6.04-4.6h2.37c0.24 0 0.36-0.12 0.36-0.36v-4.81c0-0.24-0.12-0.36-0.36-0.36-2.49 0-3.74-1.7-3.74-5.1 0-0.24-0.1-0.26-0.29-0.07-0.53 0.53-2.01-0.5-4.46-3.09-2.49-2.59-2.23-5.25 0.79-7.98 2.39-2.11 4.07-4.55 5.03-7.33 1.34-3.83 3.5-5.2 6.47-4.1 2.97 1.06 4.1 2.54 3.38 4.46-0.1 0.24-0.03 0.36 0.22 0.36h6.32c4.02 0 6.04 1.58 6.04 4.74s-2.01 4.74-6.04 4.74h-10.28c-0.91 0-1.61 0.38-2.08 1.15l-1.8 2.66c-0.15 0.19-0.1 0.29 0.14 0.29h11.93c4.02 0 6.04 1.53 6.04 4.6 0 3.12-2.01 4.67-6.04 4.67h-1.01c-0.24 0-0.36 0.12-0.36 0.36v4.81c0 0.24 0.12 0.36 0.36 0.36h1.15c4.02 0 6.04 1.53 6.04 4.6 0 3.11-2.01 4.67-6.04 4.67h-1.15c-0.24 0-0.36 0.12-0.36 0.36v8.05c0 0.24 0.12 0.31 0.36 0.22 3.74-1.68 6.23-1.17 7.47 1.51 1.25 2.64 0.1 4.86-3.45 6.68l-6.54 3.23c-1.77 0.86-3.52 1.75-5.25 2.66-0.42 0.25-0.76 0.49-1 0.73z m23.07 0.72c-3.31 0-4.96-2.01-4.96-6.04V730.3c0-4.02 2.01-6.04 6.04-6.04h4.46c0.24 0 0.36-0.12 0.36-0.36v-26.95c0-4.03 1.75-6.04 5.25-6.04 3.45 0 5.17 2.01 5.17 6.04v6.83c0 0.24 0.12 0.36 0.36 0.36h10.42c4.03 0 6.04 1.61 6.04 4.81 0 3.21-2.01 4.81-6.04 4.81h-10.42c-0.24 0-0.36 0.12-0.36 0.36v9.77c0 0.24 0.12 0.36 0.36 0.36h8.12c4.02 0 6.04 2.01 6.04 6.04v22.57c0 4.02-1.73 6.04-5.17 6.04-3.5 0-5.25-0.94-5.25-2.8 0-0.24-0.12-0.36-0.36-0.36h-14.73c-0.24 0-0.36 0.12-0.36 0.36-0.01 2.11-1.67 3.16-4.97 3.16z m4.96-13.51c0 0.24 0.12 0.36 0.36 0.36h14.73c0.24 0 0.36-0.12 0.36-0.36v-11.5c0-0.24-0.12-0.36-0.36-0.36h-14.73c-0.24 0-0.36 0.12-0.36 0.36v11.5z" fill="#D89D31" p-id="3573"></path><path d="M494.22 756.61c-0.24 0.24-1.32-0.77-3.23-3.02-1.92-2.21-2.56-3.56-1.94-4.06a7.06 7.06 0 0 0 1.55-1.73c0.41-0.65 0.86-1.39 1.37-2.23 0.5-0.84 0.76-2.19 0.76-4.06v-7.98c0-0.24-0.12-0.36-0.36-0.36H490c-4.02 0-6.04-1.56-6.04-4.67 0-3.07 2.01-4.6 6.04-4.6h2.37c0.24 0 0.36-0.12 0.36-0.36v-4.81c0-0.24-0.12-0.36-0.36-0.36-2.49 0-3.74-1.7-3.74-5.1 0-0.24-0.1-0.26-0.29-0.07-0.53 0.53-2.01-0.5-4.46-3.09-2.49-2.59-2.23-5.25 0.79-7.98 2.39-2.11 4.07-4.55 5.03-7.33 1.34-3.83 3.5-5.2 6.47-4.1 2.97 1.06 4.1 2.54 3.38 4.46-0.1 0.24-0.02 0.36 0.22 0.36h6.32c4.02 0 6.04 1.58 6.04 4.74s-2.01 4.74-6.04 4.74H495.8c-0.91 0-1.61 0.38-2.08 1.15l-1.8 2.66c-0.15 0.19-0.1 0.29 0.14 0.29h11.93c4.02 0 6.04 1.53 6.04 4.6 0 3.12-2.01 4.67-6.04 4.67h-1.01c-0.24 0-0.36 0.12-0.36 0.36v4.81c0 0.24 0.12 0.36 0.36 0.36h1.15c4.02 0 6.04 1.53 6.04 4.6 0 3.11-2.01 4.67-6.04 4.67h-1.15c-0.24 0-0.36 0.12-0.36 0.36v8.05c0 0.24 0.12 0.31 0.36 0.22 3.74-1.68 6.23-1.17 7.47 1.51 1.25 2.64 0.1 4.86-3.45 6.68l-6.54 3.23c-1.77 0.86-3.52 1.75-5.25 2.66-0.42 0.25-0.75 0.49-0.99 0.73z m23.06 0.71c-3.31 0-4.96-2.01-4.96-6.04v-22.92c0-4.02 2.01-6.04 6.04-6.04h4.46c0.24 0 0.36-0.12 0.36-0.36v-26.95c0-4.03 1.75-6.04 5.25-6.04 3.45 0 5.17 2.01 5.17 6.04v6.83c0 0.24 0.12 0.36 0.36 0.36h10.42c4.03 0 6.04 1.61 6.04 4.81 0 3.21-2.01 4.81-6.04 4.81h-10.42c-0.24 0-0.36 0.12-0.36 0.36v9.77c0 0.24 0.12 0.36 0.36 0.36h8.12c4.02 0 6.04 2.01 6.04 6.04v22.57c0 4.02-1.73 6.04-5.17 6.04-3.5 0-5.25-0.94-5.25-2.8 0-0.24-0.12-0.36-0.36-0.36H522.6c-0.24 0-0.36 0.12-0.36 0.36 0 2.11-1.65 3.16-4.96 3.16z m4.96-13.51c0 0.24 0.12 0.36 0.36 0.36h14.73c0.24 0 0.36-0.12 0.36-0.36v-11.5c0-0.24-0.12-0.36-0.36-0.36H522.6c-0.24 0-0.36 0.12-0.36 0.36v11.5z" fill="#F5C754" p-id="3574"></path><path d="M557.37 712.69c-1.87 0-3.65-1.09-4.44-2.92-0.51-1.17-1.08-2.32-1.72-3.44a4.844 4.844 0 0 1 1.81-6.6 4.844 4.844 0 0 1 6.6 1.81c0.81 1.42 1.55 2.9 2.19 4.39a4.84 4.84 0 0 1-4.44 6.76z" fill="#FFFFFF" opacity=".6" p-id="3575"></path><path d="M548.74 700.06c-1.23 0-2.46-0.47-3.41-1.41a35.635 35.635 0 0 0-10.54-7.24c-2.44-1.09-3.53-3.95-2.44-6.39 1.09-2.44 3.95-3.54 6.39-2.44a45.2 45.2 0 0 1 13.41 9.2c1.9 1.88 1.91 4.95 0.03 6.84-0.95 0.96-2.19 1.44-3.44 1.44z" fill="#FFFFFF" opacity=".6" p-id="3576"></path><path d="M405.41 654.98c14.18 0 25.68 11.5 25.68 25.68 0 7.09-2.87 13.51-7.52 18.16l3.55 3.55c5.56-5.56 8.99-13.23 8.99-21.71 0-16.96-13.75-30.7-30.7-30.7-8.48 0-16.15 3.44-21.71 8.99l3.55 3.55a25.597 25.597 0 0 1 18.16-7.52z" fill="#BFB6D9" p-id="3577"></path><path d="M423.57 698.81a25.597 25.597 0 0 1-18.16 7.52c-14.18 0-25.68-11.5-25.68-25.68 0-7.09 2.87-13.51 7.52-18.16l-3.55-3.55c-5.56 5.56-8.99 13.23-8.99 21.71 0 16.96 13.75 30.7 30.7 30.7 8.48 0 16.15-3.44 21.71-8.99l-3.55-3.55z" fill="#8674B3" p-id="3578"></path><path d="M405.41 702.86c-12.26 0-22.2-9.94-22.2-22.2 0-6.13 2.49-11.68 6.5-15.7l-2.46-2.46a25.597 25.597 0 0 0-7.52 18.16c0 14.18 11.5 25.68 25.68 25.68 7.09 0 13.51-2.87 18.16-7.52l-2.46-2.46c-4.01 4.01-9.57 6.5-15.7 6.5z" fill="#BFB6D9" p-id="3579"></path><path d="M405.41 654.98c-7.09 0-13.51 2.87-18.16 7.52l2.46 2.46c4.02-4.02 9.57-6.5 15.7-6.5 12.26 0 22.2 9.94 22.2 22.2 0 6.13-2.49 11.68-6.5 15.7l2.46 2.46a25.597 25.597 0 0 0 7.52-18.16c0-14.19-11.5-25.68-25.68-25.68z" fill="#9483BC" p-id="3580"></path><path d="M427.62 680.65c0-12.26-9.94-22.2-22.2-22.2a22.1 22.1 0 0 0-15.78 6.59l31.46 31.33a22.14 22.14 0 0 0 6.52-15.72z" fill="#8674B3" p-id="3581"></path><path d="M389.63 665.04a22.11 22.11 0 0 0-6.42 15.61c0 12.26 9.94 22.2 22.2 22.2 6.12 0 11.66-2.48 15.68-6.48l-31.46-31.33z" fill="#9483BC" p-id="3582"></path><path d="M421.99 675.4c-0.79 0-1.54-0.46-1.88-1.23-0.21-0.49-0.46-0.98-0.73-1.45a2.045 2.045 0 0 1 3.55-2.03c0.34 0.6 0.65 1.22 0.93 1.86 0.45 1.04-0.03 2.24-1.07 2.69-0.26 0.11-0.53 0.16-0.8 0.16z" fill="#FFFFFF" opacity=".6" p-id="3583"></path><path d="M418.34 670.06c-0.52 0-1.04-0.2-1.44-0.59-1.3-1.29-2.8-2.32-4.46-3.06a2.044 2.044 0 0 1-1.03-2.7c0.46-1.03 1.67-1.5 2.7-1.03 2.11 0.94 4.02 2.25 5.67 3.89a2.04 2.04 0 0 1-1.44 3.49z" fill="#FFFFFF" opacity=".6" p-id="3584"></path><path d="M333.74 618.92c10.82 0 19.6 8.77 19.6 19.6 0 5.41-2.19 10.31-5.74 13.86l2.71 2.71a23.36 23.36 0 0 0 6.86-16.57c0-12.94-10.49-23.43-23.43-23.43a23.36 23.36 0 0 0-16.57 6.86l2.71 2.71c3.55-3.55 8.45-5.74 13.86-5.74z" fill="#E2B7D4" p-id="3585"></path><path d="M347.6 652.37a19.536 19.536 0 0 1-13.86 5.74c-10.82 0-19.6-8.77-19.6-19.6 0-5.41 2.19-10.31 5.74-13.86l-2.71-2.71a23.36 23.36 0 0 0-6.86 16.57c0 12.94 10.49 23.43 23.43 23.43 6.47 0 12.33-2.62 16.57-6.86l-2.71-2.71z" fill="#D38FBC" p-id="3586"></path><path d="M333.74 655.46c-9.36 0-16.95-7.59-16.95-16.95 0-4.68 1.9-8.92 4.96-11.98l-1.87-1.87a19.536 19.536 0 0 0-5.74 13.86c0 10.82 8.77 19.6 19.6 19.6 5.41 0 10.31-2.19 13.86-5.74l-1.87-1.87a16.932 16.932 0 0 1-11.99 4.95z" fill="#E2B7D4" p-id="3587"></path><path d="M333.74 618.92c-5.41 0-10.31 2.19-13.86 5.74l1.87 1.87c3.07-3.07 7.3-4.96 11.98-4.96 9.36 0 16.95 7.59 16.95 16.95 0 4.68-1.9 8.92-4.96 11.98l1.87 1.87c3.55-3.55 5.74-8.45 5.74-13.86 0.01-10.82-8.76-19.59-19.59-19.59z" fill="#D38FBC" p-id="3588"></path><path d="M350.69 638.52c0-9.36-7.59-16.95-16.95-16.95-4.71 0-8.97 1.93-12.05 5.03l24.01 23.91c3.08-3.06 4.99-7.31 4.99-11.99z" fill="#E2B7D4" p-id="3589"></path><path d="M321.7 626.6c-3.03 3.06-4.9 7.27-4.9 11.91 0 9.36 7.59 16.95 16.95 16.95 4.67 0 8.9-1.89 11.97-4.95L321.7 626.6z" fill="#D38FBC" p-id="3590"></path><path d="M346.39 634.51c-0.6 0-1.18-0.35-1.43-0.94-0.16-0.38-0.35-0.75-0.55-1.11-0.43-0.75-0.17-1.7 0.58-2.13 0.75-0.43 1.7-0.17 2.13 0.58 0.26 0.46 0.5 0.93 0.71 1.42a1.56 1.56 0 0 1-1.44 2.18z" fill="#FFFFFF" opacity=".6" p-id="3591"></path><path d="M343.61 630.43c-0.4 0-0.79-0.15-1.1-0.45-0.99-0.98-2.13-1.77-3.4-2.33-0.79-0.35-1.14-1.28-0.79-2.06s1.27-1.14 2.06-0.79c1.61 0.72 3.07 1.72 4.32 2.97 0.61 0.61 0.62 1.6 0.01 2.21-0.3 0.3-0.7 0.45-1.1 0.45z" fill="#FFFFFF" opacity=".6" p-id="3592"></path><path d="M628.16 653.7c-14.18 0-25.68 11.5-25.68 25.68 0 7.09 2.87 13.51 7.52 18.16l-3.55 3.55c-5.56-5.56-8.99-13.23-8.99-21.71 0-16.96 13.75-30.7 30.7-30.7 8.48 0 16.15 3.44 21.71 8.99l-3.55 3.55c-4.65-4.64-11.07-7.52-18.16-7.52z" fill="#8674B3" p-id="3593"></path><path d="M610 697.54a25.597 25.597 0 0 0 18.16 7.52c14.18 0 25.68-11.5 25.68-25.68 0-7.09-2.87-13.51-7.52-18.16l3.55-3.55c5.56 5.56 8.99 13.23 8.99 21.71 0 16.96-13.75 30.7-30.7 30.7-8.48 0-16.15-3.44-21.71-8.99l3.55-3.55z" fill="#BFB6D9" p-id="3594"></path><path d="M628.16 701.59c12.26 0 22.2-9.94 22.2-22.2 0-6.13-2.49-11.68-6.5-15.7l2.46-2.46a25.597 25.597 0 0 1 7.52 18.16c0 14.18-11.5 25.68-25.68 25.68-7.09 0-13.51-2.87-18.16-7.52l2.46-2.46c4.02 4.01 9.57 6.5 15.7 6.5z" fill="#8674B3" p-id="3595"></path><path d="M628.16 653.7c7.09 0 13.51 2.87 18.16 7.52l-2.46 2.46c-4.02-4.02-9.57-6.5-15.7-6.5-12.26 0-22.2 9.94-22.2 22.2 0 6.13 2.49 11.68 6.5 15.7l-2.46 2.46a25.597 25.597 0 0 1-7.52-18.16c0-14.18 11.5-25.68 25.68-25.68z" fill="#9483BC" p-id="3596"></path><path d="M605.96 679.38c0-12.26 9.94-22.2 22.2-22.2a22.1 22.1 0 0 1 15.78 6.59l-31.46 31.33a22.133 22.133 0 0 1-6.52-15.72z" fill="#8674B3" p-id="3597"></path><path d="M643.94 663.77a22.11 22.11 0 0 1 6.42 15.61c0 12.26-9.94 22.2-22.2 22.2-6.12 0-11.66-2.48-15.68-6.48l31.46-31.33z" fill="#9483BC" p-id="3598"></path><path d="M611.59 674.13c0.79 0 1.54-0.46 1.88-1.23 0.21-0.49 0.46-0.98 0.73-1.45a2.045 2.045 0 0 0-3.55-2.03c-0.34 0.6-0.65 1.22-0.93 1.86-0.45 1.04 0.03 2.24 1.07 2.69 0.25 0.11 0.53 0.16 0.8 0.16z" fill="#FFFFFF" opacity=".6" p-id="3599"></path><path d="M615.24 668.79c0.52 0 1.04-0.2 1.44-0.59 1.3-1.29 2.8-2.32 4.46-3.06a2.044 2.044 0 0 0 1.03-2.7c-0.46-1.03-1.67-1.5-2.7-1.03-2.11 0.94-4.02 2.25-5.67 3.89-0.8 0.8-0.81 2.09-0.01 2.89 0.39 0.4 0.92 0.6 1.45 0.6z" fill="#FFFFFF" opacity=".6" p-id="3600"></path><path d="M699.83 617.65c-10.82 0-19.6 8.77-19.6 19.6 0 5.41 2.19 10.31 5.74 13.86l-2.71 2.71a23.36 23.36 0 0 1-6.86-16.57c0-12.94 10.49-23.43 23.43-23.43 6.47 0 12.33 2.62 16.57 6.86l-2.71 2.71a19.536 19.536 0 0 0-13.86-5.74z" fill="#E2B7D4" p-id="3601"></path><path d="M685.97 651.1c3.55 3.55 8.45 5.74 13.86 5.74 10.82 0 19.6-8.77 19.6-19.6 0-5.41-2.19-10.31-5.74-13.86l2.71-2.71a23.36 23.36 0 0 1 6.86 16.57c0 12.94-10.49 23.43-23.43 23.43a23.36 23.36 0 0 1-16.57-6.86l2.71-2.71z" fill="#D38FBC" p-id="3602"></path><path d="M699.83 654.19c9.36 0 16.95-7.59 16.95-16.95 0-4.68-1.9-8.92-4.96-11.98l1.87-1.87c3.55 3.55 5.74 8.45 5.74 13.86 0 10.82-8.77 19.6-19.6 19.6-5.41 0-10.31-2.19-13.86-5.74l1.87-1.87c3.07 3.05 7.31 4.95 11.99 4.95z" fill="#E2B7D4" p-id="3603"></path><path d="M699.83 617.65c5.41 0 10.31 2.19 13.86 5.74l-1.87 1.87c-3.07-3.07-7.3-4.96-11.98-4.96-9.36 0-16.95 7.59-16.95 16.95 0 4.68 1.9 8.92 4.96 11.98l-1.87 1.87a19.536 19.536 0 0 1-5.74-13.86c-0.01-10.82 8.77-19.59 19.59-19.59z" fill="#D38FBC" p-id="3604"></path><path d="M682.88 637.24c0-9.36 7.59-16.95 16.95-16.95 4.71 0 8.97 1.93 12.05 5.03l-24.01 23.91c-3.08-3.06-4.99-7.3-4.99-11.99z" fill="#E2B7D4" p-id="3605"></path><path d="M711.88 625.33c3.03 3.06 4.9 7.27 4.9 11.91 0 9.36-7.59 16.95-16.95 16.95-4.67 0-8.9-1.89-11.97-4.95l24.02-23.91z" fill="#D38FBC" p-id="3606"></path><path d="M687.18 633.24c0.6 0 1.18-0.35 1.43-0.94 0.16-0.38 0.35-0.75 0.55-1.11 0.43-0.75 0.17-1.7-0.58-2.13-0.75-0.43-1.7-0.17-2.13 0.58-0.26 0.46-0.5 0.93-0.71 1.42a1.56 1.56 0 0 0 1.44 2.18z" fill="#FFFFFF" opacity=".6" p-id="3607"></path><path d="M689.97 629.16c0.4 0 0.79-0.15 1.1-0.45 0.99-0.98 2.13-1.77 3.4-2.33 0.79-0.35 1.14-1.28 0.79-2.06-0.35-0.79-1.27-1.14-2.06-0.79-1.61 0.72-3.07 1.72-4.32 2.97-0.61 0.61-0.62 1.6-0.01 2.21 0.29 0.3 0.7 0.45 1.1 0.45z" fill="#FFFFFF" opacity=".6" p-id="3608"></path><path d="M506.14 487.83l-113.91 2.62-21.64-56.57 135.55 53.95z" fill="#F5C754" p-id="3609"></path><path d="M506.14 487.83l-57.7-136.99 55.07 22.64 2.63 114.35zM563.66 624.43l-54.86-23.01-0.05 0.02-2.61-113.61z" fill="#D89D31" p-id="3610"></path><path d="M506.14 487.83l2.61 113.61-56.8 22.52 54.19-136.13z" fill="#F5C754" p-id="3611"></path><path d="M506.14 487.83l82.7 77.74-25.18 58.86-57.52-136.6z" fill="#F5C754" p-id="3612"></path><path d="M506.14 487.83l-135.32 56.99 21.41-54.37z" fill="#D89D31" p-id="3613"></path><path d="M506.14 487.83l135.52 53.95-52.82 23.79-82.7-77.74z" fill="#D89D31" p-id="3614"></path><path d="M427.87 571.1l-57.05-26.28 135.32-56.99z" fill="#F5C754" p-id="3615"></path><path d="M451.95 623.96l-0.37 0.15-23.71-53.01 78.27-83.27z" fill="#D89D31" p-id="3616"></path><path d="M506.14 487.83L584 404.99l58.15 25.56-136.01 57.28zM503.51 373.48l56.64-22.14 0.17 0.37-54.18 136.12z" fill="#F5C754" p-id="3617"></path><path d="M506.14 487.83l-83.13-78.13 25.43-58.86 57.7 136.99z" fill="#F5C754" p-id="3618"></path><path d="M506.14 487.83l54.18-136.12L584 404.99l-77.86 82.84z" fill="#D89D31" p-id="3619"></path><path d="M506.14 487.83l136.01-57.28-23.11 54.69-112.9 2.59zM370.59 433.88l-0.19-0.5 52.61-23.68 83.13 78.13z" fill="#D89D31" p-id="3620"></path><path d="M619.04 485.24l23.12 56.31-0.5 0.23-135.52-53.95z" fill="#F5C754" p-id="3621"></path><path d="M506.14 487.83l-95.57 40.61-37.39-40.61h132.96z" fill="#EAAB25" p-id="3622"></path><path d="M506.14 487.83l-95.03-96.55 54.26 0.61 40.77 95.94zM600.88 584.11l-54.2-0.99-0.04 0.04-40.5-95.33z" fill="#E8C742" p-id="3623"></path><path d="M506.14 487.83l40.5 95.33-40.5 38.2V487.83z" fill="#EAAB25" p-id="3624"></path><path d="M506.14 487.83l96.23 37.95-1.49 58.33-94.74-96.28z" fill="#EAAB25" p-id="3625"></path><path d="M506.14 487.83l-95.38 93.86-0.19-53.25z" fill="#E8C742" p-id="3626"></path><path d="M506.14 487.83h132.94l-36.71 37.95-96.23-37.95z" fill="#E8C742" p-id="3627"></path><path d="M467.93 584.72l-57.17-3.03 95.38-93.86z" fill="#EAAB25" p-id="3628"></path><path d="M506.14 621.36l-0.27 0.26-37.94-36.9 38.21-96.89z" fill="#E8C742" p-id="3629"></path><path d="M506.14 487.83l38.01-96.39 57.85 2.05-95.86 94.34zM465.37 391.89l40.5-37.84 0.27 0.26v133.52zM506.14 487.83l-96.73-38.14 1.7-58.41 95.03 96.55z" fill="#EAAB25" p-id="3630"></path><path d="M506.14 487.83V354.31l38.01 37.13-38.01 96.39zM506.14 487.83L602 393.49l-1.14 54.09-94.72 40.25z" fill="#E8C742" p-id="3631"></path><path d="M373.18 487.83l-0.33-0.36 36.56-37.78 96.73 38.14z" fill="#E8C742" p-id="3632"></path><path d="M600.86 447.58l38.56 39.89-0.34 0.36H506.14z" fill="#EAAB25" p-id="3633"></path><path d="M468.89 573.2c46.65 21.8 102.35 1.59 124.15-45.06l-169.21-79.08c-21.81 46.65-1.6 102.34 45.06 124.14z" fill="#BEBFBF" p-id="3634"></path><path d="M547.97 403.99c-46.65-21.8-102.34-1.59-124.15 45.07l169.21 79.08c21.81-46.66 1.59-102.35-45.06-124.15z" fill="#EEEEEF" p-id="3635"></path><path d="M597.45 530.07c-22.9 49.16-81.33 70.45-130.49 47.55s-70.45-81.33-47.55-130.49l-4.36-2.03c-23.99 51.49-1.61 112.9 49.88 136.89 51.49 23.99 112.9 1.61 136.89-49.88l-4.37-2.04z" fill="#BEBFBF" p-id="3636"></path><path d="M549.9 399.57c49.16 22.9 70.45 81.33 47.55 130.49l4.36 2.03c23.99-51.49 1.61-112.9-49.88-136.89-51.49-23.99-112.9-1.61-136.89 49.88l4.36 2.03c22.91-49.15 81.34-70.44 130.5-47.54zM593.08 528.03c-21.75 46.68-77.41 66.96-124.09 45.22-46.68-21.75-66.96-77.41-45.22-124.09l-4.36-2.03c-22.9 49.16-1.62 107.59 47.55 130.49s107.59 1.62 130.49-47.55l-4.37-2.04z" fill="#EEEEEF" p-id="3637"></path><path d="M549.9 399.57c-49.16-22.9-107.59-1.62-130.49 47.55l4.36 2.03c21.75-46.68 77.41-66.96 124.09-45.22 46.68 21.75 66.96 77.41 45.22 124.09l4.36 2.03c22.91-49.15 1.62-107.57-47.54-130.48z" fill="#BEBFBF" p-id="3638"></path><path d="M505.85 483.64l25.64-25.29-25.35-51.86-0.29 77.15zM588.59 466.86l-57.1-8.51-25.64 25.29z" fill="#A57628" p-id="3639"></path><path d="M506.14 406.49l-25.74 51.67 25.45 25.48z" fill="#A57628" p-id="3640"></path><path d="M505.85 483.64l-0.19 53.25 50.99 27.05v-0.03l-50.8-80.27zM454.46 563.56l51.2-26.67 0.19-53.25zM556.65 563.91l-49.93-78.9-0.86-1.37h0.05l33.22 18.83 8.11 4.39-0.14 0.14zM505.85 483.64l-25.45-25.48-57.16 8.09 82.61 17.39z" fill="#A57628" p-id="3641"></path><path d="M505.85 483.64l-41.42 23.06-9.97 56.86 51.39-79.92z" fill="#A57628" p-id="3642"></path><path d="M505.85 483.64l-82.61-17.39 41.19 40.45 41.42-23.06zM588.59 466.87l-41.35 39.99-8.11-4.39-33.22-18.83z" fill="#A57628" p-id="3643"></path><path d="M508.42 482.35l25.64-25.29-25.36-51.86-0.28 77.15z" fill="#F2DD81" p-id="3644"></path><path d="M591.16 465.58l-57.1-8.52-25.64 25.29z" fill="#EAAB25" p-id="3645"></path><path d="M508.7 405.2l-25.74 51.68 25.46 25.47z" fill="#D89D31" p-id="3646"></path><path d="M508.42 482.35l-0.2 53.25 51 27.05v-0.03l-50.8-80.27z" fill="#E8C742" p-id="3647"></path><path d="M457.03 562.28l51.19-26.68 0.2-53.25zM559.22 562.63l-49.93-78.91-0.86-1.37h0.05l33.22 18.84 8.1 4.38-0.14 0.14z" fill="#EAAB25" p-id="3648"></path><path d="M508.42 482.35l-25.46-25.47-57.15 8.09 82.61 17.38z" fill="#E8C742" p-id="3649"></path><path d="M508.42 482.35L467 505.41l-9.97 56.87 51.39-79.93z" fill="#E8C742" p-id="3650"></path><path d="M508.42 482.35l-82.61-17.38L467 505.41l41.42-23.06z" fill="#EAAB25" p-id="3651"></path><path d="M591.16 465.59l-41.36 39.98-8.1-4.38-33.22-18.84z" fill="#E8C742" p-id="3652"></path><path d="M559.12 251c0.2-2.12-0.42-4.31-1.94-6.03L522.91 192a7.893 7.893 0 0 0-5.54-2.65L514 247.29l45.12 3.71z" fill="#D38FBC" p-id="3653"></path><path d="M517.37 189.36c-2-0.1-4.04 0.55-5.66 1.99l-40.15 47.08c-1.56 1.38-2.42 3.25-2.6 5.17l45.04 3.7 3.37-57.94z" fill="#AC2283" p-id="3654"></path><path d="M468.96 243.59c-0.2 2.12 0.42 4.31 1.94 6.03l34.26 52.96a7.919 7.919 0 0 0 5.47 2.65l3.37-57.94-45.04-3.7z" fill="#D38FBC" p-id="3655"></path><path d="M514 247.29l-3.37 57.94c2.03 0.12 4.1-0.54 5.73-1.99l40.15-47.08c1.56-1.38 2.42-3.25 2.6-5.17l-45.11-3.7z" fill="#AC2283" p-id="3656"></path><path d="M483.01 244.75l33.41-39.18 28.65 44.27-33.42 39.19z" fill="#BB5198" p-id="3657"></path><path d="M471.56 238.42l40.15-47.08a7.925 7.925 0 0 1 11.2 0.66l34.26 52.96c0.63 0.7 1.07 1.5 1.41 2.33h1.25a8.46 8.46 0 0 0-1.7-2.94l-34.37-53.1a9.03 9.03 0 0 0-6.24-3.03c-2.42-0.16-4.74 0.66-6.66 2.39l-40.04 46.97c-2.83 2.51-3.7 6.41-2.57 9.72h1.25c-1.21-3.02-0.51-6.59 2.06-8.88z" fill="#F2DD81" p-id="3658"></path><path d="M558.59 247.3c1.21 3.02 0.51 6.59-2.06 8.87l-40.15 47.08a7.925 7.925 0 0 1-11.2-0.66l-34.26-52.96c-0.63-0.7-1.07-1.5-1.41-2.33h-1.25c0.36 1.06 0.93 2.07 1.71 2.94l34.26 52.96 0.1 0.14a9.03 9.03 0 0 0 6.24 3.03c0.18 0.01 0.36 0.02 0.54 0.02 2.22 0 4.35-0.81 6.12-2.4l40.04-46.97a9.03 9.03 0 0 0 3.03-6.24c0.07-1.2-0.09-2.39-0.46-3.48h-1.25z" fill="#D89D31" p-id="3659"></path><path d="M511.72 191.35l-40.15 47.08c-2.57 2.28-3.27 5.85-2.07 8.87h1.23c-1.28-2.67-0.72-5.98 1.69-8.14l40.04-46.97a6.774 6.774 0 0 1 4.92-1.71c1.81 0.11 3.48 0.91 4.58 2.14l34.37 53.1c0.42 0.48 0.75 1.02 1.02 1.58h1.23c-0.33-0.83-0.78-1.62-1.41-2.33L522.91 192a7.815 7.815 0 0 0-3.96-2.41 7.906 7.906 0 0 0-7.23 1.76zM516.37 303.25l40.15-47.08c2.57-2.28 3.27-5.85 2.07-8.87h-1.23c0.5 1.03 0.76 2.17 0.69 3.34-0.11 1.81-0.91 3.48-2.38 4.8l-40.04 46.97a6.774 6.774 0 0 1-4.92 1.71c-1.79-0.1-3.43-0.89-4.63-2.21l-34.32-53.03c-0.43-0.48-0.75-1.02-1.01-1.58h-1.23c0.33 0.83 0.78 1.62 1.41 2.33l34.26 52.96a7.815 7.815 0 0 0 3.96 2.41c2.45 0.63 5.17 0.06 7.22-1.75z" fill="#F5C754" p-id="3660"></path><path d="M471.57 238.42l40.15-47.08-40.15 47.08c-2.58 2.28-3.28 5.85-2.07 8.87h0.01a7.892 7.892 0 0 1 2.06-8.87zM470.91 249.62c-0.63-0.71-1.08-1.5-1.41-2.33h-0.01c0.34 0.83 0.79 1.63 1.42 2.33l34.26 52.96a7.903 7.903 0 0 0 3.96 2.42 7.954 7.954 0 0 1-3.96-2.41l-34.26-52.97z" fill="#A57628" p-id="3661"></path></svg>