<?xml version="1.0" standalone="no"?><!DOCTYPE svg PUBLIC "-//W3C//DTD SVG 1.1//EN" "http://www.w3.org/Graphics/SVG/1.1/DTD/svg11.dtd"><svg t="1754909358069" class="icon" viewBox="0 0 1024 1024" version="1.1" xmlns="http://www.w3.org/2000/svg" p-id="8219" xmlns:xlink="http://www.w3.org/1999/xlink" width="200" height="200"><path d="M1015.660989 918.16163l-104.30164-71.679949a15.359989 15.359989 0 0 0-10.239993 0c-7.679995 0-7.679995 5.778282-7.679994 5.778282v55.076532h-102.399927s-80.018229-10.898278-80.018229-40.301686c0 0 0 92.818219 82.578227 92.81822h101.083357v58.879958s0 3.803426 7.31428 4.461711a8.996565 8.996565 0 0 0 7.679995 0l104.301639-73.142805a18.578272 18.578272 0 0 0 9.581708-14.628561 15.359989 15.359989 0 0 0-8.33828-17.261702z" fill="#999999" p-id="8220"></path><path d="M782.993726 836.095403c6.363424 0 6.363424-5.119996 6.363424-5.119997v-55.076532h101.1565s80.457085 10.239993 80.457085 40.301686c0 0 0-93.476505-83.163369-93.476505h-98.450216v-58.514244s0-3.218283-6.363424-4.461711a12.799991 12.799991 0 0 0-9.581707 0l-104.30164 73.581662a18.578272 18.578272 0 0 0-9.581707 14.628561 15.359989 15.359989 0 0 0 7.31428 13.458276l104.30164 71.021664a23.698269 23.698269 0 0 0 12.141706 3.218283z" fill="#999999" p-id="8221"></path><path d="M622.884127 398.555144a53.101676 53.101676 0 0 0-37.083403-16.67656 54.418247 54.418247 0 0 0-37.741687 15.359989 53.101676 53.101676 0 0 0 0 75.556518 144.018183 144.018183 0 0 1 0 202.898141l-196.754145 197.705001a143.43304 143.43304 0 0 1-202.60557-202.898141l89.599936-89.599936A53.174819 53.174819 0 1 0 163.401026 505.416782L73.362233 595.675003a249.782679 249.782679 0 0 0 353.279748 353.279748l196.461574-197.485573a248.685537 248.685537 0 0 0 0-353.279748z" fill="#999999" p-id="8222"></path><path d="M474.477375 623.396126a54.418247 54.418247 0 0 0 0-75.556517 142.701612 142.701612 0 0 1 0-202.898141L670.938949 148.479894a143.43304 143.43304 0 0 1 202.898141 202.60557l-90.258221 89.892507a53.394248 53.394248 0 0 0 75.556517 75.556517l89.599936-90.258221A249.636393 249.636393 0 0 0 772.095449 0a250.221536 250.221536 0 0 0-176.932446 73.142805L398.920858 270.116378a250.221536 250.221536 0 0 0 0 353.279748 54.418247 54.418247 0 0 0 75.556517 0z" fill="#999999" p-id="8223"></path></svg>