<?xml version="1.0" standalone="no"?><!DOCTYPE svg PUBLIC "-//W3C//DTD SVG 1.1//EN" "http://www.w3.org/Graphics/SVG/1.1/DTD/svg11.dtd"><svg class="icon" width="200px" height="200.00px" viewBox="0 0 1024 1024" version="1.1" xmlns="http://www.w3.org/2000/svg"><path d="M220.416 889.408c18.176 10.048 39.936 10.112 58.112 0L832 580.992l0 282.88c0 17.664 14.336 32 32 32S896 881.536 896.00000001 863.872l-1e-8-344.896C896.256 516.8 896.896 514.752 896.896 512.512S896.256 508.16 896 505.984l0-346.112c0-17.664-14.336-32-32-32s-32 14.336-32 31.99999999L832 444.03200001l-553.408-308.35200001C269.44 130.56 259.52 128 249.47199999 128s-19.968 2.56-29.056 7.616c-18.176 10.11200001-28.992 28.224-28.99199999 48.576L191.424 840.896C191.424 861.12 202.24 879.232 220.416 889.408zM255.808 194.752L825.984 512.512 252.672 832 255.808 194.752z" /></svg>