<?xml version="1.0" standalone="no"?><!DOCTYPE svg PUBLIC "-//W3C//DTD SVG 1.1//EN" "http://www.w3.org/Graphics/SVG/1.1/DTD/svg11.dtd"><svg t="1755341672355" class="icon" viewBox="0 0 1105 1024" version="1.1" xmlns="http://www.w3.org/2000/svg" p-id="7259" xmlns:xlink="http://www.w3.org/1999/xlink" width="215.8203125" height="200"><path d="M559.884892 581.985612m-442.014388 0a442.014388 442.014388 0 1 0 884.028777 0 442.014388 442.014388 0 1 0-884.028777 0Z" fill="#F5F5F5" p-id="7260"></path><path d="M298.359712 657.128058v111.070848a47.884892 47.884892 0 0 0 47.884892 47.884893h422.587856a47.884892 47.884892 0 0 0 47.884893-47.884893V658.004719a18.417266 18.417266 0 0 0-3.351943-10.593611L744.448 549.423885a47.884892 47.884892 0 0 0-39.169842-20.332662H401.570072a47.884892 47.884892 0 0 0-40.621122 22.513266l-59.79718 95.769784a18.417266 18.417266 0 0 0-2.792058 9.746418z m-15.949352-21.467166l59.79718-95.762417a69.985612 69.985612 0 0 1 59.362532-32.915338h303.708086a69.985612 69.985612 0 0 1 57.24823 29.725467l68.917411 97.979856a40.517986 40.517986 0 0 1 7.374273 23.316259v110.194187a69.985612 69.985612 0 0 1-69.985612 69.985612H346.244604a69.985612 69.985612 0 0 1-69.985611-69.985612V657.120691c0-7.587914 2.136403-15.028489 6.151367-21.459799z" fill="#CCCCCC" p-id="7261"></path><path d="M484.491971 661.923914c0 41.203108 33.401554 74.612029 74.612029 74.612028 41.203108 0 74.604662-33.408921 74.604662-74.612028h191.856345V773.52518a58.935252 58.935252 0 0 1-58.935252 58.935252H346.244604a58.935252 58.935252 0 0 1-58.935251-58.935252V661.923914h197.182618z" fill="#FFFFFF" p-id="7262"></path><path d="M298.359712 672.974273V773.52518a47.884892 47.884892 0 0 0 47.884892 47.884892h420.385151a47.884892 47.884892 0 0 0 47.884892-47.884892V672.974273H644.051799c-5.414676 42.087137-41.387281 74.612029-84.947799 74.612029-43.567885 0-79.533122-32.524892-84.955165-74.612029H298.359712z m197.182619-11.050359a63.561669 63.561669 0 0 0 127.115971 0v-11.05036h213.957065V773.52518a69.985612 69.985612 0 0 1-69.985612 69.985611H346.244604A69.985612 69.985612 0 0 1 276.258993 773.52518V650.873554h219.283338v11.05036z" fill="#CCCCCC" p-id="7263"></path><path d="M548.444086 331.510791m11.05036 0l0 0q11.05036 0 11.05036 11.05036l0 121.789698q0 11.05036-11.05036 11.05036l0 0q-11.05036 0-11.05036-11.05036l0-121.789698q0-11.05036 11.05036-11.05036Z" fill="#D8D8D8" p-id="7264"></path><path d="M742.223194 406.446964a11.05036 11.05036 0 0 1 0 15.617842l-52.201899 52.209266a11.05036 11.05036 0 0 1-15.625209-15.625209l52.2019-52.201899a11.05036 11.05036 0 0 1 15.625208 0zM375.955338 406.446964a11.05036 11.05036 0 0 0 0 15.617842l52.201899 52.209266a11.05036 11.05036 0 0 0 15.625209-15.625209l-52.194532-52.201899a11.05036 11.05036 0 0 0-15.632576 0z" fill="#D8D8D8" p-id="7265"></path><path d="M559.855424 46.544115L523.05036 41.67459l36.805064-4.869525 4.862159-36.805065 4.876892 36.805065 36.805065 4.862158-36.805065 4.876892-4.869525 36.805065zM36.805065 547.493755L0 542.62423l36.805065-4.869525 4.862158-36.805065 4.876892 36.805065 36.805065 4.862158-36.805065 4.876892-4.869525 36.805065z" fill="#CCCCCC" p-id="7266"></path><path d="M1090.302158 486.215827m-14.733813 0a14.733813 14.733813 0 1 0 29.467626 0 14.733813 14.733813 0 1 0-29.467626 0Z" fill="#CCCCCC" p-id="7267"></path><path d="M191.539568 198.906475m-14.733813 0a14.733813 14.733813 0 1 0 29.467626 0 14.733813 14.733813 0 1 0-29.467626 0Z" fill="#F5F5F5" p-id="7268"></path><path d="M847.194245 132.604317m7.366906 0l58.935252 0q7.366906 0 7.366906 7.366906l0 0q0 7.366906-7.366906 7.366906l-58.935252 0q-7.366906 0-7.366906-7.366906l0 0q0-7.366906 7.366906-7.366906Z" fill="#ECECEC" p-id="7269"></path><path d="M66.302158 287.309353m7.366907 0l58.935252 0q7.366906 0 7.366906 7.366906l0 0q0 7.366906-7.366906 7.366906l-58.935252 0q-7.366906 0-7.366907-7.366906l0 0q0-7.366906 7.366907-7.366906Z" fill="#ECECEC" p-id="7270"></path><path d="M891.395683 103.136691m0 7.366906l0 58.935252q0 7.366906-7.366906 7.366906l0 0q-7.366906 0-7.366906-7.366906l0-58.935252q0-7.366906 7.366906-7.366906l0 0q7.366906 0 7.366906 7.366906Z" fill="#ECECEC" p-id="7271"></path><path d="M110.503597 257.841727m0 7.366906l0 58.935252q0 7.366906-7.366906 7.366906l0 0q-7.366906 0-7.366907-7.366906l0-58.935252q0-7.366906 7.366907-7.366906l0 0q7.366906 0 7.366906 7.366906Z" fill="#ECECEC" p-id="7272"></path></svg>