<?xml version="1.0" standalone="no"?><!DOCTYPE svg PUBLIC "-//W3C//DTD SVG 1.1//EN" "http://www.w3.org/Graphics/SVG/1.1/DTD/svg11.dtd"><svg t="1754910126653" class="icon" viewBox="0 0 1144 1024" version="1.1" xmlns="http://www.w3.org/2000/svg" p-id="14378" xmlns:xlink="http://www.w3.org/1999/xlink" width="223.4375" height="200"><path d="M312.888889 1024c-22.123457 0-41.08642-3.160494-60.049383-6.320988-18.962963-3.160494-37.925926-9.481481-56.888889-18.962963-18.962963-6.320988-31.604938-25.283951-37.925926-44.246913l-12.641975-53.728395-53.728395-3.160494c-22.123457-3.160494-37.925926-12.641975-50.567901-31.604938-18.962963-34.765432-31.604938-72.691358-37.925926-110.617284-3.160494-22.123457 3.160494-41.08642 22.123457-56.888889L66.37037 663.703704l-22.123456-47.407408c-9.481481-18.962963-9.481481-41.08642 3.160493-60.049382 18.962963-34.765432 47.407407-63.209877 75.851852-88.493828 15.802469-12.641975 37.925926-15.802469 56.888889-9.481481l53.728395 15.802469 28.444445-44.246914c12.641975-15.802469 31.604938-28.444444 53.728395-28.444444 18.962963 0 41.08642 3.160494 60.049382 6.320988 18.962963 3.160494 28.444444 22.123457 25.283951 37.925926-3.160494 18.962963-22.123457 28.444444-37.925926 25.28395-15.802469-3.160494-31.604938-3.160494-47.407407-3.160494l-28.444445 44.246914c-15.802469 22.123457-44.246914 31.604938-72.691358 25.283951l-53.728395-15.80247c-22.123457 18.962963-41.08642 41.08642-56.888889 66.370371l15.802469 44.246913c12.641975 25.283951 6.320988 56.888889-15.802469 75.851852L63.209877 742.716049c6.320988 28.444444 15.802469 60.049383 31.604938 85.333334l53.728395 3.160494c28.444444 3.160494 50.567901 22.123457 56.888889 50.567901l15.802469 56.888889c12.641975 6.320988 28.444444 9.481481 44.246913 12.641975 15.802469 3.160494 31.604938 3.160494 47.407408 3.160494l28.444444-44.246914c15.802469-22.123457 44.246914-31.604938 72.691358-25.28395l53.728395 15.802469c22.123457-18.962963 41.08642-41.08642 56.888889-66.370371l-22.123456-44.246913c-12.641975-25.283951-6.320988-56.888889 15.802469-75.851852l41.086419-34.765432c12.641975-12.641975 34.765432-12.641975 47.407408 3.160494 12.641975 12.641975 12.641975 34.765432-3.160494 47.407407l-41.08642 34.765432 22.123457 47.407408c9.481481 18.962963 9.481481 41.08642-3.160494 60.049382-18.962963 34.765432-47.407407 63.209877-75.851852 88.493827-15.802469 12.641975-37.925926 15.802469-56.888889 9.481482l-53.728395-15.802469-28.444444 44.246913c-15.802469 12.641975-34.765432 25.283951-53.728395 25.283951z" fill="#2488FF" p-id="14379"></path><path d="M312.888889 824.888889c-6.320988 0-15.802469 0-22.123457-3.160494-63.209877-12.641975-104.296296-72.691358-91.654321-135.901235 6.320988-28.444444 22.123457-56.888889 47.407408-72.691358 25.283951-15.802469 56.888889-22.123457 85.333333-15.802469 63.209877 12.641975 104.296296 72.691358 91.654321 135.901235-6.320988 28.444444-22.123457 56.888889-47.407408 72.691358-18.962963 12.641975-41.08642 18.962963-63.209876 18.962963z m-3.160494-164.345679c-9.481481 0-18.962963 3.160494-28.444444 9.481481-12.641975 6.320988-18.962963 18.962963-22.123457 31.604939-6.320988 28.444444 12.641975 53.728395 41.08642 60.049382 12.641975 3.160494 28.444444 0 37.925926-6.320987 12.641975-6.320988 18.962963-18.962963 22.123456-31.604939 6.320988-28.444444-12.641975-53.728395-41.086419-60.049382-3.160494-3.160494-6.320988-3.160494-9.481482-3.160494z" fill="#424242" p-id="14380"></path><path d="M745.876543 799.604938c-25.283951 0-53.728395-3.160494-75.851852-6.320987-25.283951-6.320988-50.567901-12.641975-72.691358-22.123457-22.123457-9.481481-37.925926-28.444444-44.246913-50.567901l-15.802469-72.691358c0-3.160494-3.160494-6.320988-9.481482-9.481482l-75.851852-6.320988c-22.123457-3.160494-44.246914-15.802469-56.888889-34.765432-25.283951-44.246914-41.08642-91.654321-50.567901-142.222222-3.160494-25.283951 6.320988-47.407407 22.123457-66.37037l53.728395-47.407408c3.160494-3.160494 3.160494-9.481481 3.160494-12.641975l-31.604938-63.209877c-9.481481-22.123457-9.481481-47.407407 3.160493-69.530864 25.283951-44.246914 60.049383-82.17284 97.975309-113.777777 18.962963-12.641975 44.246914-18.962963 66.37037-9.481482L632.098765 94.814815c3.160494 0 9.481481 0 9.481482-3.160494L682.666667 31.604938c12.641975-18.962963 34.765432-31.604938 60.049382-31.604938 25.283951 0 53.728395 3.160494 75.851852 6.320988 25.283951 6.320988 50.567901 12.641975 72.691358 22.123456 22.123457 9.481481 37.925926 28.444444 44.246914 50.567902l15.802469 72.691358c0 3.160494 3.160494 6.320988 9.481481 9.481481l75.851852 6.320988c22.123457 3.160494 44.246914 15.802469 56.888889 34.765432 25.283951 44.246914 44.246914 91.654321 50.567901 142.222222 3.160494 25.283951-6.320988 47.407407-22.123456 66.370371l-53.728395 47.407407c-3.160494 3.160494-3.160494 9.481481-3.160494 12.641975l31.604938 63.209877c9.481481 22.123457 9.481481 47.407407-3.160494 69.530864-25.283951 44.246914-60.049383 82.17284-97.975308 113.777778-18.962963 12.641975-41.08642 18.962963-66.370371 9.481481l-72.691358-22.123457c-3.160494 0-9.481481 0-9.481481 3.160494l-41.08642 60.049383c-15.802469 18.962963-37.925926 31.604938-60.049383 31.604938zM537.283951 132.740741h-3.160494c-34.765432 25.283951-63.209877 56.888889-82.17284 94.814815v9.481481l31.604939 63.209877c12.641975 28.444444 6.320988 66.37037-15.80247 88.493827L410.864198 436.148148c-3.160494 3.160494-3.160494 6.320988-3.160494 9.481482 6.320988 41.08642 22.123457 82.17284 41.086419 120.098765 0 3.160494 3.160494 3.160494 6.320988 3.160494l75.851852 6.320988c31.604938 3.160494 56.888889 25.283951 63.209877 56.888888l15.802469 72.691358c0 3.160494 3.160494 6.320988 6.320987 6.320988 22.123457 9.481481 41.08642 15.802469 63.209877 18.962963 22.123457 3.160494 41.08642 6.320988 63.209876 6.320988 3.160494 0 6.320988-3.160494 6.320988-3.160494l41.08642-60.049383c18.962963-25.283951 50.567901-37.925926 82.172839-28.444444l72.691358 22.123457h6.320988c34.765432-25.283951 63.209877-56.888889 82.172839-94.814815v-9.481482l-31.604938-63.209876c-12.641975-28.444444-6.320988-66.37037 15.802469-88.493827l53.728395-47.407408c3.160494-3.160494 3.160494-6.320988 3.160494-9.481481-6.320988-41.08642-22.123457-82.17284-41.08642-120.098766 0-3.160494-3.160494-3.160494-6.320987-3.160494l-75.851852-6.320987c-31.604938-3.160494-56.888889-25.283951-63.209877-56.888889L875.45679 94.814815c0-3.160494-3.160494-6.320988-6.320988-6.320988-22.123457-9.481481-41.08642-15.802469-63.209876-18.962963-22.123457-3.160494-41.08642-6.320988-63.209877-6.320987-3.160494 0-6.320988 3.160494-6.320987 3.160493L695.308642 126.419753c-18.962963 25.283951-50.567901 37.925926-82.17284 28.444445L537.283951 132.740741c3.160494 0 0 0 0 0z" fill="#424242" p-id="14381"></path><path d="M745.876543 543.604938c-9.481481 0-18.962963 0-28.444444-3.160494-79.012346-15.802469-129.580247-91.654321-113.777778-167.506172 6.320988-37.925926 28.444444-69.530864 60.049383-91.654321 31.604938-22.123457 69.530864-28.444444 107.45679-22.123457 79.012346 15.802469 129.580247 91.654321 113.777778 167.506173-6.320988 37.925926-28.444444 69.530864-60.049383 91.654321-22.123457 15.802469-50.567901 25.283951-79.012346 25.28395z m-3.160494-221.234568c-15.802469 0-28.444444 3.160494-44.246913 12.641976-15.802469 12.641975-28.444444 28.444444-31.604938 47.407407-9.481481 41.08642 18.962963 82.17284 63.209876 91.654321 18.962963 3.160494 41.08642 0 56.888889-12.641975s28.444444-28.444444 31.604938-47.407408c9.481481-41.08642-18.962963-82.17284-63.209876-91.654321-3.160494 3.160494-6.320988 0-12.641976 0z m110.617284 97.975309z" fill="#2488FF" p-id="14382"></path></svg>