<?xml version="1.0" standalone="no"?><!DOCTYPE svg PUBLIC "-//W3C//DTD SVG 1.1//EN" "http://www.w3.org/Graphics/SVG/1.1/DTD/svg11.dtd"><svg t="1756368843285" class="icon" viewBox="0 0 1681 1024" version="1.1" xmlns="http://www.w3.org/2000/svg" p-id="6630" xmlns:xlink="http://www.w3.org/1999/xlink" width="328.3203125" height="200"><path d="M238.139535 895.337972a638.213953 91.174102 0 1 0 1276.427907 0 638.213953 91.174102 0 1 0-1276.427907 0Z" fill="#C2DFEF" p-id="6631"></path><path d="M550.735777 187.658716H1097.775628a34.735033 34.735033 0 0 1 34.73027 34.735033V795.481302a34.735033 34.735033 0 0 1-34.73027 34.735033H550.735777a34.735033 34.735033 0 0 1-34.735033-34.735033V222.393749a34.735033 34.735033 0 0 1 34.735033-34.735033z m0 26.052465a8.682567 8.682567 0 0 0-8.682568 8.682568V795.481302c0 4.79613 3.886437 8.68733 8.682568 8.687331H1097.775628a8.682567 8.682567 0 0 0 8.682567-8.687331V222.393749a8.682567 8.682567 0 0 0-8.682567-8.682568H550.735777z" fill="#68B1D6" p-id="6632"></path><path d="M602.831181 265.811349H1149.880558a34.735033 34.735033 0 0 1 34.73027 34.73027v573.092316a34.735033 34.735033 0 0 1-34.73027 34.73027H602.826419a34.735033 34.735033 0 0 1-34.73027-34.73027V300.541619a34.735033 34.735033 0 0 1 34.73027-34.73027z m0 26.047702a8.682567 8.682567 0 0 0-8.682567 8.682568v573.092316c0 4.791367 3.8912 8.682567 8.682567 8.682567H1149.880558a8.682567 8.682567 0 0 0 8.682568-8.682567V300.541619a8.682567 8.682567 0 0 0-8.682568-8.682568H602.826419z" fill="#68B1D6" p-id="6633"></path><path d="M594.148614 291.859051h564.404986v590.457451H594.148614z" fill="#FFFFFF" p-id="6634"></path><path d="M773.191442 767.571349c35.244651-27.814698 69.765358-41.555349 103.671665-41.555349 33.882493 0 68.031702 13.726363 102.590512 41.502958a8.682567 8.682567 0 0 0 10.878214-13.535851c-37.464112-30.110363-75.33306-45.332242-113.468726-45.332242-38.116614 0-76.299907 15.202828-114.426047 45.284614a8.682567 8.682567 0 1 0 10.754382 13.631107zM585.451758 478.546158h599.15907v-26.052465h-599.15907z" fill="#66B0D6" p-id="6635"></path><path d="M654.931349 370.006921m-17.365135 0a17.365135 17.365135 0 1 0 34.73027 0 17.365135 17.365135 0 1 0-34.73027 0Z" fill="#66B0D6" p-id="6636"></path><path d="M780.840484 626.164093a26.052465 26.052465 0 1 0 0-52.10493 26.052465 26.052465 0 0 0 0 52.10493z m0-8.68733a17.365135 17.365135 0 1 1 0-34.73027 17.365135 17.365135 0 0 1 0 34.73027z" fill="#66B0D6" p-id="6637"></path><path d="M780.840484 617.476763a17.365135 17.365135 0 1 1 0-34.73027 17.365135 17.365135 0 0 1 0 34.73027zM971.866493 617.476763a17.365135 17.365135 0 1 1 0-34.73027 17.365135 17.365135 0 0 1 0 34.73027z" fill="#C2DFEF" p-id="6638"></path><path d="M733.079219 370.006921m-17.365135 0a17.365135 17.365135 0 1 0 34.730269 0 17.365135 17.365135 0 1 0-34.730269 0Z" fill="#66B0D6" p-id="6639"></path><path d="M971.866493 626.164093a26.052465 26.052465 0 1 0 0-52.10493 26.052465 26.052465 0 0 0 0 52.10493z m0-8.68733a17.365135 17.365135 0 1 1 0-34.73027 17.365135 17.365135 0 0 1 0 34.73027z" fill="#66B0D6" p-id="6640"></path><path d="M811.231851 370.006921m-17.365135 0a17.365135 17.365135 0 1 0 34.73027 0 17.365135 17.365135 0 1 0-34.73027 0Z" fill="#66B0D6" p-id="6641"></path><path d="M1242.354902 144.488781c6.144 3.052949 13.673972 4.543702 22.518475 4.519889l-0.2048-9.525582c-8.673042 0.352447-16.131572 2.009898-22.313675 5.000931z m-32.377451-0.333395c-5.281935-2.49094-11.416409-4.038847-18.374846-4.653246l0.076204 9.477953c6.906047-0.723944 13.011944-2.329005 18.298642-4.824707z m17.188912-15.717209c3.319665-5.867758 5.191442-12.821433 5.610567-20.780056l-9.516056-0.223851c0.047628 8.134847 1.333581 15.1552 3.905489 21.003907zM1656.231888 165.678437c6.144 3.052949 13.678735 4.543702 22.518475 4.519889l-0.2048-9.525582c-8.673042 0.352447-16.126809 2.009898-22.313675 5.00093z m-32.377451-0.333395c-5.281935-2.49094-11.416409-4.038847-18.374846-4.653247l0.080967 9.477954c6.901284-0.723944 13.007181-2.329005 18.289116-4.819944z m17.188912-15.717209c3.319665-5.867758 5.191442-12.81667 5.610567-20.780056l-9.516056-0.223851c0.047628 8.134847 1.333581 15.1552 3.905489 21.003907zM308.362121 984.878437c6.144 3.052949 13.678735 4.543702 22.518474 4.519889l-0.2048-9.525582c-8.673042 0.352447-16.126809 2.009898-22.313674 5.00093z m-32.377451-0.333395c-5.281935-2.49094-11.416409-4.038847-18.374847-4.653247l0.080968 9.477954c6.901284-0.723944 13.007181-2.329005 18.289116-4.819944z m17.188911-15.717209c3.319665-5.867758 5.191442-12.81667 5.610568-20.780056l-9.516056-0.223851c0.047628 8.134847 1.333581 15.1552 3.905488 21.003907zM51.171423 665.77146c6.144 3.052949 13.678735 4.543702 22.518475 4.519889l-0.2048-9.525582c-8.673042 0.352447-16.126809 2.009898-22.313675 5.000931z m-32.377451-0.333395c-5.281935-2.49094-11.416409-4.038847-18.374846-4.653246l0.080967 9.477953c6.901284-0.723944 13.007181-2.329005 18.289116-4.819944z m17.188912-15.717209c3.319665-5.867758 5.191442-12.81667 5.610567-20.780056l-9.516056-0.223851c0.047628 8.134847 1.333581 15.1552 3.905489 21.003907z" fill="#629FF7" p-id="6642"></path></svg>