<?xml version="1.0" standalone="no"?><!DOCTYPE svg PUBLIC "-//W3C//DTD SVG 1.1//EN" "http://www.w3.org/Graphics/SVG/1.1/DTD/svg11.dtd"><svg t="1755348454127" class="icon" viewBox="0 0 1024 1024" version="1.1" xmlns="http://www.w3.org/2000/svg" p-id="16242" xmlns:xlink="http://www.w3.org/1999/xlink" width="200" height="200"><path d="M843.932 493.442L512.408 835.666 181.147 495.789a189.257 189.257 0 0 1-42.715-119.782c0-103.694 83.71-188.096 186.521-188.096 62.665 0.045 121.084 31.622 155.373 83.994l31.148 47.115 31.148-47.115c34.312-52.349 92.72-83.925 155.373-83.994 102.846 0 186.521 84.403 186.521 188.096 0 43.687-15.146 86.222-40.584 117.435M697.995 113.419c-70.292-0.023-137.597 28.416-186.521 78.81-48.918-50.405-116.223-78.845-186.521-78.81-143.994 0-261.128 117.81-261.128 262.588 0 60.857 21.186 120.158 61.737 169.399l333.351 342.183a72.81 72.81 0 0 0 52.561 22.307c19.958 0 38.61-7.934 52.602-22.272l335.439-344.606c38.559-47.143 59.62-106.142 59.608-167.011 0-144.779-117.132-262.588-261.128-262.588" fill="#333333" p-id="16243"></path></svg>