<?xml version="1.0" standalone="no"?><!DOCTYPE svg PUBLIC "-//W3C//DTD SVG 1.1//EN" "http://www.w3.org/Graphics/SVG/1.1/DTD/svg11.dtd"><svg t="1756370075131" class="icon" viewBox="0 0 1092 1024" version="1.1" xmlns="http://www.w3.org/2000/svg" p-id="11463" xmlns:xlink="http://www.w3.org/1999/xlink" width="213.28125" height="200"><path d="M527.428267 851.285333H171.2128C78.6432 851.285333 0 772.642133 0 680.1408V171.2128C0 78.6432 78.6432 0 171.2128 0h356.215467c18.500267 0 32.3584 13.858133 32.3584 32.3584a31.607467 31.607467 0 0 1-32.3584 32.426667H171.2128c-60.142933 0-106.496 46.2848-106.496 106.427733v508.928c0 60.074667 46.353067 106.359467 106.496 106.359467h356.215467c18.500267 0 32.3584 13.9264 32.3584 32.426666a31.607467 31.607467 0 0 1-32.3584 32.3584z m370.141866 0H541.2864a31.607467 31.607467 0 0 1-32.3584-32.3584c0-18.500267 13.858133-32.426667 32.3584-32.426666h356.283733c60.074667 0 106.427733-46.216533 106.427734-106.427734V171.2128c0-60.142933-46.2848-106.496-106.496-106.496H541.354667a31.607467 31.607467 0 0 1-32.3584-32.3584c0-18.432 13.858133-32.3584 32.3584-32.3584h356.283733c92.501333 0 171.144533 78.6432 171.144533 171.2128v508.859733a170.8032 170.8032 0 0 1-171.144533 171.2128z m-55.5008 115.643734H194.286933a31.607467 31.607467 0 0 1-32.3584-32.3584c0-18.500267 13.858133-32.3584 32.3584-32.3584h647.7824c18.432 0 32.3584 13.858133 32.3584 32.3584a31.607467 31.607467 0 0 1-32.3584 32.3584zM532.0704 619.9296c-115.712 0-208.213333-92.501333-208.213333-203.5712 0-18.432 13.858133-32.3584 32.3584-32.3584 18.568533 0 32.426667 13.858133 32.426666 32.3584 0 78.711467 64.785067 138.8544 138.786134 138.8544h4.642133c55.5008 0 106.427733-37.0688 129.501867-87.927467 4.642133-18.500267 23.210667-23.1424 41.642666-18.500266 18.500267 4.642133 23.210667 23.1424 18.500267 41.642666-27.716267 78.6432-106.359467 129.501867-189.6448 129.501867zM351.573333 485.7856c-9.284267 0-27.784533-4.642133-37.000533-37.000533-4.642133-13.858133 0-27.784533 13.858133-32.426667v-23.074133a202.410667 202.410667 0 0 1 203.5712-203.5712 202.410667 202.410667 0 0 1 203.5712 203.5712c-4.642133 32.3584-4.642133 32.3584-212.855466 32.3584a31.607467 31.607467 0 0 1-32.3584-32.3584c0-18.500267 13.858133-32.426667 32.3584-32.426667H666.282667c-13.858133-60.074667-69.358933-106.427733-138.786134-106.427733a139.195733 139.195733 0 0 0-138.786133 138.8544c0 50.858667 0 87.8592-37.000533 92.501333zM291.498667 629.213867c-23.210667 0-46.2848-4.642133-55.569067-23.1424-64.7168-92.501333 212.855467-286.856533 245.213867-309.930667 74.069333-55.569067 148.0704-92.5696 203.5712-106.496 83.285333-23.074133 115.712-4.573867 134.212266 18.568533 9.216 13.858133 13.858133 27.716267 9.216 46.216534-9.216 46.2848-74.001067 87.927467-92.501333 101.7856l-32.426667-55.5008c27.784533-18.432 55.569067-41.642667 60.142934-50.858667-18.432-4.642133-101.717333 9.216-245.213867 106.359467C374.784 458.069333 305.3568 541.354667 291.498667 573.713067c13.858133 0 37.000533-4.642133 78.6432-23.210667 18.432-9.216 37.000533-13.789867 41.642666-18.432l32.3584 55.5008c-4.642133 4.642133-27.784533 13.858133-46.2848 18.500267-32.3584 9.284267-74.001067 23.1424-106.359466 23.1424z" fill="#000000" p-id="11464"></path></svg>