<?xml version="1.0" standalone="no"?><!DOCTYPE svg PUBLIC "-//W3C//DTD SVG 1.1//EN" "http://www.w3.org/Graphics/SVG/1.1/DTD/svg11.dtd"><svg t="1754804994688" class="icon" viewBox="0 0 1024 1024" version="1.1" xmlns="http://www.w3.org/2000/svg" p-id="13836" xmlns:xlink="http://www.w3.org/1999/xlink" width="200" height="200"><path d="M499.370667 146.986667c8.832-46.506667 50.816-79.445333 98.986666-79.445334 3.626667 0 7.253333 0.256 10.837334 0.853334 59.136 6.101333 99.370667 60.288 94.293333 117.12-10.154667 112.213333-30.250667 178.645333-30.250667 178.645333h135.082667a118.613333 118.613333 0 0 1 117.418667 136.277333l-45.866667 305.749334a178.133333 178.133333 0 0 1-176.128 151.637333H155.690667a59.306667 59.306667 0 0 1-59.349334-59.392V423.424a59.306667 59.306667 0 0 1 59.349334-59.392h119.04c5.333333 0 92.8-0.128 116.352-11.776 31.146667-15.232 74.24-62.976 86.528-106.197333 7.466667-26.197333 21.76-99.072 21.76-99.072z" fill="#FF6957" p-id="13837"></path><path d="M327.04 505.6v312.234667a35.498667 35.498667 0 1 1-71.04 0v-312.277334a35.541333 35.541333 0 0 1 71.04 0z" fill="#FFFFFF" p-id="13838"></path></svg>