<?xml version="1.0" standalone="no"?><!DOCTYPE svg PUBLIC "-//W3C//DTD SVG 1.1//EN" "http://www.w3.org/Graphics/SVG/1.1/DTD/svg11.dtd"><svg t="1756208132715" class="icon" viewBox="0 0 1024 1024" version="1.1" xmlns="http://www.w3.org/2000/svg" p-id="8088" xmlns:xlink="http://www.w3.org/1999/xlink" width="200" height="200"><path d="M170.666667 170.666667h455.111111v170.666666H170.666667V170.666667z m56.888889 113.777777h341.333333V227.555556H227.555556v56.888888z" fill="#333333" p-id="8089"></path><path d="M284.444444 56.888889h227.555556v170.666667H284.444444V56.888889z m56.888889 56.888889v56.888889h113.777778V113.777778H341.333333z" fill="#333333" p-id="8090"></path><path d="M113.777778 853.333333V227.555556h568.888889v199.111111h56.888889V170.666667H56.888889v739.555555h369.777778v-56.888889z" fill="#333333" p-id="8091"></path><path d="M967.111111 398.222222v398.222222l-170.666667 170.666667H398.222222V398.222222h568.888889z m-512 512h312.888889l142.222222-136.533333V455.111111H455.111111v455.111111z" fill="#333333" p-id="8092"></path><path d="M739.555556 739.555556h227.555555v-56.888889h-284.444444v284.444444h56.888889z" fill="#333333" p-id="8093"></path></svg>